<svg xmlns="http://www.w3.org/2000/svg">
<defs>
<font id="PTSerif-CaptionItalic" horiz-adv-x="600" >
  <font-face 
    font-family="PT Serif Caption"
    font-weight="400"
    font-style="italic"
    font-variant="small-caps"
    font-stretch="normal"
    units-per-em="1000"
    panose-1="2 6 6 3 5 5 5 9 2 4"
    ascent="778"
    descent="-222"
    x-height="525"
    cap-height="700"
    bbox="-415 -280 1289 991"
    underline-thickness="50"
    underline-position="-50"
    slope="-12"
    unicode-range="U+0020-FB02"
  />
<missing-glyph horiz-adv-x="709" 
d="M50 700h650v-700h-650v700zM570 650l-195 -217l-195 217l-50 -50l197 -220l-197 -220l50 -50l195 217l195 -217l50 50l-198 220l198 220zM162 68h-35v-7h13v-35h9v35h13v7zM271 58h-2q-1 0 -2 1q-4 0 -9 -5v4h-7v-32h8v20q3 5 7 5q2 0 4 -1zM276 65q0 -5 4 -5q5 0 5 4
q0 5 -5 5q-4 0 -4 -4zM276 26h9v32h-9v-32zM291 51h5v-25h8v25h8v7h-8q0 2 1 3t3 1h3h3l1 6q0 1 -4 1h-5h-4q-1 0 -3 -1.5t-2 -2.5q-1 -2 -1 -5v-2h-5v-7zM331 45q0 -25 23 -25q11 0 17.5 6t6.5 19q0 23 -24 23q-10 0 -16.5 -6t-6.5 -17zM338 45q0 17 16 17q17 0 17 -17
q0 -18 -17 -18q-16 0 -16 18zM361 40q-2 -1 -4 -1q-5 0 -5 6q0 4 5 4h3l3 5q-4 2 -9 2q-10 0 -10 -11q0 -13 10 -13q5 0 9 2zM402 27h9v14h5q7 0 12.5 3t5.5 11q0 10 -6 12t-13 2h-13v-42zM416 62q9 0 9 -6t-2.5 -6.5t-7.5 -0.5h-4v13h5zM440 51q3 1 5.5 1.5t5.5 0.5
q5 0 5 -5v-2q-1 0 -2 0.5t-3 0.5q-15 0 -15 -12q0 -9 10 -9q7 0 10 6l3 -5h7q-1 1 -1 8v13q0 12 -12 12q-5 0 -9 -1.5t-6 -2.5zM450 33q-5 0 -5 5q0 4 6 4q2 0 3 -0.5t2 -0.5v-3q-1 -5 -6 -5zM494 59q-2 1 -5 1q-5 0 -7 -6h-1l-1 5h-7v-32h9v20q0 5 7 5q1 0 1 -0.5t1 -0.5h1
zM499 51q10 2 11 2q6 0 6 -5v-2q-2 0 -3 0.5t-3 0.5q-15 0 -15 -12q0 -9 10 -9q8 0 11 6h1l1 -5h7q-1 1 -1 8v13q0 12 -12 12q-5 0 -8 -1.5t-6 -2.5zM509 33q-5 0 -5 5q0 4 6 4q2 0 3 -0.5t3 -0.5v-3q-3 -5 -7 -5zM557 69h-36v-7h14v-35h8v35h14v7zM567 59h-10l14 -32

<glyph glyph-name="fi" unicode="fi" horiz-adv-x="584" 
d="M237 471l-70 -426q-12 -74 -39.5 -121t-59 -74.5t-61.5 -39.5t-48 -17l-19 41q14 6 33 17t37.5 32.5t35 55.5t24.5 86l70 446h-79v54h93l8 46q9 50 29.5 84t51.5 55t70 30.5t84 9.5q26 0 51.5 -3t47.5 -8t39.5 -11.5t27.5 -13.5l-24 -109h-84l15 69q-11 6 -37 14t-65 8
q-38 0 -66.5 -26t-42.5 -93l-11 -52h289l-94 -471h82v-54h-193l97 471h-192z" />
    <glyph glyph-name="fl" unicode="fl" horiz-adv-x="617" 
d="M482 675q-23 10 -44.5 15.5t-47.5 5.5q-54 0 -85.5 -25.5t-45.5 -93.5l-11 -52h122v-54h-133l-70 -426q-12 -74 -39.5 -121t-59 -74.5t-61.5 -39.5t-48 -17l-19 41q14 6 33 17t37.5 32.5t35 55.5t24.5 86l70 446h-79v54h93l8 46q9 50 29.5 84t51.5 55t70 30.5t84 9.5h196
l-110 -581q-5 -22 -7 -36t-2 -27q0 -28 10 -38.5t25 -10.5q26 0 49 16t43 33l23 -35q-11 -14 -28 -28t-38 -26t-45 -19.5t-48 -7.5q-49 0 -72 24t-23 61q0 16 2.5 33.5t6.5 36.5z" />
    <glyph glyph-name=".notdef" horiz-adv-x="709" 
d="M50 700h650v-700h-650v700zM570 650l-195 -217l-195 217l-50 -50l197 -220l-197 -220l50 -50l195 217l195 -217l50 50l-198 220l198 220zM162 68h-35v-7h13v-35h9v35h13v7zM271 58h-2q-1 0 -2 1q-4 0 -9 -5v4h-7v-32h8v20q3 5 7 5q2 0 4 -1zM276 65q0 -5 4 -5q5 0 5 4
q0 5 -5 5q-4 0 -4 -4zM276 26h9v32h-9v-32zM291 51h5v-25h8v25h8v7h-8q0 2 1 3t3 1h3h3l1 6q0 1 -4 1h-5h-4q-1 0 -3 -1.5t-2 -2.5q-1 -2 -1 -5v-2h-5v-7zM331 45q0 -25 23 -25q11 0 17.5 6t6.5 19q0 23 -24 23q-10 0 -16.5 -6t-6.5 -17zM338 45q0 17 16 17q17 0 17 -17
q0 -18 -17 -18q-16 0 -16 18zM361 40q-2 -1 -4 -1q-5 0 -5 6q0 4 5 4h3l3 5q-4 2 -9 2q-10 0 -10 -11q0 -13 10 -13q5 0 9 2zM402 27h9v14h5q7 0 12.5 3t5.5 11q0 10 -6 12t-13 2h-13v-42zM416 62q9 0 9 -6t-2.5 -6.5t-7.5 -0.5h-4v13h5zM440 51q3 1 5.5 1.5t5.5 0.5
q5 0 5 -5v-2q-1 0 -2 0.5t-3 0.5q-15 0 -15 -12q0 -9 10 -9q7 0 10 6l3 -5h7q-1 1 -1 8v13q0 12 -12 12q-5 0 -9 -1.5t-6 -2.5zM450 33q-5 0 -5 5q0 4 6 4q2 0 3 -0.5t2 -0.5v-3q-1 -5 -6 -5zM494 59q-2 1 -5 1q-5 0 -7 -6h-1l-1 5h-7v-32h9v20q0 5 7 5q1 0 1 -0.5t1 -0.5h1
zM499 51q10 2 11 2q6 0 6 -5v-2q-2 0 -3 0.5t-3 0.5q-15 0 -15 -12q0 -9 10 -9q8 0 11 6h1l1 -5h7q-1 1 -1 8v13q0 12 -12 12q-5 0 -8 -1.5t-6 -2.5zM509 33q-5 0 -5 5q0 4 6 4q2 0 3 -0.5t3 -0.5v-3q-3 -5 -7 -5zM557 69h-36v-7h14v-35h8v35h14v7zM567 59h-10l14 -32
q-2 -5 -5 -5l-2 1l-2 -7q1 -1 6 -1q7 0 11 15l12 29h-9l-6 -18v-6h-1l-1 6zM595 15h9v13q2 -2 6 -2q16 0 16 18q0 16 -13 16q-6 0 -10 -5h-2l-1 4h-5v-44zM611 53q6 0 6 -9q0 -11 -9 -11q-2 0 -4 2v12q0 6 7 6zM656 35q-2 -2 -8 -2q-8 0 -8 7h21v7q0 13 -14 13
q-16 0 -16 -18q0 -16 16 -16q8 0 12 4zM647 53q7 0 6 -7h-13q0 7 7 7zM92 27h9v14h5q7 0 12.5 3t5.5 11q0 10 -6 12t-13 2h-13v-42zM106 62q9 0 9 -6t-2.5 -6.5t-7.5 -0.5h-4v13h5zM200 38q0 -5 -8 -5q-3 0 -5 0.5t-6 2.5l-3 -9q4 -1 7 -1.5t8 -0.5q16 0 16 14q0 5 -3.5 7.5
t-7 4l-7 3t-3.5 4.5t7 3q3 0 5.5 -0.5t5.5 -1.5l2 8q-4 1 -7 1.5t-6 0.5q-16 0 -16 -13q0 -5 3.5 -7.5t7 -4l7 -3t3.5 -3.5zM239 34q-2 -2 -8 -2q-8 0 -8 7h21v7q0 13 -14 13q-16 0 -16 -18q0 -16 16 -16q8 0 12 4zM230 52q7 0 6 -7h-13q0 7 7 7z" />
    <glyph glyph-name=".null" horiz-adv-x="0" 
 />
    <glyph glyph-name="nonmarkingreturn" horiz-adv-x="274" 
 />
    <glyph glyph-name="space" unicode=" " horiz-adv-x="274" 
 />
    <glyph glyph-name="exclam" unicode="!" horiz-adv-x="358" 
d="M174 218v177l65 305h105l-65 -305l-75 -177h-30zM80 58q0 31 21 49t56 18t57 -18t22 -49q0 -30 -22 -48t-57 -18t-56 18t-21 48z" />
    <glyph glyph-name="quotedbl" unicode="&#x22;" horiz-adv-x="393" 
d="M314 700h98l-68 -197h-44zM171 700h98l-68 -197h-44z" />
    <glyph glyph-name="numbersign" unicode="#" 
d="M345 233h-160l-46 -175h-59l46 175h-90l17 47h85l39 149h-85l17 47h82l45 166h59l-45 -166h160l45 166h59l-45 -166h90l-20 -47h-83l-40 -149h87l-21 -47h-78l-46 -175h-59zM198 280h159l39 149h-159z" />
    <glyph glyph-name="dollar" unicode="$" 
d="M429 710q51 -3 92.5 -13t65.5 -21l-28 -131h-72l19 92q-12 8 -35.5 12t-52.5 6l-55 -258q49 -32 82 -58.5t52.5 -52t27.5 -51t8 -54.5q0 -36 -14.5 -69t-45.5 -59.5t-79.5 -43.5t-117.5 -20l-12 -59h-59l12 59q-70 5 -116.5 24.5t-64.5 35.5l30 139h72l-21 -99
q10 -14 39.5 -26.5t72.5 -17.5l59 279q-39 24 -69.5 46t-51.5 46t-31.5 51.5t-10.5 62.5q0 37 14.5 69.5t44.5 56.5t76.5 38.5t109.5 16.5l11 49h59zM429 166q0 26 -18.5 55.5t-70.5 67.5l-52 -244q40 4 67 15t43.5 27t23.5 36.5t7 42.5zM229 546q0 -29 17 -56t65 -60
l47 225q-70 -5 -99.5 -33t-29.5 -76z" />
    <glyph glyph-name="percent" unicode="%" horiz-adv-x="908" 
d="M757 717l41 -38l-657 -686l-39 39zM52 501q0 46 20 84.5t53 66.5t76 44t90 16q77 0 117.5 -36t40.5 -93q0 -52 -21.5 -91.5t-55.5 -66t-76.5 -40t-84.5 -13.5q-33 0 -62 9.5t-50.5 26.5t-34 40.5t-12.5 52.5zM147 499q0 -17 4 -33t12.5 -28.5t22.5 -20t34 -7.5
q24 0 48 11t43 34t31 58t12 83q0 15 -3.5 29t-11.5 25t-22.5 17.5t-35.5 6.5q-24 0 -48 -13.5t-43 -36.5t-31 -55.5t-12 -69.5zM450 118q0 46 20 84.5t53 66.5t76 44t90 16q77 0 117.5 -36t40.5 -93q0 -52 -21.5 -91.5t-55.5 -66t-76.5 -40t-84.5 -13.5q-33 0 -62 9.5
t-50.5 26.5t-34 40.5t-12.5 52.5zM545 116q0 -17 4 -33t12.5 -28.5t22.5 -20t34 -7.5q24 0 48 11t43 34t31 58t12 83q0 15 -3.5 29t-11.5 25t-22.5 17.5t-35.5 6.5q-24 0 -48 -13.5t-43 -36.5t-31 -55.5t-12 -69.5z" />
    <glyph glyph-name="ampersand" unicode="&#x26;" horiz-adv-x="967" 
d="M533 123q-28 27 -59.5 63.5t-60.5 74t-53 72.5t-36 58q-40 -29 -65 -58t-39 -57t-19 -53t-5 -46q0 -35 11.5 -60t32 -42t48 -25t60.5 -8q49 0 99 20t86 61zM344 569q0 -36 16 -72t39 -65q24 15 45.5 33.5t38 40.5t26.5 46.5t10 51.5q0 11 -3 23t-11 21.5t-21.5 15.5
t-34.5 6q-28 0 -48 -9.5t-32.5 -24.5t-18.5 -33t-6 -34zM682 0q-20 14 -51.5 34.5t-65.5 55.5q-19 -18 -46.5 -36t-62.5 -33t-76 -24t-86 -9q-56 0 -96.5 14t-66.5 37t-38.5 54t-12.5 66q0 48 19.5 88t51 73t71 58.5t80.5 45.5q-22 32 -33 62.5t-11 68.5q0 27 11 54.5
t35 50.5t61 37.5t88 14.5q75 0 111 -30.5t36 -73.5q0 -34 -16 -63t-42 -54.5t-58.5 -46.5t-65.5 -38q35 -51 83.5 -104.5t104.5 -107.5q11 11 30 37t38 61t34.5 76t20.5 82h-66l11 50h230l-11 -50h-75q-22 -58 -47.5 -106t-50 -84.5t-45 -62t-32.5 -37.5q36 -31 71 -58
t80 -52h61l-11 -50h-162z" />
    <glyph glyph-name="quotesingle" unicode="'" horiz-adv-x="250" 
d="M171 700h98l-68 -197h-44z" />
    <glyph glyph-name="parenleft" unicode="(" horiz-adv-x="379" 
d="M231 -210q-22 17 -52.5 46.5t-58.5 73.5t-47.5 104t-19.5 138q0 82 27 159t76 147t118 131.5t154 112.5l21 -30q-57 -44 -110 -99.5t-94.5 -122t-66 -143t-24.5 -161.5q0 -65 9 -114t24.5 -87.5t36 -68t43.5 -53.5z" />
    <glyph glyph-name="parenright" unicode=")" horiz-adv-x="379" 
d="M158 702q22 -17 52.5 -46.5t58.5 -74t47.5 -104t19.5 -137.5q0 -83 -27 -159.5t-76 -146.5t-118 -131.5t-154 -112.5l-21 30q57 43 110 99t94.5 122.5t66 143t24.5 161.5q0 64 -9 113.5t-24.5 88t-36 68t-43.5 53.5z" />
    <glyph glyph-name="asterisk" unicode="*" horiz-adv-x="522" 
d="M465 507l-66 -110l-103 113l16 28zM398 695l66 -109l-151 -30l-18 25zM195 742h128l-47 -148h-35zM60 583l64 110l100 -111l-16 -26zM123 397l-63 108l149 35l15 -29zM326 349h-127l44 148h35z" />
    <glyph glyph-name="plus" unicode="+" 
d="M88 371h202v209h60v-209h202v-54h-202v-215h-60v215h-202v54z" />
    <glyph glyph-name="comma" unicode="," horiz-adv-x="309" 
d="M-7 -144q23 7 45 22.5t39.5 35.5t29.5 42.5t15 43.5h-70q-5 10 -6.5 20t-1.5 20q0 23 9.5 44.5t23.5 35.5h126q2 -11 3 -22t1 -22q0 -51 -18 -93.5t-46.5 -75.5t-65 -55t-72.5 -31z" />
    <glyph glyph-name="hyphen" unicode="-" horiz-adv-x="475" 
d="M96 314h316l-13 -64h-316z" />
    <glyph glyph-name="period" unicode="." horiz-adv-x="304" 
d="M38 58q0 31 21 49t56 18t57 -18t22 -49q0 -30 -22 -48t-57 -18t-56 18t-21 48z" />
    <glyph glyph-name="slash" unicode="/" horiz-adv-x="386" 
d="M366 713l49 -19l-410 -824l-48 20z" />
    <glyph glyph-name="zero" unicode="0" 
d="M58 211q0 90 21 180t63 161t105 115.5t147 44.5q37 0 72.5 -10.5t63.5 -35.5t45 -67t17 -104q0 -92 -21 -182.5t-64 -162.5t-107 -117t-149 -45q-52 0 -88.5 17.5t-60 47.5t-34 70.5t-10.5 87.5zM170 200q0 -54 9 -87t22.5 -51.5t30.5 -25t34 -6.5q34 0 63 20.5
t52.5 55.5t42 82.5t31 101.5t19 112t6.5 114q0 81 -22 117.5t-68 36.5q-53 0 -94 -41.5t-69 -108.5t-42.5 -151t-14.5 -169z" />
    <glyph glyph-name="one" unicode="1" 
d="M422 0h-331l14 64h114l120 564l-124 -63l-24 50l163 85h105l-135 -636h112z" />
    <glyph glyph-name="two" unicode="2" 
d="M235 533h-96l24 111q49 36 102.5 51t119.5 15q54 0 90 -11.5t57.5 -30.5t31 -44t9.5 -52q0 -57 -34.5 -118t-92 -121t-131.5 -117t-153 -106l-56 -30v-4l66 4h232l24 22l19 94h64l-41 -196h-454l18 84q33 18 77 48.5t91.5 69t94 83t83 92.5t59 97t22.5 95q0 16 -4.5 32
t-16 28t-32 19.5t-51.5 7.5q-33 0 -55 -5t-44 -13z" />
    <glyph glyph-name="three" unicode="3" 
d="M227 44q55 0 93 19t61.5 47.5t34 63t10.5 66.5q0 52 -33 75t-102 23h-72l14 68l265 218v4l-60 -8h-195l-24 -20l-18 -80h-64l39 180h432l-17 -78l-217 -178l-65 -42v-2l38 7q37 0 71.5 -8.5t61 -28t42.5 -50.5t16 -75q0 -50 -18 -96t-56.5 -81.5t-99 -56.5t-146.5 -21
q-26 0 -55 4t-55.5 10.5t-49 16t-35.5 21.5l25 118h96l-19 -89q11 -10 39 -18.5t63 -8.5z" />
    <glyph glyph-name="four" unicode="4" 
d="M496 0h-294l14 64h103l27 129h-344l14 64l438 443h105l-94 -443h124l-14 -64h-124l-27 -129h86zM422 549l22 72h-3l-50 -72l-263 -266l-44 -33l74 7h202z" />
    <glyph glyph-name="five" unicode="5" 
d="M556 750h64l-28 -130h-305l-40 -190h59q56 0 97 -12.5t68 -34.5t40 -52t13 -65q0 -59 -18 -109.5t-56.5 -87.5t-99.5 -58t-146 -21q-46 0 -88 10t-69 33l23 107h96l-19 -87q10 -2 29 -5.5t39 -3.5q57 0 95 18t60.5 47t32 65t9.5 71q0 62 -45 84.5t-130 22.5h-71l74 348
h285l24 20z" />
    <glyph glyph-name="six" unicode="6" 
d="M562 255q0 -48 -17.5 -95.5t-53.5 -86t-91.5 -62t-130.5 -23.5q-63 0 -104 20.5t-64.5 51.5t-32.5 67t-9 68q0 99 40.5 185.5t110 154.5t163 112.5t199.5 59.5l3 -50q-63 -12 -123 -38.5t-110 -66.5t-88.5 -92t-59.5 -115q31 31 77.5 51.5t109.5 20.5q47 0 81.5 -13.5
t56.5 -36t32.5 -52t10.5 -60.5zM450 254q0 21 -7 41t-20.5 35.5t-34.5 24.5t-49 9q-53 0 -95 -23.5t-65 -52.5q-2 -7 -5 -18t-5.5 -23t-4 -24t-1.5 -20q0 -32 5.5 -62.5t19 -54t37.5 -37.5t61 -14q36 0 66.5 15t52 43.5t33.5 69t12 91.5z" />
    <glyph glyph-name="seven" unicode="7" 
d="M196 519h-64l38 181h470l-17 -79l-382 -621h-110l396 578l45 48l-58 -5h-277l-24 -20z" />
    <glyph glyph-name="eight" unicode="8" 
d="M46 147q0 39 15 71t42.5 58.5t66 47t84.5 35.5q-15 9 -32.5 23t-32 33.5t-24.5 45.5t-10 60q0 46 19 81.5t52.5 60t79 37t97.5 12.5q50 0 85.5 -12t58.5 -31.5t34 -44.5t11 -52q0 -30 -10 -59t-31.5 -55t-55 -47.5t-80.5 -36.5q35 -20 59 -38.5t39 -39t21.5 -44.5
t6.5 -54q0 -43 -20.5 -81t-57.5 -66.5t-88.5 -45.5t-112.5 -17q-58 0 -99 12t-67 33.5t-38 50.5t-12 63zM436 179q0 27 -10.5 48.5t-29.5 40t-45.5 34.5t-58.5 33q-46 -24 -74.5 -48.5t-44 -48.5t-20.5 -47t-5 -44q0 -49 31 -80.5t93 -31.5q43 0 74 14.5t51 36t29.5 46.5
t9.5 47zM260 539q0 -26 10.5 -47.5t27 -39.5t37.5 -32.5t42 -25.5q27 17 48.5 38.5t35.5 44.5t21.5 46.5t7.5 44.5q0 97 -100 97q-55 0 -92.5 -32t-37.5 -94z" />
    <glyph glyph-name="nine" unicode="9" 
d="M95 449q0 49 17.5 96.5t53.5 84.5t91.5 59.5t130.5 22.5q62 0 102.5 -19.5t64.5 -49.5t33.5 -66.5t9.5 -71.5q0 -99 -40.5 -185.5t-110 -154.5t-163 -112.5t-199.5 -59.5l-3 50q63 12 122.5 38.5t110 66.5t88.5 92t59 115q-31 -31 -77 -51.5t-109 -20.5q-47 0 -81.5 14.5
t-56.5 37.5t-32.5 53t-10.5 61zM207 449q0 -21 7 -41.5t20.5 -36.5t34.5 -25.5t49 -9.5q53 0 94.5 23.5t64.5 52.5q2 7 5 18t5.5 23t4.5 24t2 20q0 35 -5.5 65.5t-19 53.5t-37.5 36t-61 13q-36 0 -66.5 -15t-52 -42.5t-33.5 -67.5t-12 -91z" />
    <glyph glyph-name="colon" unicode=":" horiz-adv-x="358" 
d="M153 441q0 31 21 49t56 18t57 -18t22 -49q0 -30 -22 -48t-57 -18t-56 18t-21 48zM72 58q0 31 21 49t56 18t57 -18t22 -49q0 -30 -22 -48t-57 -18t-56 18t-21 48z" />
    <glyph glyph-name="semicolon" unicode=";" horiz-adv-x="363" 
d="M154 441q0 31 21 49t56 18t57 -18t22 -49q0 -30 -22 -48t-57 -18t-56 18t-21 48zM28 -144q23 7 45 22.5t39.5 35.5t29.5 42.5t15 43.5h-70q-5 10 -6.5 20t-1.5 20q0 23 9.5 44.5t23.5 35.5h126q2 -11 3 -22t1 -22q0 -51 -18 -93.5t-46.5 -75.5t-65 -55t-72.5 -31z" />
    <glyph glyph-name="less" unicode="&#x3c;" 
d="M70 324v31l433 235l30 -59l-351 -186l357 -186l-37 -56z" />
    <glyph glyph-name="equal" unicode="=" 
d="M67 452h505v-54h-505v54zM67 290h505v-54h-505v54z" />
    <glyph glyph-name="greater" unicode="&#x3e;" 
d="M570 369v-31l-433 -235l-33 56l354 193l-357 182l37 56z" />
    <glyph glyph-name="question" unicode="?" horiz-adv-x="521" 
d="M233 548h-96l25 121q48 25 91 34t97 9q97 0 148 -41t51 -122q0 -48 -19.5 -92t-56 -79.5t-88.5 -60.5t-117 -35l-21 -100h-64l30 142q224 51 224 229q0 105 -98 105q-35 0 -55.5 -6t-31.5 -11zM110 58q0 31 21 49t56 18t57 -18t22 -49q0 -30 -22 -48t-57 -18t-56 18
t-21 48z" />
    <glyph glyph-name="at" unicode="@" horiz-adv-x="1111" 
d="M792 490l-57 -285v-148h13q45 0 83.5 19.5t66 55t43.5 85t16 109.5q0 76 -30.5 137.5t-82.5 105t-122.5 66.5t-149.5 23q-95 0 -172 -32t-131.5 -88.5t-84.5 -132.5t-30 -163q0 -89 35 -157.5t93 -115t132.5 -71t153.5 -24.5q32 0 73.5 7t75.5 21l18 -46q-40 -20 -87 -28
t-104 -8q-51 0 -105 11.5t-104.5 34.5t-95 58t-77.5 81t-52.5 104t-19.5 127q0 109 39 197t105.5 150t155 95.5t187.5 33.5q94 0 175.5 -26.5t141 -76t93.5 -121t34 -162.5q0 -59 -16.5 -117.5t-53 -104.5t-94.5 -74.5t-141 -28.5q-17 0 -33.5 1.5t-35.5 3.5v176h-6
q-13 -32 -34.5 -63t-49.5 -56.5t-59.5 -41t-64.5 -15.5q-67 0 -103.5 41.5t-36.5 110.5q0 63 23.5 124t64 109t94 77t113.5 29q40 0 65 -6.5t51 -17.5zM685 425q-17 10 -36 14t-46 4q-43 0 -80.5 -26t-65.5 -66.5t-44 -89t-16 -92.5q0 -48 16.5 -73.5t61.5 -25.5
q21 0 45.5 18t48.5 47t46.5 65.5t40.5 74.5z" />
    <glyph glyph-name="A" unicode="A" horiz-adv-x="745" 
d="M193 0h-243l12 56h76l394 644h106l98 -644h74l-12 -56h-283l12 56h89l-27 176h-264l-106 -176h86zM260 288h224l-31 231q-1 3 -1 19.5t-1 36.5q-1 22 -1 50h-4l-54 -108z" />
    <glyph glyph-name="B" unicode="B" horiz-adv-x="676" 
d="M-21 0l11 56h91l125 588h-91l12 56h129q21 0 41 1t42 2t47 2t55 1q45 0 85.5 -7.5t70.5 -24.5t47.5 -44.5t17.5 -67.5q0 -78 -51 -126.5t-134 -61.5v-4q25 -2 51 -10.5t48 -26.5t36 -45.5t14 -66.5q0 -56 -26 -98t-72.5 -71t-110.5 -43.5t-139 -14.5q-39 0 -88 3t-94 3
h-117zM298 50q40 0 78 10.5t68 32t48 53.5t18 75q0 62 -47 85.5t-129 23.5h-83l-57 -271q14 -4 36 -6.5t68 -2.5zM317 383q20 0 45.5 1.5t42.5 3.5q42 13 69 31.5t43 40.5t22.5 46.5t6.5 48.5q0 41 -28.5 68t-99.5 27q-34 0 -58.5 -1.5t-41.5 -3.5l-56 -262h55z" />
    <glyph glyph-name="C" unicode="C" horiz-adv-x="688" 
d="M559 184h64l-33 -157q-17 -9 -40.5 -16t-49.5 -12.5t-53 -8t-52 -2.5q-98 0 -160.5 23t-97.5 60.5t-48 84.5t-13 96q0 100 30 184.5t86 146t136.5 95.5t182.5 34q73 0 118.5 -10.5t80.5 -27.5l-37 -171h-64l23 105l-10 20q-11 5 -37 12.5t-78 7.5q-68 0 -124 -28
t-96.5 -79.5t-63 -124t-22.5 -161.5q0 -43 11.5 -80t37 -64.5t66 -43t97.5 -15.5q36 0 65.5 5.5t43.5 14.5l18 19z" />
    <glyph glyph-name="D" unicode="D" horiz-adv-x="774" 
d="M-21 0l11 56h91l125 588h-91l12 56h123q19 0 45 1t53.5 2.5t53 3t42.5 1.5q98 0 159 -22.5t95 -57.5t46 -78t12 -85q0 -105 -29.5 -192.5t-87.5 -150t-144 -97t-199 -34.5q-16 0 -39.5 1.5t-49.5 3l-52 3t-47 1.5h-129zM417 652q-28 0 -55 -1t-43 -4l-126 -596
q6 -1 20 -1.5t30.5 -1t31.5 -1t21 -0.5q96 0 160.5 37t103 96.5t55 135.5t16.5 154q0 36 -8.5 69t-32.5 58t-65.5 40t-107.5 15z" />
    <glyph glyph-name="E" unicode="E" horiz-adv-x="635" 
d="M659 700l-35 -164h-64l19 86l-16 22h-245l-55 -259h169l18 15l9 42h64l-36 -171h-64l9 42l-12 16h-169l-58 -273h262l24 20l21 98h64l-37 -174h-548l11 56h91l125 588h-91l12 56h532z" />
    <glyph glyph-name="F" unicode="F" horiz-adv-x="603" 
d="M183 56h107l-12 -56h-299l11 56h81l125 588h-81l12 56h531l-35 -164h-64l19 86l-16 22h-254l-58 -274h181l18 15l10 48h64l-3 -13.5t-7 -34t-9 -44t-9.5 -44t-7.5 -34l-3 -13.5h-64l11 48l-12 16h-181z" />
    <glyph glyph-name="G" unicode="G" horiz-adv-x="764" 
d="M617 48q-49 -29 -112 -44.5t-120 -15.5q-93 0 -153 23.5t-94.5 61t-48 85t-13.5 96.5q0 100 29.5 184t85 145t135.5 95t182 34q74 0 125 -10.5t86 -27.5l-1.5 -7.5t-4.5 -19.5t-6.5 -27.5t-6.5 -31.5q-8 -38 -18 -85h-64l23 105l-10 20q-8 5 -23 9t-32 6.5t-35 3.5t-32 1
q-74 0 -131.5 -31.5t-96.5 -85t-59.5 -124.5t-20.5 -150q0 -38 9 -75t32.5 -66t64 -46.5t103.5 -17.5q33 0 54 4.5t41 11.5l19 18l40 189h-106l12 56h277l-12 -56h-70z" />
    <glyph glyph-name="H" unicode="H" horiz-adv-x="810" 
d="M276 56l-12 -56h-285l11 56h91l125 588h-91l12 56h286l-12 -56h-83l-54 -257h350l54 257h-83l12 56h286l-12 -56h-91l-125 -588h91l-12 -56h-285l11 56h83l59 275h-350l-59 -275h83z" />
    <glyph glyph-name="I" unicode="I" horiz-adv-x="389" 
d="M293 0h-294l12 56h91l125 588h-91l12 56h294l-12 -56h-91l-125 -588h91z" />
    <glyph glyph-name="J" unicode="J" horiz-adv-x="370" 
d="M-41 -113q18 8 36.5 20.5t35 34t31 54.5t25.5 82l121 566h-83l12 56h286l-12 -56h-91l-118 -556q-15 -71 -43.5 -117t-61.5 -73t-66.5 -40t-58.5 -18z" />
    <glyph glyph-name="K" unicode="K" horiz-adv-x="702" 
d="M323 382l269 262h-81l12 56h253l-12 -56h-79l-290 -264l205 -324h63l-12 -56h-150l-189 332h-60l-59 -276h83l-12 -56h-285l11 56h91l125 588h-91l12 56h286l-12 -56h-83l-56 -262h61z" />
    <glyph glyph-name="L" unicode="L" horiz-adv-x="599" 
d="M115 644l12 56h311l-12 -56h-108l-125 -588h266l25 22l29 138h72l-46 -216h-560l11 56h91l125 588h-91z" />
    <glyph glyph-name="M" unicode="M" horiz-adv-x="974" 
d="M115 644l12 56h227l139 -441l336 441h218l-12 -56h-91l-125 -588h91l-12 -56h-290l12 56h91l95 446q1 3 6 21.5t10 39.5l14 56h-9l-66 -107l-282 -362h-61l-123 362l-19 117h-10l-12 -60q-5 -23 -9 -43t-5 -24l-95 -446h85l-12 -56h-239l11 56h91l125 588h-91z" />
    <glyph glyph-name="N" unicode="N" horiz-adv-x="810" 
d="M640 700h243l-12 -56h-91l-140 -656h-57l-302 549l-24 77h-4l-5 -78l-102 -480h87l-12 -56h-242l11 56h91l125 588h-91l12 56h191l258 -474l34 -83h5l12 86l88 415h-87z" />
    <glyph glyph-name="O" unicode="O" horiz-adv-x="820" 
d="M76 283q0 81 25.5 158.5t78 137.5t132.5 96.5t188 36.5q67 0 123 -19.5t95.5 -56.5t61.5 -89t22 -116q0 -80 -22 -159.5t-71 -142.5t-126 -102t-186 -39q-59 0 -116 17t-103 53t-74 91.5t-28 133.5zM201 282q0 -64 17.5 -109t46 -73.5t65.5 -42t75 -13.5q78 0 130 35.5
t83.5 91.5t45 124.5t13.5 134.5q0 111 -53 168.5t-149 57.5q-71 0 -123 -33t-85.5 -86t-49.5 -120t-16 -135z" />
    <glyph glyph-name="P" unicode="P" horiz-adv-x="657" 
d="M115 644l12 56h112q45 0 95.5 4t99.5 4q55 0 100.5 -10t77.5 -31t50 -53.5t18 -77.5q0 -66 -26 -116t-72.5 -84t-110.5 -51t-139 -17h-18.5t-26.5 0.5t-27.5 1.5t-20.5 2l-46 -216h100l-12 -56h-302l11 56h91l125 588h-91zM251 329q5 -2 14.5 -2.5t20.5 -1.5t21.5 -1
h16.5q46 0 88 12t74 37t50.5 63.5t18.5 92.5q0 56 -38 89.5t-126 33.5q-27 0 -43 -2t-30 -4z" />
    <glyph glyph-name="Q" unicode="Q" horiz-adv-x="820" 
d="M830 -131q-51 -37 -105.5 -54t-108.5 -17q-46 0 -96 17t-104 38.5t-113 42t-123 27.5l16 40q24 3 47 3q57 0 110.5 -12.5t107 -27.5t109 -27.5t115.5 -12.5q32 0 66.5 5t70.5 16zM76 283q0 81 25.5 158.5t78 137.5t132.5 96.5t188 36.5q67 0 123 -19.5t95.5 -56.5
t61.5 -89t22 -116q0 -80 -22 -159.5t-71 -142.5t-126 -102t-186 -39q-59 0 -116 17t-103 53t-74 91.5t-28 133.5zM201 282q0 -64 17.5 -109t46 -73.5t65.5 -42t75 -13.5q78 0 130 35.5t83.5 91.5t45 124.5t13.5 134.5q0 111 -53 168.5t-149 57.5q-71 0 -123 -33t-85.5 -86
t-49.5 -120t-16 -135z" />
    <glyph glyph-name="R" unicode="R" horiz-adv-x="700" 
d="M193 56h86l-12 -56h-288l11 56h91l125 588h-91l12 56h101q45 0 99 4t105 4q112 0 170 -42.5t58 -124.5q0 -50 -19 -89.5t-49 -68t-68 -46t-76 -23.5l145 -258h67l-12 -56h-155l-146 303h-102zM335 354q41 0 77.5 11t63.5 34t43 58t16 83q0 54 -32 83t-108 29
q-26 0 -44 -2t-33 -4l-62 -292h79z" />
    <glyph glyph-name="S" unicode="S" horiz-adv-x="586" 
d="M102 104l13 -24q7 -6 21 -12.5t31.5 -12t37 -8.5t38.5 -3q87 0 134.5 34t47.5 99q0 39 -21.5 67t-53.5 51t-70 44t-70 46.5t-53.5 58.5t-21.5 79q0 91 69 140t202 49q69 0 114 -9.5t77 -24.5l-2 -7.5t-4 -19.5t-5.5 -27.5t-6.5 -31.5q-8 -38 -18 -85h-64l22 107l-11 25
q-17 8 -49 12.5t-67 4.5q-75 0 -110 -30t-35 -72q0 -35 21.5 -60.5t53.5 -48t70 -44t70 -48t53.5 -61.5t21.5 -83q0 -50 -20 -90.5t-58.5 -69.5t-95.5 -45t-131 -16q-35 0 -67.5 5t-59.5 13t-47.5 17t-32.5 18l38 182h64z" />
    <glyph glyph-name="T" unicode="T" horiz-adv-x="688" 
d="M454 0h-318l12 56h103l125 588h-180l-23 -22l-28 -129h-72l44 207h654l-44 -207h-72l28 129l-17 22h-178l-125 -588h103z" />
    <glyph glyph-name="U" unicode="U" horiz-adv-x="752" 
d="M657 244q-28 -132 -105.5 -192.5t-204.5 -60.5q-67 0 -114 15.5t-77 42.5t-43.5 64.5t-13.5 82.5q0 37 9 79l78 369h-91l12 56h284l-12 -56h-81l-78 -367q-4 -20 -6.5 -37t-2.5 -34q0 -72 40 -110t124 -38q176 0 217 188l86 398h-82l12 56h237l-12 -56h-91z" />
    <glyph glyph-name="V" unicode="V" horiz-adv-x="771" 
d="M699 644h-91l12 56h253l-12 -56h-82l-369 -644h-111l-123 644h-86l12 56h302l-12 -56h-96l81 -467l9 -95h4l50 97z" />
    <glyph glyph-name="W" unicode="W" horiz-adv-x="1058" 
d="M985 644h-87l12 56h250l-12 -56h-83l-304 -644h-117l-39 553l-274 -553h-117l-38 644h-86l12 56h296l-12 -56h-95l16 -428q0 -3 -0.5 -24t-0.5 -45q-1 -28 -1 -64h4l68 135q1 2 11.5 23.5t27.5 56t38.5 77.5t43.5 88q52 105 118 237h75l40 -482v-25t1 -45q0 -28 1 -63h5
l59 135z" />
    <glyph glyph-name="X" unicode="X" horiz-adv-x="746" 
d="M542 700h256l-12 -56h-82l-254 -269l162 -319h91l-12 -56h-289l12 56h73l-123 247l-218 -247h77l-12 -56h-254l12 56h83l283 296l-148 292h-89l12 56h296l-12 -56h-80l108 -223l196 223h-88z" />
    <glyph glyph-name="Y" unicode="Y" horiz-adv-x="727" 
d="M575 700h254l-12 -56h-85l-287 -347l-51 -241h83l-12 -56h-286l12 56h91l51 240l-152 348h-91l12 56h299l-12 -56h-84l114 -296l236 296h-92z" />
    <glyph glyph-name="Z" unicode="Z" horiz-adv-x="662" 
d="M-4 56l570 588h-328l-24 -22l-27 -125h-72l43 203h555l-12 -56l-570 -588h365l25 22l26 125h72l-43 -203h-592z" />
    <glyph glyph-name="bracketleft" unicode="[" horiz-adv-x="336" 
d="M185 700h215l-9 -42h-116l-179 -846h116l-9 -42h-215z" />
    <glyph glyph-name="backslash" unicode="\" horiz-adv-x="428" 
d="M459 -107l-58 -27l-455 823l58 29z" />
    <glyph glyph-name="bracketright" unicode="]" horiz-adv-x="336" 
d="M155 -230h-215l9 42h116l179 846h-117l9 42h216z" />
    <glyph glyph-name="asciicircum" unicode="^" 
d="M284 711h39l191 -277h-102l-126 199l-146 -199h-64z" />
    <glyph glyph-name="underscore" unicode="_" horiz-adv-x="460" 
d="M0 -142h460v-54h-460v54z" />
    <glyph glyph-name="grave" unicode="`" horiz-adv-x="327" 
d="M327 615l-28 -23l-196 117v41h126z" />
    <glyph glyph-name="a" unicode="a" horiz-adv-x="591" 
d="M220 54q19 0 42 11.5t45.5 29.5t42 40.5t32.5 44.5l53 272q-10 13 -29.5 21t-44.5 8q-51 0 -90 -28.5t-66 -74.5t-41 -102.5t-14 -111.5q0 -110 70 -110zM370 117q-10 -17 -28 -39t-43.5 -41.5t-57.5 -33t-69 -13.5q-57 0 -91.5 39t-34.5 117q0 74 21 144t61 124.5
t98.5 87.5t134.5 33q28 0 53.5 -10.5t36.5 -23.5l16 24h77l-94 -471h82v-54h-177l21 117h-6z" />
    <glyph glyph-name="b" unicode="b" horiz-adv-x="582" 
d="M176 696h-74v54h183l-72 -319h6q33 46 80 75t113 29q58 0 93.5 -38t35.5 -120q0 -80 -23.5 -150.5t-67 -123t-104 -83t-135.5 -30.5q-55 0 -102.5 13.5t-70.5 32.5zM352 468q-22 0 -44 -8t-41 -21t-34 -29.5t-23 -32.5l-67 -318q17 -10 41 -12.5t47 -2.5q46 0 84 26.5
t65 70.5t42 100.5t15 116.5q0 50 -18 80t-67 30z" />
    <glyph glyph-name="c" unicode="c" horiz-adv-x="472" 
d="M436 99q-28 -52 -80 -80.5t-128 -28.5q-43 0 -77 15.5t-58 41.5t-36.5 61.5t-12.5 74.5q0 78 21 143t61.5 111.5t98.5 72t132 25.5q42 0 78 -10.5t51 -27.5l-30 -119h-70l21 90q-8 7 -26.5 10t-33.5 3q-45 0 -81.5 -19.5t-63 -54.5t-40.5 -84.5t-14 -110.5
q0 -72 33 -113.5t87 -41.5q45 0 79.5 19.5t55.5 48.5z" />
    <glyph glyph-name="d" unicode="d" horiz-adv-x="591" 
d="M230 54q26 0 48.5 9t41.5 24t34.5 34t26.5 39l59 301q-16 11 -29.5 15.5t-38.5 4.5q-53 0 -93.5 -28.5t-68.5 -74t-42.5 -102t-14.5 -112.5q0 -54 21.5 -82t55.5 -28zM365 104q-11 -20 -28 -40.5t-40 -37t-52 -26.5t-63 -10q-29 0 -53 11t-42 31t-28 49.5t-10 65.5
q0 74 22 144t63.5 124t101.5 87t135 33q15 0 25.5 -1t19 -3t16.5 -5.5t19 -7.5l37 178h-73v54h183l-145 -700h81v-50h-177l13 104h-5z" />
    <glyph glyph-name="e" unicode="e" horiz-adv-x="501" 
d="M435 96q-11 -20 -30 -39t-45 -34t-58 -24t-69 -9q-86 0 -137.5 48.5t-51.5 136.5q0 75 22 141t62 114t96.5 76.5t125.5 28.5q27 0 51 -6.5t42 -19.5t28 -32t10 -44q0 -72 -76 -116t-249 -56q-4 -18 -6 -34t-2 -32q0 -63 32.5 -100.5t95.5 -37.5q20 0 39.5 6t37.5 15.5
t32.5 21.5t23.5 23zM317 488q-47 0 -86 -41.5t-67 -138.5q106 3 162.5 35t56.5 86q0 11 -3 21.5t-10.5 19t-20 13.5t-32.5 5z" />
    <glyph glyph-name="f" unicode="f" horiz-adv-x="327" 
d="M140 471h-79v54h93l8 46q9 50 29.5 84t51.5 55t70 30.5t84 9.5q19 0 44 -4.5t43 -12.5l-27 -114h-57l14 69q-11 4 -23 6t-23 2q-38 0 -66.5 -26t-42.5 -93l-11 -52h122v-54h-133l-70 -426q-12 -74 -39.5 -121t-59 -74.5t-61.5 -39.5t-48 -17l-19 41q14 6 32.5 17
t37.5 32.5t35 55.5t25 86z" />
    <glyph glyph-name="g" unicode="g" horiz-adv-x="538" 
d="M367 -55q0 28 -25.5 46.5t-70.5 31t-106.5 20.5t-133.5 15l99 139q-14 7 -28.5 17.5t-25.5 26.5t-18 37.5t-7 49.5q0 49 18.5 87.5t52.5 65t80.5 40.5t103.5 14h272v-54h-109q7 -12 11 -37t4 -49q0 -55 -20.5 -96.5t-54.5 -70t-78.5 -43t-92.5 -14.5q-21 0 -42 2t-28 6
l-44 -62q54 -4 115 -10t112.5 -21t85.5 -42t34 -72q0 -44 -24 -78t-63.5 -57t-91.5 -35t-108 -12q-48 0 -90.5 9t-75 25.5t-51 39t-18.5 50.5q0 33 22 55t50 31h55q-14 -12 -22.5 -29.5t-8.5 -33.5q0 -24 14 -41.5t36 -29t49.5 -17t55.5 -5.5q41 0 72 8.5t52 23t32 32.5
t11 37zM311 485q-74 0 -120.5 -39.5t-46.5 -124.5q0 -27 8.5 -47t22 -33.5t31 -20t35.5 -6.5q34 0 62.5 12t48.5 33.5t31 51.5t11 67q0 38 -7.5 64.5t-21.5 42.5h-54z" />
    <glyph glyph-name="h" unicode="h" horiz-adv-x="601" 
d="M113 696v54h181l-71 -309h6q38 39 85 66.5t113 27.5q102 0 102 -120q0 -29 -5.5 -61.5t-13.5 -62.5l-61 -237h85v-54h-187l63 273q8 32 14.5 61t6.5 55q0 37 -15.5 58t-47.5 21q-23 0 -45 -6.5t-42 -16.5t-37 -23t-29 -26l-82 -396h-96l148 696h-72z" />
    <glyph glyph-name="i" unicode="i" horiz-adv-x="307" 
d="M76 471v54h181l-104 -471h82v-54h-193l107 471h-73zM143 687q0 29 20.5 46t52.5 17q34 0 53.5 -17t19.5 -46t-19.5 -46t-53.5 -17q-32 0 -52.5 17t-20.5 46z" />
    <glyph glyph-name="j" unicode="j" horiz-adv-x="300" 
d="M147 471h-68v54h177l-105 -480q-17 -75 -47.5 -122t-64.5 -75t-66 -40t-50 -17l-16 41q13 6 32.5 16.5t39.5 31.5t39 55.5t31 89.5zM138 687q0 29 20.5 46t52.5 17q34 0 53.5 -17t19.5 -46t-19.5 -46t-53.5 -17q-32 0 -52.5 17t-20.5 46z" />
    <glyph glyph-name="k" unicode="k" horiz-adv-x="533" 
d="M225 249h-39l-51 -249h-98l146 696h-73v54h180l-95 -461h32l159 159v77h133v-42l-211 -184l136 -245h58v-54h-145z" />
    <glyph glyph-name="l" unicode="l" horiz-adv-x="297" 
d="M175 696h-73v54h181l-122 -581q-5 -22 -6 -36t-1 -27q0 -28 10 -38.5t25 -10.5q26 0 49 16t43 33l23 -35q-11 -14 -28 -28t-38 -26t-45 -19.5t-48 -7.5q-49 0 -72 24t-23 61q0 16 2.5 33.5t6.5 36.5z" />
    <glyph glyph-name="m" unicode="m" horiz-adv-x="883" 
d="M698 315q7 26 13.5 53.5t6.5 44.5q0 26 -12.5 42t-44.5 16q-17 0 -38 -9t-41.5 -22.5t-38 -30.5t-26.5 -33l-92 -376h-92l69 295q8 32 13.5 62.5t5.5 62.5q0 23 -9 37t-31 14t-43.5 -8t-41 -21t-36 -30t-30.5 -36l-86 -376h-98l103 471h-68v54h179l-22 -87h4q12 14 30 31
t41 31.5t51.5 24.5t61.5 10q40 0 65 -22.5t25 -78.5q48 46 97 73.5t106 27.5q97 0 97 -101q0 -27 -5.5 -56t-15.5 -63l-74 -261h83v-54h-190z" />
    <glyph glyph-name="n" unicode="n" horiz-adv-x="610" 
d="M425 299q8 32 14 60.5t6 55.5q0 23 -12 39.5t-36 16.5q-30 0 -57.5 -12t-50.5 -29.5t-40.5 -36.5t-27.5 -33l-78 -360h-97l99 471h-69v54h178l-23 -104h5q42 51 94 82.5t112 31.5q54 0 77.5 -26.5t23.5 -68.5q0 -23 -5.5 -58t-13.5 -65l-63 -263h82v-54h-87h-98z" />
    <glyph glyph-name="o" unicode="o" horiz-adv-x="564" 
d="M44 195q0 56 18.5 116.5t56 109.5t94 81.5t132.5 32.5q87 0 131 -51t44 -149q0 -69 -21 -131t-59 -109t-91 -76t-118 -29q-85 0 -136 52.5t-51 152.5zM323 488q-35 0 -62 -15t-46 -40.5t-32 -58t-21 -68t-11 -70t-3 -65.5q0 -58 27.5 -96t75.5 -38q38 0 68.5 28t52 71.5
t33 99.5t11.5 115q0 62 -22.5 99.5t-70.5 37.5z" />
    <glyph glyph-name="p" unicode="p" horiz-adv-x="599" 
d="M110 -150h76v-50h-186l151 671h-68v54h177l-26 -103h4q16 22 36 42.5t44.5 36.5t53 25t61.5 9q56 0 92 -37.5t36 -119.5q0 -76 -25 -146t-68.5 -124t-102 -86t-125.5 -32q-18 0 -31 1t-23 3.5t-19.5 5.5t-20.5 8zM380 471q-28 0 -53.5 -12t-46 -29.5t-35.5 -38t-22 -38.5
l-65 -295q7 -6 14.5 -10.5t17 -6.5t22.5 -3t32 -1q43 0 81.5 30t67.5 77.5t46.5 106.5t17.5 116q0 50 -19.5 77t-57.5 27z" />
    <glyph glyph-name="q" unicode="q" horiz-adv-x="570" 
d="M394 -150h77v-50h-186l71 298h-4q-11 -18 -29.5 -37t-42.5 -35t-52 -26t-58 -10q-65 0 -95.5 43.5t-30.5 113.5q0 75 21 145t62.5 124t103.5 86.5t143 32.5q24 0 49.5 -3t48 -8t41 -10.5t29.5 -11.5zM217 57q21 0 44.5 9.5t44.5 24.5t37.5 32t25.5 32l68 319
q-14 8 -29 11t-40 3q-56 0 -97.5 -30t-68.5 -76.5t-40.5 -104.5t-13.5 -113q0 -54 18.5 -80.5t50.5 -26.5z" />
    <glyph glyph-name="r" unicode="r" horiz-adv-x="418" 
d="M341 429q-10 -2 -23.5 -5.5t-28.5 -9.5t-31 -16t-31 -25l-82 -373h-98l103 471h-69v54h177l-24 -102h5q20 31 49 60.5t55 41.5h80v-96h-82z" />
    <glyph glyph-name="s" unicode="s" horiz-adv-x="471" 
d="M183 44q18 0 38.5 3.5t37.5 12.5t28 24.5t11 39.5q0 25 -15.5 44t-38.5 36.5t-50.5 35t-50.5 38t-38.5 46.5t-15.5 61q0 37 17 65.5t46 47t69 28t85 9.5q21 0 41.5 -3t38 -7.5t30.5 -10.5t19 -11l-30 -117h-62l17 82q-8 6 -28.5 9.5t-35.5 3.5q-16 0 -34.5 -2.5
t-34.5 -10t-26.5 -21t-10.5 -35.5q0 -27 15.5 -47t39.5 -37t51 -34t51 -37.5t39.5 -47t15.5 -63.5q0 -38 -20 -67t-53 -49t-76.5 -30t-89.5 -10q-26 0 -51.5 5t-47 12.5t-37 16t-21.5 14.5l38 119h68l-26 -83q11 -11 36 -20.5t61 -9.5z" />
    <glyph glyph-name="t" unicode="t" horiz-adv-x="395" 
d="M58 525h106l29 115h94l-27 -115h135v-54h-146l-78 -302q-5 -20 -7 -36t-2 -33q0 -46 52 -46q27 0 61 12.5t60 35.5l21 -40q-11 -12 -30.5 -25t-44.5 -23.5t-55 -17t-62 -6.5q-49 0 -76 24t-27 61q0 16 1 33.5t6 36.5l82 326h-92v54z" />
    <glyph glyph-name="u" unicode="u" 
d="M540 54v-54h-184l21 118h-4q-15 -21 -37 -43.5t-49.5 -41t-60 -31t-68.5 -12.5q-46 0 -73 24.5t-27 71.5q0 14 2.5 36.5t8.5 51.5l63 297h-69v54h180l-69 -299q-6 -26 -12 -55.5t-6 -57.5q0 -30 13 -44.5t34 -14.5q34 0 64.5 16t55 37.5t41 44.5t24.5 38l67 335h95
l-91 -471h81z" />
    <glyph glyph-name="v" unicode="v" horiz-adv-x="496" 
d="M257 128l142 281l-20 116h123v-54l-252 -471h-100l-64 471h-69v54h162l43 -406v-65h9z" />
    <glyph glyph-name="w" unicode="w" horiz-adv-x="761" 
d="M548 122l118 277l-20 126h121v-54l-216 -471h-110l-39 282l-7 88h-5l-156 -370h-117l-29 471h-71v54h165l16 -471h5l29 82l142 335h92l56 -417h5z" />
    <glyph glyph-name="x" unicode="x" horiz-adv-x="502" 
d="M221 223l-113 -133l16 -90h-129v54l211 212l-76 205h-68v54h156l66 -207l107 116l-8 91h116v-54l-201 -200l84 -217h66v-54h-155z" />
    <glyph glyph-name="y" unicode="y" horiz-adv-x="508" 
d="M96 471h-61v54h149l78 -416v-55h8l27 52q17 37 35 79t35.5 84t32.5 82.5t25 76.5l-28 97h123v-54q-16 -44 -39.5 -102.5t-51.5 -122t-60 -129.5t-64.5 -125.5t-65 -109.5t-61.5 -82h-115v96h111q14 17 28.5 39t28.5 65h-49z" />
    <glyph glyph-name="z" unicode="z" horiz-adv-x="483" 
d="M373 441h-235l-28 -72h-57l33 156h390v-54l-363 -387h262l27 72h58l-34 -156h-417v54z" />
    <glyph glyph-name="braceleft" unicode="{" horiz-adv-x="381" 
d="M118 110q4 17 4 36q0 35 -18 54t-53 19l7 32q44 0 73.5 30.5t38.5 74.5l51 238q10 48 43 77t87 29h103l-9 -42h-53q-30 0 -46.5 -14t-23.5 -46l-50 -233q-7 -33 -23.5 -56t-38 -37.5t-44.5 -22t-44 -9.5l-2 -6q17 -2 34.5 -8.5t32 -19t24 -30.5t9.5 -43q0 -13 -3 -28
l-50 -233q-1 -6 -1.5 -10.5t-0.5 -9.5q0 -40 50 -40h51l-9 -42h-103q-42 0 -65.5 18.5t-23.5 56.5q0 13 3 30z" />
    <glyph glyph-name="bar" unicode="|" horiz-adv-x="266" 
d="M103 700h59v-830h-59v830z" />
    <glyph glyph-name="braceright" unicode="}" horiz-adv-x="381" 
d="M270 361q-4 -17 -4 -35q0 -35 18 -54.5t53 -19.5l-7 -32q-43 0 -73 -30.5t-39 -74.5l-51 -239q-10 -48 -42.5 -77t-87.5 -29h-101l9 42h52q30 0 46.5 14t23.5 46l50 234q7 33 22 56t34 37.5t40.5 22t42.5 9.5l1 6q-17 1 -32.5 7.5t-28.5 18.5t-20.5 29t-7.5 41
q0 8 1.5 18.5t2.5 14.5l50 232q1 6 1.5 10.5t0.5 9.5q0 40 -49 40h-52l9 42h103q42 0 65.5 -19t23.5 -56q0 -7 -1 -14.5t-3 -15.5z" />
    <glyph glyph-name="asciitilde" unicode="~" horiz-adv-x="595" 
d="M59 331q41 54 82 70.5t76 16.5q29 0 55.5 -10.5t52.5 -23.5t52 -23.5t54 -10.5q21 0 42.5 7.5t44.5 26.5l19 -32q-32 -42 -65.5 -54.5t-65.5 -12.5q-29 0 -56.5 10.5t-54.5 23.5t-54 23.5t-54 10.5q-25 0 -49.5 -10.5t-50.5 -41.5z" />
    <glyph glyph-name="uni00A0" unicode="&#xa0;" horiz-adv-x="274" 
 />
    <glyph glyph-name="exclamdown" unicode="&#xa1;" horiz-adv-x="358" 
d="M217.011 286.014v-176.989l-64.9961 -304.981h-104.993l64.9951 304.981l74.9961 176.989h29.998zM311.005 446.004q0 -30.998 -20.999 -48.9971q-20.998 -17.999 -55.9961 -17.999t-56.9971 17.999q-21.998 17.999 -21.998 48.9971q0 29.998 21.998 47.9971
q21.999 17.999 56.9971 17.999t55.9961 -17.999q20.999 -17.999 20.999 -47.9971z" />
    <glyph glyph-name="cent" unicode="&#xa2;" 
d="M486 99q-26 -50 -74.5 -77.5t-118.5 -30.5l-36 -170h-60l39 172q-44 6 -76.5 25t-53.5 46t-31.5 60t-10.5 69q0 72 20 131t58 102.5t92 70.5t122 35l36 161h59l-36 -158q40 -2 70 -10t41 -18v-129h-72v90q-8 6 -23 9t-29 4l-95 -423h11q45 0 79.5 19t55.5 48zM168 222
q0 -54 20.5 -94.5t63.5 -57.5l93 406q-81 -17 -129 -82.5t-48 -171.5z" />
    <glyph glyph-name="sterling" unicode="&#xa3;" 
d="M65 381h95q-3 15 -5.5 26.5t-4.5 23.5t-3 26t-1 34q0 50 16.5 91t50 70t85 44.5t121.5 15.5q69 0 119 -9.5t79 -23.5l-37 -172h-64l27 124q-20 8 -51 17.5t-85 9.5q-41 0 -70 -13t-47.5 -34.5t-27 -50t-8.5 -58.5q0 -29 3.5 -56.5t11.5 -64.5h173l-11 -52h-153
q1 -7 1 -14v-15q0 -17 -2 -35.5t-8 -38.5q-5 -15 -13 -32.5t-22 -36.5t-34 -38t-48 -36h299l24 113h64l-40 -196h-511l6 33q77 27 121.5 71t56.5 94q4 17 6 34t2 35q0 15 -1.5 30.5t-3.5 31.5h-121z" />
    <glyph glyph-name="currency" unicode="&#xa4;" 
d="M40 171l93 81l38 12q-16 17 -22 37.5t-6 44.5q0 23 7 44t21 38l-38 12l-92 82l61 56l92 -83l14 -34q20 13 42.5 20t49.5 7q56 -2 92 -27l14 34l91 82l62 -56l-92 -81l-38 -11q14 -17 20.5 -38t7.5 -45q0 -49 -28 -83l38 -11l92 -82l-63 -56l-91 82l-13 34
q-38 -24 -92 -24q-27 0 -50 6.5t-45 17.5l-11 -33l-93 -82zM300 264q41 0 68 23t27 59t-27 60t-68 24t-68 -24t-27 -60t27 -59t68 -23z" />
    <glyph glyph-name="yen" unicode="&#xa5;" 
d="M502 700h250l-11 -50h-86l-243 -315h159l-12 -52h-181l-13 -63h181l-11 -52h-181l-25 -118h85l-11 -50h-290l11 50h93l25 118h-181l11 52h181l13 63h-181l12 52h158l-127 315h-91l11 50h300l-11 -50h-86l106 -301l225 301h-91z" />
    <glyph glyph-name="brokenbar" unicode="&#xa6;" horiz-adv-x="266" 
d="M103 190h59v-320h-59v320zM162 380h-59v320h59v-320z" />
    <glyph glyph-name="section" unicode="&#xa7;" horiz-adv-x="585" 
d="M248 -38q19 0 43 5t45 16.5t35.5 29t14.5 43.5q0 25 -20 40.5t-50.5 27.5t-65.5 23.5t-65.5 27.5t-50.5 39.5t-20 60.5q0 34 16.5 61t42.5 48t58 37t63 28q-36 17 -60.5 41.5t-24.5 66.5q0 40 19.5 69t51 48t69.5 28.5t76 9.5q60 0 102.5 -6.5t74.5 -20.5l-20 -98h-72
l14 63q-26 18 -81 18q-18 0 -39.5 -4t-40.5 -14t-32 -26.5t-13 -40.5q0 -25 20 -41.5t50 -30t65.5 -26t65.5 -29t50 -39.5t20 -56q0 -35 -17.5 -62t-44 -49t-58 -38t-60.5 -28q36 -16 61 -38t25 -57q0 -45 -24.5 -77.5t-62 -53t-82 -30.5t-85.5 -10q-32 0 -61 4.5t-52.5 11
t-40 14.5t-22.5 16l23 100h72l-14 -74q11 -8 37.5 -18t64.5 -10zM362 203q15 6 35.5 17.5t39 28t31 36.5t12.5 42q0 20 -12 35t-31.5 26.5t-44.5 21t-50 18.5q-20 -8 -41 -19t-38.5 -26t-28.5 -33.5t-11 -40.5q0 -21 11.5 -37t30.5 -28.5t44 -22t53 -18.5z" />
    <glyph glyph-name="dieresis" unicode="&#xa8;" horiz-adv-x="544" 
d="M167 688q0 29 17.5 46.5t46.5 17.5q28 0 45.5 -17.5t17.5 -46.5q0 -27 -17.5 -44.5t-45.5 -17.5q-29 0 -46.5 17.5t-17.5 44.5zM414 688q0 29 18 46.5t46 17.5q29 0 46 -17.5t17 -46.5q0 -27 -17 -44.5t-46 -17.5q-28 0 -46 17.5t-18 44.5z" />
    <glyph glyph-name="copyright" unicode="&#xa9;" horiz-adv-x="907" 
d="M78 290q0 83 31 148.5t83 110.5t120 69t141 24t139.5 -24t117 -69t80 -110.5t29.5 -148.5t-29.5 -148.5t-80 -110.5t-117 -69t-139.5 -24q-81 0 -149.5 24t-119 69t-78.5 110.5t-28 148.5zM132 290q0 -69 24 -125t67 -95.5t102 -61.5t128 -22q70 0 127.5 22t98.5 61.5
t63.5 95.5t22.5 125t-24 125t-66 96t-99 61.5t-123 21.5q-74 0 -133 -22t-101 -61.5t-64.5 -95.5t-22.5 -125zM545 207h46v-100q-20 -14 -49 -19.5t-61 -5.5q-54 0 -99.5 13.5t-78.5 40t-51.5 65.5t-18.5 90q0 52 20.5 91t53.5 65t75 39.5t85 13.5q45 0 75 -5.5t53 -16.5
v-109h-50v78q-3 2 -11.5 4t-18.5 3.5t-21 2.5t-19 1q-63 0 -98.5 -44.5t-35.5 -122.5q0 -33 8 -63.5t25.5 -53.5t45.5 -36.5t67 -13.5q21 0 37 5t21 9v69z" />
    <glyph glyph-name="ordfeminine" unicode="&#xaa;" horiz-adv-x="492" 
d="M303 451q-6 -10 -19 -22.5t-32 -24t-42.5 -19t-51.5 -7.5q-57 0 -87 30.5t-30 84.5q0 49 18.5 89.5t49.5 69.5t70 44.5t80 15.5q42 0 66 -11.5t33 -27.5l18 27h72l-62 -268h56v-46h-135v65h-4zM189 429q38 0 70 19.5t55 44.5l31 142q-7 11 -25.5 20t-38.5 9
q-27 0 -53 -10t-46.5 -30t-33 -51t-12.5 -73q0 -30 13.5 -50.5t39.5 -20.5z" />
    <glyph glyph-name="guillemotleft" unicode="&#xab;" horiz-adv-x="520" 
d="M253 259l235 206l24 -20l-157 -187l85 -181l-31 -21zM34 259l285 208l25 -21l-194 -189l122 -181l-35 -22z" />
    <glyph glyph-name="logicalnot" unicode="&#xac;" 
d="M50 388h478v-190h-72v126h-406v64z" />
    <glyph glyph-name="uni00AD" unicode="&#xad;" horiz-adv-x="475" 
d="M96 314h316l-13 -64h-316z" />
    <glyph glyph-name="registered" unicode="&#xae;" horiz-adv-x="785" 
d="M108 451q0 64 23 114t62 84t90.5 51.5t108.5 17.5q59 0 111 -17.5t90.5 -51.5t61 -84t22.5 -114q0 -65 -23 -114.5t-62.5 -83.5t-91 -51.5t-108.5 -17.5q-56 0 -107 17.5t-90.5 51.5t-63 83.5t-23.5 114.5zM156 451q0 -52 19.5 -93.5t52 -71t75 -45t89.5 -15.5
q49 0 92 15.5t75.5 44.5t51 70.5t18.5 94.5q0 52 -19.5 93.5t-52 70.5t-75.5 45t-90 16q-50 0 -93 -16t-75 -45t-50 -70.5t-18 -93.5zM355 343h40v-34h-140v34h39v231h-39v34h44q20 0 48 2t46 2q25 0 48.5 -4.5t41 -15t28 -26.5t10.5 -38q0 -31 -21.5 -51.5t-52.5 -29.5
l73 -104h27v-34h-77l-76 134h-39v-100zM388 579q-13 0 -19.5 -0.5t-13.5 -2.5v-103h35q65 0 65 55q0 26 -19 38.5t-48 12.5z" />
    <glyph glyph-name="macron" unicode="&#xaf;" horiz-adv-x="444" 
d="M151 668l12 55h288l-12 -55h-288z" />
    <glyph glyph-name="degree" unicode="&#xb0;" horiz-adv-x="474" 
d="M101 571q0 31 11 57t31 44.5t47.5 29t60.5 10.5q66 0 108.5 -35.5t42.5 -105.5q0 -66 -42.5 -103.5t-108.5 -37.5q-33 0 -60.5 9.5t-47.5 28t-31 44.5t-11 59zM161 571q0 -40 26 -65.5t64 -25.5q43 0 67 23.5t24 67.5q0 42 -24.5 66.5t-66.5 24.5q-43 0 -66.5 -24.5
t-23.5 -66.5z" />
    <glyph glyph-name="plusminus" unicode="&#xb1;" 
d="M78 491h212v209h60v-209h212v-54h-212v-153h-60v153h-212v54zM78 231h484v-54h-484v54z" />
    <glyph glyph-name="twosuperior" unicode="&#xb2;" horiz-adv-x="480" 
d="M202 637h-64l26 124q16 10 32.5 19t36.5 16t45.5 11t60.5 4q71 0 101 -27.5t30 -71.5q0 -38 -20.5 -72.5t-59 -67t-93.5 -64t-124 -61.5v-6l35 6h172l15 68h64l-27 -131h-361l12 63q55 27 107.5 58.5t93 65t65.5 68.5t25 68q0 26 -17.5 40t-58.5 14t-72 -14z" />
    <glyph glyph-name="threesuperior" unicode="&#xb3;" horiz-adv-x="480" 
d="M255 424q31 0 53 9t36 22.5t21 30.5t7 33q0 12 -4 22.5t-14.5 19t-30 13t-49.5 4.5h-38l6 32l178 144h-191l-20 -94h-64l31 144h334l-11 -50l-171 -132v-1l34 4q18 0 37 -6.5t34.5 -18.5t25 -30t9.5 -42q0 -31 -13.5 -58.5t-41 -48t-70.5 -32.5t-102 -12q-46 0 -90 14
t-70 37l15 72h92l-10 -54q8 -7 26.5 -14.5t50.5 -7.5z" />
    <glyph glyph-name="acute" unicode="&#xb4;" horiz-adv-x="482" 
d="M361 750h126v-41l-196 -117l-28 23z" />
    <glyph glyph-name="mu" unicode="&#xb5;" 
d="M108 -200h-108l149 671h-69v54h182l-69 -298q-8 -35 -13 -64t-5 -50q0 -28 15.5 -42t44.5 -14q18 0 39 6t43.5 21t46 39.5t45.5 60.5l63 334l98 8l-92 -472h81v-54h-164v110h-5q-38 -63 -93 -91.5t-107 -28.5q-23 0 -44 5t-38 21v-216z" />
    <glyph glyph-name="mu" unicode="&#x3bc;" 
d="M108 -200h-108l149 671h-69v54h182l-69 -298q-8 -35 -13 -64t-5 -50q0 -28 15.5 -42t44.5 -14q18 0 39 6t43.5 21t46 39.5t45.5 60.5l63 334l98 8l-92 -472h81v-54h-164v110h-5q-38 -63 -93 -91.5t-107 -28.5q-23 0 -44 5t-38 21v-216z" />
    <glyph glyph-name="paragraph" unicode="&#xb6;" horiz-adv-x="592" 
d="M444 94q0 -67 -12 -109.5t-33 -68t-49.5 -38t-61.5 -18.5q-23 -32 -53 -48t-59 -24l-23 33q25 9 46 22.5t36 36t23.5 57.5t8.5 87v286q-36 0 -71.5 10t-64 32.5t-46.5 59t-18 88.5q0 42 14 78.5t42 63.5t70.5 42.5t99.5 15.5h235v-50h-84v-556zM310 -94q35 13 52.5 56
t17.5 132v556h-49v-626q0 -40 -4 -68.5t-17 -49.5z" />
    <glyph glyph-name="periodcentered" unicode="&#xb7;" horiz-adv-x="269" 
d="M58 308q0 31 21 49t56 18t57 -18t22 -49q0 -30 -22 -48t-57 -18t-56 18t-21 48z" />
    <glyph glyph-name="cedilla" unicode="&#xb8;" horiz-adv-x="498" 
d="M194 -61q31 -1 50.5 -5t31 -12t15.5 -20t4 -29q0 -30 -20.5 -49t-51.5 -29.5t-67 -14.5t-67 -4v32q21 1 41.5 3t36.5 7t25.5 14t9.5 25q0 10 -2.5 17.5t-10.5 12t-22 7.5t-37 5l42 102h51z" />
    <glyph glyph-name="onesuperior" unicode="&#xb9;" horiz-adv-x="480" 
d="M423 384h-316l11 50h113l65 309l-107 -37l-12 45l132 53h91l-78 -370h112z" />
    <glyph glyph-name="ordmasculine" unicode="&#xba;" horiz-adv-x="481" 
d="M42 501q0 46 20 84.5t53 66.5t76 44t90 16q77 0 117.5 -36t40.5 -93q0 -52 -21.5 -91.5t-55.5 -66t-76.5 -40t-84.5 -13.5q-33 0 -62 9.5t-50.5 26.5t-34 40.5t-12.5 52.5zM137 499q0 -17 4 -33t12.5 -28.5t22.5 -20t34 -7.5q24 0 48 11t43 34t31 58t12 83q0 15 -3.5 29
t-11.5 25t-22.5 17.5t-35.5 6.5q-24 0 -48 -13.5t-43 -36.5t-31 -55.5t-12 -69.5z" />
    <glyph glyph-name="guillemotright" unicode="&#xbb;" horiz-adv-x="520" 
d="M52 56l-25 21l164 192l-80 176l34 20l147 -206zM220 54l-26 22l203 192l-117 178l33 21l198 -208z" />
    <glyph glyph-name="onequarter" unicode="&#xbc;" horiz-adv-x="1013" 
d="M376 280h-316l11 50h113l65 309l-107 -37l-12 45l132 53h91l-78 -370h112zM844 717l41 -38l-657 -686l-39 39zM877 -2h-240l11 50h89l14 69h-250l11 50l302 251h85l-53 -251h95l-11 -50h-95l-14 -69h67zM799 342l-213 -175h176z" />
    <glyph glyph-name="onehalf" unicode="&#xbd;" horiz-adv-x="1001" 
d="M376 280h-316l11 50h113l65 309l-107 -37l-12 45l132 53h91l-78 -370h112zM824 717l41 -38l-657 -686l-39 39zM673 251h-64l26 124q16 10 32.5 19t36.5 16t45.5 11t60.5 4q71 0 101 -27.5t30 -71.5q0 -38 -20.5 -72.5t-59 -67t-93.5 -64t-124 -61.5v-6l35 6h172l15 68h64
l-27 -131h-361l12 63q55 27 107.5 58.5t93 65t65.5 68.5t25 68q0 26 -17.5 40t-58.5 14t-72 -14z" />
    <glyph glyph-name="threequarters" unicode="&#xbe;" horiz-adv-x="1054" 
d="M234 320q31 0 53 9t36 22.5t21 30.5t7 33q0 12 -4 22.5t-14.5 19t-30 13t-49.5 4.5h-38l6 32l178 144h-191l-20 -94h-64l31 144h334l-11 -50l-171 -132v-1l34 4q18 0 37 -6.5t34.5 -18.5t25 -30t9.5 -42q0 -31 -13.5 -58.5t-41 -48t-70.5 -32.5t-102 -12q-46 0 -90 14
t-70 37l15 72h92l-10 -54q8 -7 26.5 -14.5t50.5 -7.5zM864 717l41 -38l-657 -686l-39 39zM918 -2h-240l11 50h89l14 69h-250l11 50l302 251h85l-53 -251h95l-11 -50h-95l-14 -69h67zM840 342l-213 -175h176z" />
    <glyph glyph-name="questiondown" unicode="&#xbf;" horiz-adv-x="521" 
d="M326.015 -43.9668h95.9941l-24.999 -120.992q-47.9971 -24.999 -90.9941 -33.998q-42.998 -9 -96.9941 -9q-96.9941 0 -147.991 40.998q-50.9971 40.9971 -50.9971 121.992q0 47.9971 19.499 91.9951q19.499 43.9971 55.9971 79.4951q36.4971 35.4971 88.4941 60.4961
q51.9971 24.998 116.993 34.998l20.998 99.9932h63.9961l-29.998 -141.991q-223.986 -50.9971 -223.986 -228.985q0 -104.994 97.9941 -104.994q34.998 0 55.4971 6q20.498 5.99902 31.498 10.999zM449.007 446.004q0 -30.998 -20.999 -48.9971
q-20.998 -17.999 -55.9961 -17.999t-56.9971 17.999q-21.998 17.999 -21.998 48.9971q0 29.998 21.998 47.9971q21.999 17.999 56.9971 17.999t55.9961 -17.999q20.999 -17.999 20.999 -47.9971z" />
    <glyph glyph-name="Agrave" unicode="&#xc0;" horiz-adv-x="745" 
d="M193 0h-243l12 56h76l394 644h106l98 -644h74l-12 -56h-283l12 56h89l-27 176h-264l-106 -176h86zM260 288h224l-31 231q-1 3 -1 19.5t-1 36.5q-1 22 -1 50h-4l-54 -108zM538 793l-13 -24l-256 72v40l123 33z" />
    <glyph glyph-name="Aacute" unicode="&#xc1;" horiz-adv-x="745" 
d="M193 0h-243l12 56h76l394 644h106l98 -644h74l-12 -56h-283l12 56h89l-27 176h-264l-106 -176h86zM260 288h224l-31 231q-1 3 -1 19.5t-1 36.5q-1 22 -1 50h-4l-54 -108zM595 914l123 -33v-40l-256 -72l-13 24z" />
    <glyph glyph-name="Acircumflex" unicode="&#xc2;" horiz-adv-x="745" 
d="M193 0h-243l12 56h76l394 644h106l98 -644h74l-12 -56h-283l12 56h89l-27 176h-264l-106 -176h86zM260 288h224l-31 231q-1 3 -1 19.5t-1 36.5q-1 22 -1 50h-4l-54 -108zM334 761l-16 20l192 133h31l121 -130l-18 -22l-142 56z" />
    <glyph glyph-name="Atilde" unicode="&#xc3;" horiz-adv-x="745" 
d="M193 0h-243l12 56h76l394 644h106l98 -644h74l-12 -56h-283l12 56h89l-27 176h-264l-106 -176h86zM260 288h224l-31 231q-1 3 -1 19.5t-1 36.5q-1 22 -1 50h-4l-54 -108zM668 843q-36 -38 -65.5 -53t-58.5 -15q-21 0 -39.5 6.5t-36.5 14t-35 14t-35 6.5q-14 0 -31 -6.5
t-35 -23.5l-22 36q43 42 76 57t62 15q21 0 39 -6t35 -13.5t33.5 -13.5t34.5 -6q14 0 30.5 5t33.5 19z" />
    <glyph glyph-name="Adieresis" unicode="&#xc4;" horiz-adv-x="745" 
d="M193 0h-243l12 56h76l394 644h106l98 -644h74l-12 -56h-283l12 56h89l-27 176h-264l-106 -176h86zM260 288h224l-31 231q-1 3 -1 19.5t-1 36.5q-1 22 -1 50h-4l-54 -108zM292 796q0 29 18.5 43.5t46.5 14.5q29 0 48 -14.5t19 -43.5q0 -26 -19 -40t-48 -14q-28 0 -46.5 14
t-18.5 40zM544 796q0 29 19 43.5t46 14.5q29 0 48 -14.5t19 -43.5q0 -26 -19 -40t-48 -14q-27 0 -46 14t-19 40z" />
    <glyph glyph-name="Aring" unicode="&#xc5;" horiz-adv-x="745" 
d="M193 0h-243l12 56h76l394 644h106l98 -644h74l-12 -56h-283l12 56h89l-27 176h-264l-106 -176h86zM260 288h224l-31 231q-1 3 -1 19.5t-1 36.5q-1 22 -1 50h-4l-54 -108zM360 788q0 41 38 63.5t93 22.5q22 0 44 -5t39.5 -15t28.5 -25.5t11 -37.5q0 -20 -10 -35t-27.5 -26
t-40 -16.5t-46.5 -5.5q-58 0 -94 21t-36 59zM435 788q0 -17 14.5 -27.5t34.5 -10.5q29 0 42 10t13 27q0 26 -15 35.5t-36 9.5q-27 0 -40 -12.5t-13 -31.5z" />
    <glyph glyph-name="AE" unicode="&#xc6;" horiz-adv-x="1018" 
d="M1042 700l-35 -164h-64l19 86l-16 22h-242l-55 -259h169l18 15l9 42h64l-36 -171h-64l9 42l-12 16h-169l-58 -273h262l24 20l21 98h64l-37 -174h-546l12 56h88l42 197h-213l-170 -197h94l-12 -56h-258l12 56h81l515 588h-60l12 56h532zM342 309h179l64 301h-2l-60 -93z
" />
    <glyph glyph-name="Ccedilla" unicode="&#xc7;" horiz-adv-x="688" 
d="M559 184h64l-33 -157q-16 -9 -37.5 -15.5t-46 -11.5t-49.5 -8t-49 -4l-27 -52q34 -1 54.5 -6.5t31.5 -15t14.5 -22t3.5 -27.5q0 -30 -23 -49t-57.5 -29.5t-73.5 -14.5t-71 -4v33q22 1 44 3.5t39.5 7.5t28.5 13.5t11 22.5q0 10 -1.5 18t-8.5 13.5t-21 9t-39 4.5l39 97
q-85 5 -138.5 29t-84 60.5t-42 81.5t-11.5 91q0 100 30 184.5t86 146t136.5 95.5t182.5 34q73 0 118.5 -10.5t80.5 -27.5l-37 -171h-64l23 105l-10 20q-11 5 -37 12.5t-78 7.5q-68 0 -124 -28t-96.5 -79.5t-63 -124t-22.5 -161.5q0 -43 11.5 -80t37 -64.5t66 -43t97.5 -15.5
q36 0 65.5 5.5t43.5 14.5l18 19z" />
    <glyph glyph-name="Egrave" unicode="&#xc8;" horiz-adv-x="635" 
d="M659 700l-35 -164h-64l19 86l-16 22h-245l-55 -259h169l18 15l9 42h64l-36 -171h-64l9 42l-12 16h-169l-58 -273h262l24 20l21 98h64l-37 -174h-548l11 56h91l125 588h-91l12 56h532zM511 793l-13 -24l-256 72v40l123 33z" />
    <glyph glyph-name="Eacute" unicode="&#xc9;" horiz-adv-x="635" 
d="M659 700l-35 -164h-64l19 86l-16 22h-245l-55 -259h169l18 15l9 42h64l-36 -171h-64l9 42l-12 16h-169l-58 -273h262l24 20l21 98h64l-37 -174h-548l11 56h91l125 588h-91l12 56h532zM495 914l123 -33v-40l-256 -72l-13 24z" />
    <glyph glyph-name="Ecircumflex" unicode="&#xca;" horiz-adv-x="635" 
d="M659 700l-35 -164h-64l19 86l-16 22h-245l-55 -259h169l18 15l9 42h64l-36 -171h-64l9 42l-12 16h-169l-58 -273h262l24 20l21 98h64l-37 -174h-548l11 56h91l125 588h-91l12 56h532zM281 761l-16 20l192 133h31l121 -130l-18 -22l-142 56z" />
    <glyph glyph-name="Edieresis" unicode="&#xcb;" horiz-adv-x="635" 
d="M659 700l-35 -164h-64l19 86l-16 22h-245l-55 -259h169l18 15l9 42h64l-36 -171h-64l9 42l-12 16h-169l-58 -273h262l24 20l21 98h64l-37 -174h-548l11 56h91l125 588h-91l12 56h532zM233 796q0 29 18.5 43.5t46.5 14.5q29 0 48 -14.5t19 -43.5q0 -26 -19 -40t-48 -14
q-28 0 -46.5 14t-18.5 40zM485 796q0 29 19 43.5t46 14.5q29 0 48 -14.5t19 -43.5q0 -26 -19 -40t-48 -14q-27 0 -46 14t-19 40z" />
    <glyph glyph-name="Igrave" unicode="&#xcc;" horiz-adv-x="389" 
d="M293 0h-294l12 56h91l125 588h-91l12 56h294l-12 -56h-91l-125 -588h91zM419 793l-13 -24l-256 72v40l123 33z" />
    <glyph glyph-name="Iacute" unicode="&#xcd;" horiz-adv-x="389" 
d="M293 0h-294l12 56h91l125 588h-91l12 56h294l-12 -56h-91l-125 -588h91zM401 914l123 -33v-40l-256 -72l-13 24z" />
    <glyph glyph-name="Icircumflex" unicode="&#xce;" horiz-adv-x="389" 
d="M293 0h-294l12 56h91l125 588h-91l12 56h294l-12 -56h-91l-125 -588h91zM149 761l-16 20l192 133h31l121 -130l-18 -22l-142 56z" />
    <glyph glyph-name="Idieresis" unicode="&#xcf;" horiz-adv-x="389" 
d="M293 0h-294l12 56h91l125 588h-91l12 56h294l-12 -56h-91l-125 -588h91zM98 796q0 29 18.5 43.5t46.5 14.5q29 0 48 -14.5t19 -43.5q0 -26 -19 -40t-48 -14q-28 0 -46.5 14t-18.5 40zM350 796q0 29 19 43.5t46 14.5q29 0 48 -14.5t19 -43.5q0 -26 -19 -40t-48 -14
q-27 0 -46 14t-19 40z" />
    <glyph glyph-name="Eth" unicode="&#xd0;" horiz-adv-x="774" 
d="M-21 0l11 56h91l58 274h-101l11 54h101l56 260h-91l12 56h123q19 0 45 1t53.5 2.5t53 3t42.5 1.5q98 0 159 -22.5t95 -57.5t46 -78t12 -85q0 -105 -29.5 -192.5t-87.5 -150t-144 -97t-199 -34.5q-16 0 -39.5 1.5t-49.5 3l-52 3t-47 1.5h-129zM417 652q-28 0 -55 -1
t-43 -4l-56 -263h177l-11 -54h-178l-59 -279q6 -1 20.5 -1.5t31 -1t31.5 -1t21 -0.5q96 0 160.5 37t103 96.5t55 135.5t16.5 154q0 36 -8.5 69t-32.5 58t-65.5 40t-107.5 15z" />
    <glyph glyph-name="Ntilde" unicode="&#xd1;" horiz-adv-x="810" 
d="M640 700h243l-12 -56h-91l-140 -656h-57l-302 549l-24 77h-4l-5 -78l-102 -480h87l-12 -56h-242l11 56h91l125 588h-91l12 56h191l258 -474l34 -83h5l12 86l88 415h-87zM692 843q-36 -38 -65.5 -53t-58.5 -15q-21 0 -39.5 6.5t-36.5 14t-35 14t-35 6.5q-14 0 -31 -6.5
t-35 -23.5l-22 36q43 42 76 57t62 15q21 0 39 -6t35 -13.5t33.5 -13.5t34.5 -6q14 0 30.5 5t33.5 19z" />
    <glyph glyph-name="Ograve" unicode="&#xd2;" horiz-adv-x="820" 
d="M76 283q0 81 25.5 158.5t78 137.5t132.5 96.5t188 36.5q67 0 123 -19.5t95.5 -56.5t61.5 -89t22 -116q0 -80 -22 -159.5t-71 -142.5t-126 -102t-186 -39q-59 0 -116 17t-103 53t-74 91.5t-28 133.5zM201 282q0 -64 17.5 -109t46 -73.5t65.5 -42t75 -13.5q78 0 130 35.5
t83.5 91.5t45 124.5t13.5 134.5q0 111 -53 168.5t-149 57.5q-71 0 -123 -33t-85.5 -86t-49.5 -120t-16 -135zM608 793l-13 -24l-256 72v40l123 33z" />
    <glyph glyph-name="Oacute" unicode="&#xd3;" horiz-adv-x="820" 
d="M76 283q0 81 25.5 158.5t78 137.5t132.5 96.5t188 36.5q67 0 123 -19.5t95.5 -56.5t61.5 -89t22 -116q0 -80 -22 -159.5t-71 -142.5t-126 -102t-186 -39q-59 0 -116 17t-103 53t-74 91.5t-28 133.5zM201 282q0 -64 17.5 -109t46 -73.5t65.5 -42t75 -13.5q78 0 130 35.5
t83.5 91.5t45 124.5t13.5 134.5q0 111 -53 168.5t-149 57.5q-71 0 -123 -33t-85.5 -86t-49.5 -120t-16 -135zM512 914l123 -33v-40l-256 -72l-13 24z" />
    <glyph glyph-name="Ocircumflex" unicode="&#xd4;" horiz-adv-x="820" 
d="M76 283q0 81 25.5 158.5t78 137.5t132.5 96.5t188 36.5q67 0 123 -19.5t95.5 -56.5t61.5 -89t22 -116q0 -80 -22 -159.5t-71 -142.5t-126 -102t-186 -39q-59 0 -116 17t-103 53t-74 91.5t-28 133.5zM201 282q0 -64 17.5 -109t46 -73.5t65.5 -42t75 -13.5q78 0 130 35.5
t83.5 91.5t45 124.5t13.5 134.5q0 111 -53 168.5t-149 57.5q-71 0 -123 -33t-85.5 -86t-49.5 -120t-16 -135zM357 761l-16 20l192 133h31l121 -130l-18 -22l-142 56z" />
    <glyph glyph-name="Otilde" unicode="&#xd5;" horiz-adv-x="820" 
d="M76 283q0 81 25.5 158.5t78 137.5t132.5 96.5t188 36.5q67 0 123 -19.5t95.5 -56.5t61.5 -89t22 -116q0 -80 -22 -159.5t-71 -142.5t-126 -102t-186 -39q-59 0 -116 17t-103 53t-74 91.5t-28 133.5zM201 282q0 -64 17.5 -109t46 -73.5t65.5 -42t75 -13.5q78 0 130 35.5
t83.5 91.5t45 124.5t13.5 134.5q0 111 -53 168.5t-149 57.5q-71 0 -123 -33t-85.5 -86t-49.5 -120t-16 -135zM694 843q-36 -38 -65.5 -53t-58.5 -15q-21 0 -39.5 6.5t-36.5 14t-35 14t-35 6.5q-14 0 -31 -6.5t-35 -23.5l-22 36q43 42 76 57t62 15q21 0 39 -6t35 -13.5
t33.5 -13.5t34.5 -6q14 0 30.5 5t33.5 19z" />
    <glyph glyph-name="Odieresis" unicode="&#xd6;" horiz-adv-x="820" 
d="M76 283q0 81 25.5 158.5t78 137.5t132.5 96.5t188 36.5q67 0 123 -19.5t95.5 -56.5t61.5 -89t22 -116q0 -80 -22 -159.5t-71 -142.5t-126 -102t-186 -39q-59 0 -116 17t-103 53t-74 91.5t-28 133.5zM201 282q0 -64 17.5 -109t46 -73.5t65.5 -42t75 -13.5q78 0 130 35.5
t83.5 91.5t45 124.5t13.5 134.5q0 111 -53 168.5t-149 57.5q-71 0 -123 -33t-85.5 -86t-49.5 -120t-16 -135zM299 796q0 29 18.5 43.5t46.5 14.5q29 0 48 -14.5t19 -43.5q0 -26 -19 -40t-48 -14q-28 0 -46.5 14t-18.5 40zM551 796q0 29 19 43.5t46 14.5q29 0 48 -14.5
t19 -43.5q0 -26 -19 -40t-48 -14q-27 0 -46 14t-19 40z" />
    <glyph glyph-name="multiply" unicode="&#xd7;" 
d="M118 205l156 139l-154 138l44 39l155 -138l156 140l44 -39l-158 -139l160 -142l-44 -40l-159 143l-156 -140z" />
    <glyph glyph-name="Oslash" unicode="&#xd8;" horiz-adv-x="840" 
d="M76 283q0 81 25.5 158.5t78 137.5t132.5 96.5t188 36.5q59 0 109 -15t88 -44l82 90l43 -37l-84 -91q31 -35 47.5 -81.5t16.5 -102.5q0 -80 -22 -159.5t-71 -142.5t-126 -102t-186 -39q-50 0 -98.5 11.5t-90.5 37.5l-86 -94l-40 39l81 88q-40 36 -63.5 88.5t-23.5 124.5z
M201 282q0 -83 29 -138l404 441q-54 71 -159 71q-71 0 -123 -33t-85.5 -86t-49.5 -120t-16 -135zM677 430q0 57 -15 101l-398 -432q29 -29 66 -42t75 -13q78 0 130 35.5t83.5 91.5t45 124.5t13.5 134.5z" />
    <glyph glyph-name="Ugrave" unicode="&#xd9;" horiz-adv-x="752" 
d="M657 244q-28 -132 -105.5 -192.5t-204.5 -60.5q-67 0 -114 15.5t-77 42.5t-43.5 64.5t-13.5 82.5q0 37 9 79l78 369h-91l12 56h284l-12 -56h-81l-78 -367q-4 -20 -6.5 -37t-2.5 -34q0 -72 40 -110t124 -38q176 0 217 188l86 398h-82l12 56h237l-12 -56h-91zM528 793
l-13 -24l-256 72v40l123 33z" />
    <glyph glyph-name="Uacute" unicode="&#xda;" horiz-adv-x="752" 
d="M657 244q-28 -132 -105.5 -192.5t-204.5 -60.5q-67 0 -114 15.5t-77 42.5t-43.5 64.5t-13.5 82.5q0 37 9 79l78 369h-91l12 56h284l-12 -56h-81l-78 -367q-4 -20 -6.5 -37t-2.5 -34q0 -72 40 -110t124 -38q176 0 217 188l86 398h-82l12 56h237l-12 -56h-91zM625 914
l123 -33v-40l-256 -72l-13 24z" />
    <glyph glyph-name="Ucircumflex" unicode="&#xdb;" horiz-adv-x="752" 
d="M657 244q-28 -132 -105.5 -192.5t-204.5 -60.5q-67 0 -114 15.5t-77 42.5t-43.5 64.5t-13.5 82.5q0 37 9 79l78 369h-91l12 56h284l-12 -56h-81l-78 -367q-4 -20 -6.5 -37t-2.5 -34q0 -72 40 -110t124 -38q176 0 217 188l86 398h-82l12 56h237l-12 -56h-91zM364 761
l-16 20l192 133h31l121 -130l-18 -22l-142 56z" />
    <glyph glyph-name="Udieresis" unicode="&#xdc;" horiz-adv-x="752" 
d="M657 244q-28 -132 -105.5 -192.5t-204.5 -60.5q-67 0 -114 15.5t-77 42.5t-43.5 64.5t-13.5 82.5q0 37 9 79l78 369h-91l12 56h284l-12 -56h-81l-78 -367q-4 -20 -6.5 -37t-2.5 -34q0 -72 40 -110t124 -38q176 0 217 188l86 398h-82l12 56h237l-12 -56h-91zM303 796
q0 29 18.5 43.5t46.5 14.5q29 0 48 -14.5t19 -43.5q0 -26 -19 -40t-48 -14q-28 0 -46.5 14t-18.5 40zM555 796q0 29 19 43.5t46 14.5q29 0 48 -14.5t19 -43.5q0 -26 -19 -40t-48 -14q-27 0 -46 14t-19 40z" />
    <glyph glyph-name="Yacute" unicode="&#xdd;" horiz-adv-x="727" 
d="M575 700h254l-12 -56h-85l-287 -347l-51 -241h83l-12 -56h-286l12 56h91l51 240l-152 348h-91l12 56h299l-12 -56h-84l114 -296l236 296h-92zM614 914l123 -33v-40l-256 -72l-13 24z" />
    <glyph glyph-name="Thorn" unicode="&#xde;" horiz-adv-x="650" 
d="M115 644l12 56h292l-12 -56h-89l-10 -47q26 2 54.5 3t53.5 1q132 0 191 -43.5t59 -124.5q0 -65 -25.5 -113t-72 -80.5t-112 -48.5t-145.5 -16h-19t-27 0.5t-27 1t-19 1.5l-26 -122h109l-12 -56h-311l11 56h91l125 588h-91zM379 545q-53 0 -83 -6l-65 -303q5 -2 16.5 -2.5
t24 -1.5t24.5 -1h18q57 0 100 15t71 41.5t42 63t14 80.5q0 56 -36.5 85t-125.5 29z" />
    <glyph glyph-name="germandbls" unicode="&#xdf;" horiz-adv-x="675" 
d="M311 395q0 72 59.5 121.5t162.5 76.5q1 5 1 8.5v8.5q0 20 -6.5 38.5t-19.5 33t-32.5 23t-45.5 8.5q-25 0 -52.5 -6t-51.5 -23t-43 -47.5t-28 -80.5l-88 -511q-13 -74 -41.5 -120.5t-61 -73t-63.5 -38t-49 -16.5l-17 43q13 6 33 16t40 30.5t37 53.5t25 85l71 446h-79v54
h91l5 25q13 65 46.5 106t75.5 64t87.5 31.5t81.5 8.5q50 0 85 -11.5t56.5 -31t31.5 -45.5t10 -55q0 -11 -1.5 -24.5t-3.5 -24.5q-42 -6 -81 -16t-68.5 -27t-47.5 -42t-18 -60q0 -26 14 -45t35.5 -36t46.5 -34t46.5 -38t35.5 -48.5t14 -64.5q0 -38 -18.5 -68.5t-49.5 -52.5
t-73 -34t-88 -12q-47 0 -83 11t-58 25l29 58q23 -17 53 -28.5t58 -11.5q24 0 47 5.5t40.5 16.5t28 28t10.5 40q0 31 -14 52.5t-35 39t-45.5 33t-45.5 34t-35 43t-14 59.5z" />
    <glyph glyph-name="agrave" unicode="&#xe0;" horiz-adv-x="591" 
d="M220 54q19 0 42 11.5t45.5 29.5t42 40.5t32.5 44.5l53 272q-10 13 -29.5 21t-44.5 8q-51 0 -90 -28.5t-66 -74.5t-41 -102.5t-14 -111.5q0 -110 70 -110zM370 117q-10 -17 -28 -39t-43.5 -41.5t-57.5 -33t-69 -13.5q-57 0 -91.5 39t-34.5 117q0 74 21 144t61 124.5
t98.5 87.5t134.5 33q28 0 53.5 -10.5t36.5 -23.5l16 24h77l-94 -471h82v-54h-177l21 117h-6zM420 615l-28 -23l-196 117v41h126z" />
    <glyph glyph-name="aacute" unicode="&#xe1;" horiz-adv-x="591" 
d="M220 54q19 0 42 11.5t45.5 29.5t42 40.5t32.5 44.5l53 272q-10 13 -29.5 21t-44.5 8q-51 0 -90 -28.5t-66 -74.5t-41 -102.5t-14 -111.5q0 -110 70 -110zM370 117q-10 -17 -28 -39t-43.5 -41.5t-57.5 -33t-69 -13.5q-57 0 -91.5 39t-34.5 117q0 74 21 144t61 124.5
t98.5 87.5t134.5 33q28 0 53.5 -10.5t36.5 -23.5l16 24h77l-94 -471h82v-54h-177l21 117h-6zM427 750h126v-41l-196 -117l-28 23z" />
    <glyph glyph-name="acircumflex" unicode="&#xe2;" horiz-adv-x="591" 
d="M220 54q19 0 42 11.5t45.5 29.5t42 40.5t32.5 44.5l53 272q-10 13 -29.5 21t-44.5 8q-51 0 -90 -28.5t-66 -74.5t-41 -102.5t-14 -111.5q0 -110 70 -110zM370 117q-10 -17 -28 -39t-43.5 -41.5t-57.5 -33t-69 -13.5q-57 0 -91.5 39t-34.5 117q0 74 21 144t61 124.5
t98.5 87.5t134.5 33q28 0 53.5 -10.5t36.5 -23.5l16 24h77l-94 -471h82v-54h-177l21 117h-6zM268 619l-32 17l195 196h29l56 -195l-32 -18l-70 112z" />
    <glyph glyph-name="atilde" unicode="&#xe3;" horiz-adv-x="591" 
d="M220 54q19 0 42 11.5t45.5 29.5t42 40.5t32.5 44.5l53 272q-10 13 -29.5 21t-44.5 8q-51 0 -90 -28.5t-66 -74.5t-41 -102.5t-14 -111.5q0 -110 70 -110zM370 117q-10 -17 -28 -39t-43.5 -41.5t-57.5 -33t-69 -13.5q-57 0 -91.5 39t-34.5 117q0 74 21 144t61 124.5
t98.5 87.5t134.5 33q28 0 53.5 -10.5t36.5 -23.5l16 24h77l-94 -471h82v-54h-177l21 117h-6zM559 705q-36 -34 -66.5 -46.5t-55.5 -12.5q-20 0 -38 5.5t-35 12t-33 12t-33 5.5q-14 0 -29.5 -5.5t-33.5 -20.5l-22 32q42 36 74.5 49t58.5 13q20 0 37.5 -5.5t33.5 -11.5
t32 -11.5t33 -5.5q14 0 29 4.5t32 16.5z" />
    <glyph glyph-name="adieresis" unicode="&#xe4;" horiz-adv-x="591" 
d="M220 54q19 0 42 11.5t45.5 29.5t42 40.5t32.5 44.5l53 272q-10 13 -29.5 21t-44.5 8q-51 0 -90 -28.5t-66 -74.5t-41 -102.5t-14 -111.5q0 -110 70 -110zM370 117q-10 -17 -28 -39t-43.5 -41.5t-57.5 -33t-69 -13.5q-57 0 -91.5 39t-34.5 117q0 74 21 144t61 124.5
t98.5 87.5t134.5 33q28 0 53.5 -10.5t36.5 -23.5l16 24h77l-94 -471h82v-54h-177l21 117h-6zM192 688q0 29 17.5 46.5t46.5 17.5q28 0 45.5 -17.5t17.5 -46.5q0 -27 -17.5 -44.5t-45.5 -17.5q-29 0 -46.5 17.5t-17.5 44.5zM439 688q0 29 18 46.5t46 17.5q29 0 46 -17.5
t17 -46.5q0 -27 -17 -44.5t-46 -17.5q-28 0 -46 17.5t-18 44.5z" />
    <glyph glyph-name="aring" unicode="&#xe5;" horiz-adv-x="591" 
d="M220 54q19 0 42 11.5t45.5 29.5t42 40.5t32.5 44.5l53 272q-10 13 -29.5 21t-44.5 8q-51 0 -90 -28.5t-66 -74.5t-41 -102.5t-14 -111.5q0 -110 70 -110zM370 117q-10 -17 -28 -39t-43.5 -41.5t-57.5 -33t-69 -13.5q-57 0 -91.5 39t-34.5 117q0 74 21 144t61 124.5
t98.5 87.5t134.5 33q28 0 53.5 -10.5t36.5 -23.5l16 24h77l-94 -471h82v-54h-177l21 117h-6zM294 717q0 43 32 72.5t81 29.5q45 0 75.5 -26.5t30.5 -72.5q0 -21 -9 -39t-23.5 -31t-34 -20.5t-40.5 -7.5q-51 0 -81.5 25.5t-30.5 69.5zM354 719q0 -26 15 -39.5t33 -13.5
q22 0 36.5 12t14.5 38q0 29 -14 44t-36 15q-26 0 -37.5 -15t-11.5 -41z" />
    <glyph glyph-name="ae" unicode="&#xe6;" horiz-adv-x="817" 
d="M219 57q24 0 46 10.5t40 27t31.5 37.5t21.5 41q0 16 1.5 39.5t3.5 40.5q-24 3 -45 3q-44 0 -76.5 -10.5t-54 -27.5t-32 -38.5t-10.5 -43.5q0 -44 22.5 -61.5t51.5 -17.5zM366 111q-30 -55 -78 -88t-113 -33q-30 0 -56 9.5t-45.5 27t-31 42.5t-11.5 57q0 37 19.5 68
t56.5 53.5t89.5 35t118.5 12.5h28t29 -2q11 35 17.5 65t6.5 54q0 36 -17 56t-56 20q-16 0 -42.5 -4.5t-46.5 -15.5v-92h-96v107q48 24 101.5 38t116.5 14q62 0 93 -16t38 -42q35 27 79.5 42.5t97.5 15.5q27 0 51 -6t41.5 -18.5t28 -31t10.5 -43.5q0 -75 -77 -118.5
t-250 -55.5q-5 -18 -6.5 -34.5t-1.5 -32.5q0 -63 33.5 -100.5t96.5 -37.5q22 0 42 7t37 18t31 24t24 24l31 -35q-12 -21 -32.5 -40t-47 -33.5t-59 -23t-68.5 -8.5q-72 0 -118 29.5t-63 91.5h-1zM632 488q-47 0 -87.5 -40t-68.5 -140q105 3 163 35t58 89q0 22 -13 39t-52 17z
" />
    <glyph glyph-name="ccedilla" unicode="&#xe7;" horiz-adv-x="472" 
d="M436 99q-25 -47 -69.5 -74.5t-108.5 -33.5l-24 -52q31 -1 50.5 -5t31 -12t15.5 -20t4 -29q0 -30 -20 -49t-51 -29.5t-67 -14.5t-68 -4v32q21 1 41.5 3t36.5 7t25.5 14t9.5 25q0 10 -2.5 17.5t-10.5 12t-22 7.5t-37 5l38 92q-39 3 -69.5 19.5t-51.5 42.5t-32 59.5
t-11 70.5q0 78 21 143t61.5 111.5t98.5 72t132 25.5q42 0 78 -10.5t51 -27.5l-30 -119h-70l21 90q-8 7 -26.5 10t-33.5 3q-45 0 -81.5 -19.5t-63 -54.5t-40.5 -84.5t-14 -110.5q0 -72 33 -113t87 -41q45 0 79.5 19t55.5 48z" />
    <glyph glyph-name="egrave" unicode="&#xe8;" horiz-adv-x="501" 
d="M435 96q-11 -20 -30 -39t-45 -34t-58 -24t-69 -9q-86 0 -137.5 48.5t-51.5 136.5q0 75 22 141t62 114t96.5 76.5t125.5 28.5q27 0 51 -6.5t42 -19.5t28 -32t10 -44q0 -72 -76 -116t-249 -56q-4 -18 -6 -34t-2 -32q0 -63 32.5 -100.5t95.5 -37.5q20 0 39.5 6t37.5 15.5
t32.5 21.5t23.5 23zM317 488q-47 0 -86 -41.5t-67 -138.5q106 3 162.5 35t56.5 86q0 11 -3 21.5t-10.5 19t-20 13.5t-32.5 5zM369 615l-28 -23l-196 117v41h126z" />
    <glyph glyph-name="eacute" unicode="&#xe9;" horiz-adv-x="501" 
d="M435 96q-11 -20 -30 -39t-45 -34t-58 -24t-69 -9q-86 0 -137.5 48.5t-51.5 136.5q0 75 22 141t62 114t96.5 76.5t125.5 28.5q27 0 51 -6.5t42 -19.5t28 -32t10 -44q0 -72 -76 -116t-249 -56q-4 -18 -6 -34t-2 -32q0 -63 32.5 -100.5t95.5 -37.5q20 0 39.5 6t37.5 15.5
t32.5 21.5t23.5 23zM317 488q-47 0 -86 -41.5t-67 -138.5q106 3 162.5 35t56.5 86q0 11 -3 21.5t-10.5 19t-20 13.5t-32.5 5zM393 750h126v-41l-196 -117l-28 23z" />
    <glyph glyph-name="ecircumflex" unicode="&#xea;" horiz-adv-x="501" 
d="M435 96q-11 -20 -30 -39t-45 -34t-58 -24t-69 -9q-86 0 -137.5 48.5t-51.5 136.5q0 75 22 141t62 114t96.5 76.5t125.5 28.5q27 0 51 -6.5t42 -19.5t28 -32t10 -44q0 -72 -76 -116t-249 -56q-4 -18 -6 -34t-2 -32q0 -63 32.5 -100.5t95.5 -37.5q20 0 39.5 6t37.5 15.5
t32.5 21.5t23.5 23zM317 488q-47 0 -86 -41.5t-67 -138.5q106 3 162.5 35t56.5 86q0 11 -3 21.5t-10.5 19t-20 13.5t-32.5 5zM233 619l-32 17l195 196h29l56 -195l-32 -18l-70 112z" />
    <glyph glyph-name="edieresis" unicode="&#xeb;" horiz-adv-x="501" 
d="M435 96q-11 -20 -30 -39t-45 -34t-58 -24t-69 -9q-86 0 -137.5 48.5t-51.5 136.5q0 75 22 141t62 114t96.5 76.5t125.5 28.5q27 0 51 -6.5t42 -19.5t28 -32t10 -44q0 -72 -76 -116t-249 -56q-4 -18 -6 -34t-2 -32q0 -63 32.5 -100.5t95.5 -37.5q20 0 39.5 6t37.5 15.5
t32.5 21.5t23.5 23zM317 488q-47 0 -86 -41.5t-67 -138.5q106 3 162.5 35t56.5 86q0 11 -3 21.5t-10.5 19t-20 13.5t-32.5 5zM167 688q0 29 17.5 46.5t46.5 17.5q28 0 45.5 -17.5t17.5 -46.5q0 -27 -17.5 -44.5t-45.5 -17.5q-29 0 -46.5 17.5t-17.5 44.5zM414 688
q0 29 18 46.5t46 17.5q29 0 46 -17.5t17 -46.5q0 -27 -17 -44.5t-46 -17.5q-28 0 -46 17.5t-18 44.5z" />
    <glyph glyph-name="igrave" unicode="&#xec;" horiz-adv-x="307" 
d="M76 471v54h181l-104 -471h82v-54h-193l107 471h-73zM263 615l-28 -23l-196 117v41h126z" />
    <glyph glyph-name="iacute" unicode="&#xed;" horiz-adv-x="307" 
d="M76 471v54h181l-104 -471h82v-54h-193l107 471h-73zM249 750h126v-41l-196 -117l-28 23z" />
    <glyph glyph-name="icircumflex" unicode="&#xee;" horiz-adv-x="307" 
d="M76 471v54h181l-104 -471h82v-54h-193l107 471h-73zM104 619l-32 17l195 196h29l56 -195l-32 -18l-70 112z" />
    <glyph glyph-name="idieresis" unicode="&#xef;" horiz-adv-x="307" 
d="M76 471v54h181l-104 -471h82v-54h-193l107 471h-73zM19 688q0 29 17.5 46.5t46.5 17.5q28 0 45.5 -17.5t17.5 -46.5q0 -27 -17.5 -44.5t-45.5 -17.5q-29 0 -46.5 17.5t-17.5 44.5zM266 688q0 29 18 46.5t46 17.5q29 0 46 -17.5t17 -46.5q0 -27 -17 -44.5t-46 -17.5
q-28 0 -46 17.5t-18 44.5z" />
    <glyph glyph-name="eth" unicode="&#xf0;" horiz-adv-x="548" 
d="M251 620l119 51q-18 23 -48.5 36t-59.5 21v22h102q50 -11 83 -44l109 47l23 -41l-103 -45q17 -21 35 -67t18 -110q0 -107 -26.5 -198.5t-72 -158.5t-106 -105t-129.5 -38q-79 0 -121 48.5t-42 138.5q0 64 23 127.5t65 114t101.5 81.5t133.5 31q20 0 40 -4.5t33 -12.5
q0 42 -8.5 69t-23.5 49l-120 -52zM345 484q-59 0 -99.5 -31.5t-65 -78.5t-35.5 -102t-11 -102q0 -23 3 -47t12.5 -43t27 -31t45.5 -12q36 0 72.5 32.5t66 89.5t48 135t18.5 169q-23 13 -42 17t-40 4z" />
    <glyph glyph-name="ntilde" unicode="&#xf1;" horiz-adv-x="610" 
d="M425 299q8 32 14 60.5t6 55.5q0 23 -12 39.5t-36 16.5q-30 0 -57.5 -12t-50.5 -29.5t-40.5 -36.5t-27.5 -33l-78 -360h-97l99 471h-69v54h178l-23 -104h5q42 51 94 82.5t112 31.5q54 0 77.5 -26.5t23.5 -68.5q0 -23 -5.5 -58t-13.5 -65l-63 -263h82v-54h-87h-98zM555 705
q-36 -34 -66.5 -46.5t-55.5 -12.5q-20 0 -38 5.5t-35 12t-33 12t-33 5.5q-14 0 -29.5 -5.5t-33.5 -20.5l-22 32q42 36 74.5 49t58.5 13q20 0 37.5 -5.5t33.5 -11.5t32 -11.5t33 -5.5q14 0 29 4.5t32 16.5z" />
    <glyph glyph-name="ograve" unicode="&#xf2;" horiz-adv-x="564" 
d="M44 195q0 56 18.5 116.5t56 109.5t94 81.5t132.5 32.5q87 0 131 -51t44 -149q0 -69 -21 -131t-59 -109t-91 -76t-118 -29q-85 0 -136 52.5t-51 152.5zM323 488q-35 0 -62 -15t-46 -40.5t-32 -58t-21 -68t-11 -70t-3 -65.5q0 -58 27.5 -96t75.5 -38q38 0 68.5 28t52 71.5
t33 99.5t11.5 115q0 62 -22.5 99.5t-70.5 37.5zM406 615l-28 -23l-196 117v41h126z" />
    <glyph glyph-name="oacute" unicode="&#xf3;" horiz-adv-x="564" 
d="M44 195q0 56 18.5 116.5t56 109.5t94 81.5t132.5 32.5q87 0 131 -51t44 -149q0 -69 -21 -131t-59 -109t-91 -76t-118 -29q-85 0 -136 52.5t-51 152.5zM323 488q-35 0 -62 -15t-46 -40.5t-32 -58t-21 -68t-11 -70t-3 -65.5q0 -58 27.5 -96t75.5 -38q38 0 68.5 28t52 71.5
t33 99.5t11.5 115q0 62 -22.5 99.5t-70.5 37.5zM381 750h126v-41l-196 -117l-28 23z" />
    <glyph glyph-name="ocircumflex" unicode="&#xf4;" horiz-adv-x="564" 
d="M44 195q0 56 18.5 116.5t56 109.5t94 81.5t132.5 32.5q87 0 131 -51t44 -149q0 -69 -21 -131t-59 -109t-91 -76t-118 -29q-85 0 -136 52.5t-51 152.5zM323 488q-35 0 -62 -15t-46 -40.5t-32 -58t-21 -68t-11 -70t-3 -65.5q0 -58 27.5 -96t75.5 -38q38 0 68.5 28t52 71.5
t33 99.5t11.5 115q0 62 -22.5 99.5t-70.5 37.5zM240 619l-32 17l195 196h29l56 -195l-32 -18l-70 112z" />
    <glyph glyph-name="otilde" unicode="&#xf5;" horiz-adv-x="564" 
d="M44 195q0 56 18.5 116.5t56 109.5t94 81.5t132.5 32.5q87 0 131 -51t44 -149q0 -69 -21 -131t-59 -109t-91 -76t-118 -29q-85 0 -136 52.5t-51 152.5zM323 488q-35 0 -62 -15t-46 -40.5t-32 -58t-21 -68t-11 -70t-3 -65.5q0 -58 27.5 -96t75.5 -38q38 0 68.5 28t52 71.5
t33 99.5t11.5 115q0 62 -22.5 99.5t-70.5 37.5zM523 705q-36 -34 -66.5 -46.5t-55.5 -12.5q-20 0 -38 5.5t-35 12t-33 12t-33 5.5q-14 0 -29.5 -5.5t-33.5 -20.5l-22 32q42 36 74.5 49t58.5 13q20 0 37.5 -5.5t33.5 -11.5t32 -11.5t33 -5.5q14 0 29 4.5t32 16.5z" />
    <glyph glyph-name="odieresis" unicode="&#xf6;" horiz-adv-x="564" 
d="M44 195q0 56 18.5 116.5t56 109.5t94 81.5t132.5 32.5q87 0 131 -51t44 -149q0 -69 -21 -131t-59 -109t-91 -76t-118 -29q-85 0 -136 52.5t-51 152.5zM323 488q-35 0 -62 -15t-46 -40.5t-32 -58t-21 -68t-11 -70t-3 -65.5q0 -58 27.5 -96t75.5 -38q38 0 68.5 28t52 71.5
t33 99.5t11.5 115q0 62 -22.5 99.5t-70.5 37.5zM167 688q0 29 17.5 46.5t46.5 17.5q28 0 45.5 -17.5t17.5 -46.5q0 -27 -17.5 -44.5t-45.5 -17.5q-29 0 -46.5 17.5t-17.5 44.5zM414 688q0 29 18 46.5t46 17.5q29 0 46 -17.5t17 -46.5q0 -27 -17 -44.5t-46 -17.5
q-28 0 -46 17.5t-18 44.5z" />
    <glyph glyph-name="divide" unicode="&#xf7;" 
d="M67 371h505v-54h-505v54zM241 534q0 31 21 49t56 18t57 -18t22 -49q0 -30 -22 -48t-57 -18t-56 18t-21 48zM241 153q0 31 21 49t56 18t57 -18t22 -49q0 -30 -22 -48t-57 -18t-56 18t-21 48z" />
    <glyph glyph-name="oslash" unicode="&#xf8;" horiz-adv-x="564" 
d="M44 195q0 56 18.5 116t56 110t94 82t132.5 32q36 0 65.5 -8.5t50.5 -26.5l78 86l43 -34l-87 -95q12 -24 18.5 -53.5t6.5 -65.5q0 -69 -21 -132t-59 -111t-91 -76.5t-118 -28.5q-38 0 -69.5 9.5t-55.5 30.5l-86 -94l-40 34l92 102q-28 50 -28 123zM251 37q37 0 67.5 26.5
t52 69.5t33 97.5t12.5 111.5v29l-253 -278q13 -28 36 -42t52 -14zM323 488q-52 0 -85.5 -31t-53 -76.5t-27.5 -99t-9 -98.5v-28l256 281q-11 24 -31.5 38t-49.5 14z" />
    <glyph glyph-name="ugrave" unicode="&#xf9;" 
d="M540 54v-54h-184l21 118h-4q-15 -21 -37 -43.5t-49.5 -41t-60 -31t-68.5 -12.5q-46 0 -73 24.5t-27 71.5q0 14 2.5 36.5t8.5 51.5l63 297h-69v54h180l-69 -299q-6 -26 -12 -55.5t-6 -57.5q0 -30 13 -44.5t34 -14.5q34 0 64.5 16t55 37.5t41 44.5t24.5 38l67 335h95
l-91 -471h81zM408 615l-28 -23l-196 117v41h126z" />
    <glyph glyph-name="uacute" unicode="&#xfa;" 
d="M540 54v-54h-184l21 118h-4q-15 -21 -37 -43.5t-49.5 -41t-60 -31t-68.5 -12.5q-46 0 -73 24.5t-27 71.5q0 14 2.5 36.5t8.5 51.5l63 297h-69v54h180l-69 -299q-6 -26 -12 -55.5t-6 -57.5q0 -30 13 -44.5t34 -14.5q34 0 64.5 16t55 37.5t41 44.5t24.5 38l67 335h95
l-91 -471h81zM393 750h126v-41l-196 -117l-28 23z" />
    <glyph glyph-name="ucircumflex" unicode="&#xfb;" 
d="M540 54v-54h-184l21 118h-4q-15 -21 -37 -43.5t-49.5 -41t-60 -31t-68.5 -12.5q-46 0 -73 24.5t-27 71.5q0 14 2.5 36.5t8.5 51.5l63 297h-69v54h180l-69 -299q-6 -26 -12 -55.5t-6 -57.5q0 -30 13 -44.5t34 -14.5q34 0 64.5 16t55 37.5t41 44.5t24.5 38l67 335h95
l-91 -471h81zM241 619l-32 17l195 196h29l56 -195l-32 -18l-70 112z" />
    <glyph glyph-name="udieresis" unicode="&#xfc;" 
d="M540 54v-54h-184l21 118h-4q-15 -21 -37 -43.5t-49.5 -41t-60 -31t-68.5 -12.5q-46 0 -73 24.5t-27 71.5q0 14 2.5 36.5t8.5 51.5l63 297h-69v54h180l-69 -299q-6 -26 -12 -55.5t-6 -57.5q0 -30 13 -44.5t34 -14.5q34 0 64.5 16t55 37.5t41 44.5t24.5 38l67 335h95
l-91 -471h81zM181 688q0 29 17.5 46.5t46.5 17.5q28 0 45.5 -17.5t17.5 -46.5q0 -27 -17.5 -44.5t-45.5 -17.5q-29 0 -46.5 17.5t-17.5 44.5zM428 688q0 29 18 46.5t46 17.5q29 0 46 -17.5t17 -46.5q0 -27 -17 -44.5t-46 -17.5q-28 0 -46 17.5t-18 44.5z" />
    <glyph glyph-name="yacute" unicode="&#xfd;" horiz-adv-x="508" 
d="M96 471h-61v54h149l78 -416v-55h8l27 52q17 37 35 79t35.5 84t32.5 82.5t25 76.5l-28 97h123v-54q-16 -44 -39.5 -102.5t-51.5 -122t-60 -129.5t-64.5 -125.5t-65 -109.5t-61.5 -82h-115v96h111q14 17 28.5 39t28.5 65h-49zM357 750h126v-41l-196 -117l-28 23z" />
    <glyph glyph-name="thorn" unicode="&#xfe;" horiz-adv-x="599" 
d="M110 -150h76v-50h-186l196 896h-68v54h177l-71 -328h4q16 22 36 42.5t44.5 36.5t53 25t61.5 9q56 0 92 -37.5t36 -119.5q0 -76 -25 -146t-68.5 -124t-102 -86t-125.5 -32q-18 0 -31 1t-23 3.5t-19.5 5.5t-20.5 8zM380 471q-28 0 -53.5 -12t-46 -29.5t-35.5 -38t-22 -38.5
l-65 -295q7 -6 14.5 -10.5t17 -6.5t22.5 -3t32 -1q43 0 81.5 30t67.5 77.5t46.5 106.5t17.5 116q0 50 -19.5 77t-57.5 27z" />
    <glyph glyph-name="ydieresis" unicode="&#xff;" horiz-adv-x="508" 
d="M96 471h-61v54h149l78 -416v-55h8l27 52q17 37 35 79t35.5 84t32.5 82.5t25 76.5l-28 97h123v-54q-16 -44 -39.5 -102.5t-51.5 -122t-60 -129.5t-64.5 -125.5t-65 -109.5t-61.5 -82h-115v96h111q14 17 28.5 39t28.5 65h-49zM132 688q0 29 17.5 46.5t46.5 17.5
q28 0 45.5 -17.5t17.5 -46.5q0 -27 -17.5 -44.5t-45.5 -17.5q-29 0 -46.5 17.5t-17.5 44.5zM379 688q0 29 18 46.5t46 17.5q29 0 46 -17.5t17 -46.5q0 -27 -17 -44.5t-46 -17.5q-28 0 -46 17.5t-18 44.5z" />
    <glyph glyph-name="Amacron" unicode="&#x100;" horiz-adv-x="745" 
d="M193 0h-243l12 56h76l394 644h106l98 -644h74l-12 -56h-283l12 56h89l-27 176h-264l-106 -176h86zM260 288h224l-31 231q-1 3 -1 19.5t-1 36.5q-1 22 -1 50h-4l-54 -108zM318 787l12 64h340l-12 -64h-340z" />
    <glyph glyph-name="amacron" unicode="&#x101;" horiz-adv-x="591" 
d="M220 54q19 0 42 11.5t45.5 29.5t42 40.5t32.5 44.5l53 272q-10 13 -29.5 21t-44.5 8q-51 0 -90 -28.5t-66 -74.5t-41 -102.5t-14 -111.5q0 -110 70 -110zM370 117q-10 -17 -28 -39t-43.5 -41.5t-57.5 -33t-69 -13.5q-57 0 -91.5 39t-34.5 117q0 74 21 144t61 124.5
t98.5 87.5t134.5 33q28 0 53.5 -10.5t36.5 -23.5l16 24h77l-94 -471h82v-54h-177l21 117h-6zM265 668l12 55h288l-12 -55h-288z" />
    <glyph glyph-name="Abreve" unicode="&#x102;" horiz-adv-x="745" 
d="M193 0h-243l12 56h76l394 644h106l98 -644h74l-12 -56h-283l12 56h89l-27 176h-264l-106 -176h86zM260 288h224l-31 231q-1 3 -1 19.5t-1 36.5q-1 22 -1 50h-4l-54 -108zM684 888q-10 -22 -29 -44.5t-44.5 -41t-57 -30.5t-66.5 -12q-26 0 -51 10.5t-45 28.5t-33 41.5
t-16 49.5l47 15q13 -28 40.5 -45.5t63.5 -17.5q43 0 82.5 14t72.5 46z" />
    <glyph glyph-name="abreve" unicode="&#x103;" horiz-adv-x="591" 
d="M220 54q19 0 42 11.5t45.5 29.5t42 40.5t32.5 44.5l53 272q-10 13 -29.5 21t-44.5 8q-51 0 -90 -28.5t-66 -74.5t-41 -102.5t-14 -111.5q0 -110 70 -110zM370 117q-10 -17 -28 -39t-43.5 -41.5t-57.5 -33t-69 -13.5q-57 0 -91.5 39t-34.5 117q0 74 21 144t61 124.5
t98.5 87.5t134.5 33q28 0 53.5 -10.5t36.5 -23.5l16 24h77l-94 -471h82v-54h-177l21 117h-6zM556 756q-10 -24 -29 -47t-43.5 -41t-52.5 -29.5t-56 -11.5q-30 0 -52 10t-37 28t-24 42t-13 51l32 14q11 -31 35.5 -50t59.5 -19q50 0 87 14.5t66 50.5z" />
    <glyph glyph-name="Aogonek" unicode="&#x104;" horiz-adv-x="745" 
d="M193 0h-243l12 56h76l394 644h106l98 -644h74l-12 -56h-58q-50 -19 -83 -44t-33 -66q0 -27 15 -37.5t48 -10.5q34 0 63 6v-31q-16 -11 -41 -19.5t-62 -8.5q-53 0 -86 19.5t-33 63.5q0 23 11 42.5t29.5 35t43.5 28.5t52 22h-149l12 56h89l-27 176h-264l-106 -176h86z
M260 288h224l-31 231l-3 106h-4l-54 -108z" />
    <glyph glyph-name="aogonek" unicode="&#x105;" horiz-adv-x="591" 
d="M370 117q-10 -17 -28 -39t-43.5 -41.5t-57.5 -33t-69 -13.5q-57 0 -91.5 39t-34.5 117q0 74 21 144t61 124.5t98.5 87.5t134.5 33q28 0 53.5 -10.5t36.5 -23.5l16 24h77l-94 -471h82v-54h-8q-22 -7 -43 -17.5t-37.5 -25t-27 -33.5t-10.5 -42q0 -26 15 -42.5t51 -16.5
q11 0 21 2t25 7v-33q-17 -9 -41 -15t-44 -6q-66 0 -94 25t-28 63q0 26 11.5 47.5t31.5 38t47 28.5t58 20h-104l21 117h-6zM220 54q19 0 42 11.5t45.5 29.5t42 40.5t32.5 44.5l53 272q-10 13 -29.5 21t-44.5 8q-51 0 -90 -28.5t-66 -74.5t-41 -102.5t-14 -111.5
q0 -110 70 -110z" />
    <glyph glyph-name="Cacute" unicode="&#x106;" horiz-adv-x="688" 
d="M559 184h64l-33 -157q-17 -9 -40.5 -16t-49.5 -12.5t-53 -8t-52 -2.5q-98 0 -160.5 23t-97.5 60.5t-48 84.5t-13 96q0 100 30 184.5t86 146t136.5 95.5t182.5 34q73 0 118.5 -10.5t80.5 -27.5l-37 -171h-64l23 105l-10 20q-11 5 -37 12.5t-78 7.5q-68 0 -124 -28
t-96.5 -79.5t-63 -124t-22.5 -161.5q0 -43 11.5 -80t37 -64.5t66 -43t97.5 -15.5q36 0 65.5 5.5t43.5 14.5l18 19zM567 914l123 -33v-40l-256 -72l-13 24z" />
    <glyph glyph-name="cacute" unicode="&#x107;" horiz-adv-x="472" 
d="M436 99q-28 -52 -80 -80.5t-128 -28.5q-43 0 -77 15.5t-58 41.5t-36.5 61.5t-12.5 74.5q0 78 21 143t61.5 111.5t98.5 72t132 25.5q42 0 78 -10.5t51 -27.5l-30 -119h-70l21 90q-8 7 -26.5 10t-33.5 3q-45 0 -81.5 -19.5t-63 -54.5t-40.5 -84.5t-14 -110.5
q0 -72 33 -113.5t87 -41.5q45 0 79.5 19.5t55.5 48.5zM394 750h126v-41l-196 -117l-28 23z" />
    <glyph glyph-name="Ccircumflex" unicode="&#x108;" horiz-adv-x="688" 
d="M559 184h64l-33 -157q-17 -9 -40.5 -16t-49.5 -12.5t-53 -8t-52 -2.5q-98 0 -160.5 23t-97.5 60.5t-48 84.5t-13 96q0 100 30 184.5t86 146t136.5 95.5t182.5 34q73 0 118.5 -10.5t80.5 -27.5l-37 -171h-64l23 105l-10 20q-11 5 -37 12.5t-78 7.5q-68 0 -124 -28
t-96.5 -79.5t-63 -124t-22.5 -161.5q0 -43 11.5 -80t37 -64.5t66 -43t97.5 -15.5q36 0 65.5 5.5t43.5 14.5l18 19zM374 761l-16 20l192 133h31l121 -130l-18 -22l-142 56z" />
    <glyph glyph-name="ccircumflex" unicode="&#x109;" horiz-adv-x="472" 
d="M436 99q-28 -52 -80 -80.5t-128 -28.5q-43 0 -77 15.5t-58 41.5t-36.5 61.5t-12.5 74.5q0 78 21 143t61.5 111.5t98.5 72t132 25.5q42 0 78 -10.5t51 -27.5l-30 -119h-70l21 90q-8 7 -26.5 10t-33.5 3q-45 0 -81.5 -19.5t-63 -54.5t-40.5 -84.5t-14 -110.5
q0 -72 33 -113.5t87 -41.5q45 0 79.5 19.5t55.5 48.5zM227 619l-32 17l195 196h29l56 -195l-32 -18l-70 112z" />
    <glyph glyph-name="Ccaron" unicode="&#x10c;" horiz-adv-x="688" 
d="M559 184h64l-33 -157q-17 -9 -40.5 -16t-49.5 -12.5t-53 -8t-52 -2.5q-98 0 -160.5 23t-97.5 60.5t-48 84.5t-13 96q0 100 30 184.5t86 146t136.5 95.5t182.5 34q73 0 118.5 -10.5t80.5 -27.5l-37 -171h-64l23 105l-10 20q-11 5 -37 12.5t-78 7.5q-68 0 -124 -28
t-96.5 -79.5t-63 -124t-22.5 -161.5q0 -43 11.5 -80t37 -64.5t66 -43t97.5 -15.5q36 0 65.5 5.5t43.5 14.5l18 19zM697 919l28 -18l-202 -142h-31l-81 139l28 21l93 -55z" />
    <glyph glyph-name="ccaron" unicode="&#x10d;" horiz-adv-x="472" 
d="M436 99q-28 -52 -80 -80.5t-128 -28.5q-43 0 -77 15.5t-58 41.5t-36.5 61.5t-12.5 74.5q0 78 21 143t61.5 111.5t98.5 72t132 25.5q42 0 78 -10.5t51 -27.5l-30 -119h-70l21 90q-8 7 -26.5 10t-33.5 3q-45 0 -81.5 -19.5t-63 -54.5t-40.5 -84.5t-14 -110.5
q0 -72 33 -113.5t87 -41.5q45 0 79.5 19.5t55.5 48.5zM523 806l32 -17l-199 -195h-29l-77 194l40 18l79 -110z" />
    <glyph glyph-name="Dcaron" unicode="&#x10e;" horiz-adv-x="774" 
d="M-21 0l11 56h91l125 588h-91l12 56h123q19 0 45 1t53.5 2.5t53 3t42.5 1.5q98 0 159 -22.5t95 -57.5t46 -78t12 -85q0 -105 -29.5 -192.5t-87.5 -150t-144 -97t-199 -34.5q-16 0 -39.5 1.5t-49.5 3l-52 3t-47 1.5h-129zM417 652q-28 0 -55 -1t-43 -4l-126 -596
q6 -1 20 -1.5t30.5 -1t31.5 -1t21 -0.5q96 0 160.5 37t103 96.5t55 135.5t16.5 154q0 36 -8.5 69t-32.5 58t-65.5 40t-107.5 15zM641 919l28 -18l-202 -142h-31l-81 139l28 21l93 -55z" />
    <glyph glyph-name="dcaron" unicode="&#x10f;" horiz-adv-x="591" 
d="M230 54q26 0 48.5 9t41.5 24t34.5 34t26.5 39l59 301q-16 11 -29.5 15.5t-38.5 4.5q-53 0 -93.5 -28.5t-68.5 -74t-42.5 -102t-14.5 -112.5q0 -54 21.5 -82t55.5 -28zM365 104q-11 -20 -28 -40.5t-40 -37t-52 -26.5t-63 -10q-29 0 -53 11t-42 31t-28 49.5t-10 65.5
q0 74 22 144t63.5 124t101.5 87t135 33q15 0 25.5 -1t19 -3t16.5 -5.5t19 -7.5l37 178h-73v54h183l-145 -700h81v-50h-177l13 104h-5zM604 569q24 48 36 103.5t12 98.5l15 18l94 -26q-5 -29 -19.5 -59t-33.5 -57.5t-40.5 -50.5t-39.5 -38z" />
    <glyph glyph-name="Dcroat" unicode="&#x110;" horiz-adv-x="774" 
d="M-21 0l11 56h91l58 274h-101l11 54h101l56 260h-91l12 56h123q19 0 45 1t53.5 2.5t53 3t42.5 1.5q98 0 159 -22.5t95 -57.5t46 -78t12 -85q0 -105 -29.5 -192.5t-87.5 -150t-144 -97t-199 -34.5q-16 0 -39.5 1.5t-49.5 3l-52 3t-47 1.5h-129zM417 652q-28 0 -55 -1
t-43 -4l-56 -263h177l-11 -54h-178l-59 -279q6 -1 20.5 -1.5t31 -1t31.5 -1t21 -0.5q96 0 160.5 37t103 96.5t55 135.5t16.5 154q0 36 -8.5 69t-32.5 58t-65.5 40t-107.5 15z" />
    <glyph glyph-name="dcroat" unicode="&#x111;" horiz-adv-x="591" 
d="M302 643h175l11 53h-73v54h183l-22 -107h96l-13 -51h-94l-112 -542h81v-50h-177l13 104h-5q-11 -20 -28 -40.5t-40 -37t-52 -26.5t-63 -10q-29 0 -53 11t-42 31t-28 49.5t-10 65.5q0 74 22 144t63.5 124t101.5 87t135 33q15 0 25.5 -1t19 -3t16.5 -5.5t19 -7.5l15 74
h-179zM230 54q26 0 48.5 9t41.5 24t34.5 34t26.5 39l59 301q-16 11 -29.5 15.5t-38.5 4.5q-53 0 -94 -28.5t-69 -74t-43 -102t-15 -112.5q0 -54 22.5 -82t56.5 -28z" />
    <glyph glyph-name="Emacron" unicode="&#x112;" horiz-adv-x="635" 
d="M659 700l-35 -164h-64l19 86l-16 22h-245l-55 -259h169l18 15l9 42h64l-36 -171h-64l9 42l-12 16h-169l-58 -273h262l24 20l21 98h64l-37 -174h-548l11 56h91l125 588h-91l12 56h532zM238 787l12 64h340l-12 -64h-340z" />
    <glyph glyph-name="emacron" unicode="&#x113;" horiz-adv-x="501" 
d="M435 96q-11 -20 -30 -39t-45 -34t-58 -24t-69 -9q-86 0 -137.5 48.5t-51.5 136.5q0 75 22 141t62 114t96.5 76.5t125.5 28.5q27 0 51 -6.5t42 -19.5t28 -32t10 -44q0 -72 -76 -116t-249 -56q-4 -18 -6 -34t-2 -32q0 -63 32.5 -100.5t95.5 -37.5q20 0 39.5 6t37.5 15.5
t32.5 21.5t23.5 23zM317 488q-47 0 -86 -41.5t-67 -138.5q106 3 162.5 35t56.5 86q0 11 -3 21.5t-10.5 19t-20 13.5t-32.5 5zM223 668l12 55h288l-12 -55h-288z" />
    <glyph glyph-name="Edotaccent" unicode="&#x116;" horiz-adv-x="635" 
d="M659 700l-35 -164h-64l19 86l-16 22h-245l-55 -259h169l18 15l9 42h64l-36 -171h-64l9 42l-12 16h-169l-58 -273h262l24 20l21 98h64l-37 -174h-548l11 56h91l125 588h-91l12 56h532zM350 821q0 29 23 44t57 15q35 0 58 -15t23 -44t-23 -44t-58 -15q-34 0 -57 15t-23 44z
" />
    <glyph glyph-name="edotaccent" unicode="&#x117;" horiz-adv-x="501" 
d="M435 96q-11 -20 -30 -39t-45 -34t-58 -24t-69 -9q-86 0 -137.5 48.5t-51.5 136.5q0 75 22 141t62 114t96.5 76.5t125.5 28.5q27 0 51 -6.5t42 -19.5t28 -32t10 -44q0 -72 -76 -116t-249 -56q-4 -18 -6 -34t-2 -32q0 -63 32.5 -100.5t95.5 -37.5q20 0 39.5 6t37.5 15.5
t32.5 21.5t23.5 23zM317 488q-47 0 -86 -41.5t-67 -138.5q106 3 162.5 35t56.5 86q0 11 -3 21.5t-10.5 19t-20 13.5t-32.5 5zM296 687q0 29 20.5 46t52.5 17q34 0 53.5 -17t19.5 -46t-19.5 -46t-53.5 -17q-32 0 -52.5 17t-20.5 46z" />
    <glyph glyph-name="Eogonek" unicode="&#x118;" horiz-adv-x="635" 
d="M659 700l-35 -164h-64l19 86l-16 22h-245l-55 -259h169l18 15l9 42h64l-36 -171h-64l9 42l-12 16h-169l-58 -273h262l24 20l21 98h64l-37 -174h-56q-50 -19 -83 -44t-33 -66q0 -27 15 -37.5t48 -10.5q34 0 63 6v-31q-16 -11 -41 -19.5t-62 -8.5q-53 0 -86 19.5t-33 63.5
q0 23 11 42.5t29.5 35t43.5 28.5t52 22h-416l11 56h91l125 588h-91l12 56h532z" />
    <glyph glyph-name="eogonek" unicode="&#x119;" horiz-adv-x="501" 
d="M435 96q-17 -32 -53 -59.5t-87 -38.5q-34 -17 -56.5 -40t-22.5 -58q0 -20 12 -36.5t42 -16.5t59 10v-36q-16 -9 -40.5 -15t-44.5 -6q-66 0 -95 23.5t-29 59.5q0 40 29 64.5t74 42.5q-82 3 -130.5 51.5t-48.5 133.5q0 75 22 141t62 115.5t96.5 77t125.5 27.5q27 0 51 -6.5
t42 -19.5t28 -32t10 -44q0 -73 -77 -117t-250 -56q-4 -18 -5 -34t-1 -32q0 -63 32.5 -100.5t95.5 -37.5q20 0 39.5 6t37.5 15.5t32.5 21.5t23.5 23zM317 489q-47 0 -87 -40.5t-68 -140.5q106 3 163.5 35t57.5 87q0 11 -3 21.5t-10.5 19t-20 13.5t-32.5 5z" />
    <glyph glyph-name="Ecaron" unicode="&#x11a;" horiz-adv-x="635" 
d="M659 700l-35 -164h-64l19 86l-16 22h-245l-55 -259h169l18 15l9 42h64l-36 -171h-64l9 42l-12 16h-169l-58 -273h262l24 20l21 98h64l-37 -174h-548l11 56h91l125 588h-91l12 56h532zM605 919l28 -18l-202 -142h-31l-81 139l28 21l93 -55z" />
    <glyph glyph-name="ecaron" unicode="&#x11b;" horiz-adv-x="501" 
d="M435 96q-11 -20 -30 -39t-45 -34t-58 -24t-69 -9q-86 0 -137.5 48.5t-51.5 136.5q0 75 22 141t62 114t96.5 76.5t125.5 28.5q27 0 51 -6.5t42 -19.5t28 -32t10 -44q0 -72 -76 -116t-249 -56q-4 -18 -6 -34t-2 -32q0 -63 32.5 -100.5t95.5 -37.5q20 0 39.5 6t37.5 15.5
t32.5 21.5t23.5 23zM317 488q-47 0 -86 -41.5t-67 -138.5q106 3 162.5 35t56.5 86q0 11 -3 21.5t-10.5 19t-20 13.5t-32.5 5zM515 806l32 -17l-199 -195h-29l-77 194l40 18l79 -110z" />
    <glyph glyph-name="Gcircumflex" unicode="&#x11c;" horiz-adv-x="764" 
d="M617 48q-49 -29 -112 -44.5t-120 -15.5q-93 0 -153 23.5t-94.5 61t-48 85t-13.5 96.5q0 100 29.5 184t85 145t135.5 95t182 34q74 0 125 -10.5t86 -27.5l-1.5 -7.5t-4.5 -19.5t-6.5 -27.5t-6.5 -31.5q-8 -38 -18 -85h-64l23 105l-10 20q-8 5 -23 9t-32 6.5t-35 3.5t-32 1
q-74 0 -131.5 -31.5t-96.5 -85t-59.5 -124.5t-20.5 -150q0 -38 9 -75t32.5 -66t64 -46.5t103.5 -17.5q33 0 54 4.5t41 11.5l19 18l40 189h-106l12 56h277l-12 -56h-70zM371 761l-16 20l192 133h31l121 -130l-18 -22l-142 56z" />
    <glyph glyph-name="gcircumflex" unicode="&#x11d;" horiz-adv-x="538" 
d="M367 -55q0 28 -25.5 46.5t-70.5 31t-106.5 20.5t-133.5 15l99 139q-14 7 -28.5 17.5t-25.5 26.5t-18 37.5t-7 49.5q0 49 18.5 87.5t52.5 65t80.5 40.5t103.5 14h272v-54h-109q7 -12 11 -37t4 -49q0 -55 -20.5 -96.5t-54.5 -70t-78.5 -43t-92.5 -14.5q-21 0 -42 2t-28 6
l-44 -62q54 -4 115 -10t112.5 -21t85.5 -42t34 -72q0 -44 -24 -78t-63.5 -57t-91.5 -35t-108 -12q-48 0 -90.5 9t-75 25.5t-51 39t-18.5 50.5q0 33 22 55t50 31h55q-14 -12 -22.5 -29.5t-8.5 -33.5q0 -24 14 -41.5t36 -29t49.5 -17t55.5 -5.5q41 0 72 8.5t52 23t32 32.5
t11 37zM311 485q-74 0 -120.5 -39.5t-46.5 -124.5q0 -27 8.5 -47t22 -33.5t31 -20t35.5 -6.5q34 0 62.5 12t48.5 33.5t31 51.5t11 67q0 38 -7.5 64.5t-21.5 42.5h-54zM228 619l-32 17l195 196h29l56 -195l-32 -18l-70 112z" />
    <glyph glyph-name="Gbreve" unicode="&#x11e;" horiz-adv-x="764" 
d="M617 48q-49 -29 -112 -44.5t-120 -15.5q-93 0 -153 23.5t-94.5 61t-48 85t-13.5 96.5q0 100 29.5 184t85 145t135.5 95t182 34q74 0 125 -10.5t86 -27.5l-1.5 -7.5t-4.5 -19.5t-6.5 -27.5t-6.5 -31.5q-8 -38 -18 -85h-64l23 105l-10 20q-8 5 -23 9t-32 6.5t-35 3.5t-32 1
q-74 0 -131.5 -31.5t-96.5 -85t-59.5 -124.5t-20.5 -150q0 -38 9 -75t32.5 -66t64 -46.5t103.5 -17.5q33 0 54 4.5t41 11.5l19 18l40 189h-106l12 56h277l-12 -56h-70zM716 888q-10 -22 -29 -44.5t-44.5 -41t-57 -30.5t-66.5 -12q-26 0 -51 10.5t-45 28.5t-33 41.5t-16 49.5
l47 15q13 -28 40.5 -45.5t63.5 -17.5q43 0 82.5 14t72.5 46z" />
    <glyph glyph-name="gbreve" unicode="&#x11f;" horiz-adv-x="538" 
d="M367 -55q0 28 -25.5 46.5t-70.5 31t-106.5 20.5t-133.5 15l99 139q-14 7 -28.5 17.5t-25.5 26.5t-18 37.5t-7 49.5q0 49 18.5 87.5t52.5 65t80.5 40.5t103.5 14h272v-54h-109q7 -12 11 -37t4 -49q0 -55 -20.5 -96.5t-54.5 -70t-78.5 -43t-92.5 -14.5q-21 0 -42 2t-28 6
l-44 -62q54 -4 115 -10t112.5 -21t85.5 -42t34 -72q0 -44 -24 -78t-63.5 -57t-91.5 -35t-108 -12q-48 0 -90.5 9t-75 25.5t-51 39t-18.5 50.5q0 33 22 55t50 31h55q-14 -12 -22.5 -29.5t-8.5 -33.5q0 -24 14 -41.5t36 -29t49.5 -17t55.5 -5.5q41 0 72 8.5t52 23t32 32.5
t11 37zM311 485q-74 0 -120.5 -39.5t-46.5 -124.5q0 -27 8.5 -47t22 -33.5t31 -20t35.5 -6.5q34 0 62.5 12t48.5 33.5t31 51.5t11 67q0 38 -7.5 64.5t-21.5 42.5h-54zM518 756q-10 -24 -29 -47t-43.5 -41t-52.5 -29.5t-56 -11.5q-30 0 -52 10t-37 28t-24 42t-13 51l32 14
q11 -31 35.5 -50t59.5 -19q50 0 87 14.5t66 50.5z" />
    <glyph glyph-name="Gcommaaccent" unicode="&#x122;" horiz-adv-x="764" 
d="M617 48q-49 -29 -112 -44.5t-120 -15.5q-93 0 -153 23.5t-94.5 61t-48 85t-13.5 96.5q0 100 29.5 184t85 145t135.5 95t182 34q74 0 125 -10.5t86 -27.5l-1.5 -7.5t-4.5 -19.5t-6.5 -27.5t-6.5 -31.5q-8 -38 -18 -85h-64l23 105l-10 20q-8 5 -23 9t-32 6.5t-35 3.5t-32 1
q-74 0 -131.5 -31.5t-96.5 -85t-59.5 -124.5t-20.5 -150q0 -38 9 -75t32.5 -66t64 -46.5t103.5 -17.5q33 0 54 4.5t41 11.5l19 18l40 189h-106l12 56h277l-12 -56h-70zM249 -238q45 9 70.5 28t33.5 53h-53q-8 10 -11 21.5t-3 22.5q0 20 7 37.5t17 27.5h129q8 -29 8 -51
q0 -38 -16 -68.5t-42.5 -53t-59 -37.5t-65.5 -22z" />
    <glyph glyph-name="gcommaaccent" unicode="&#x123;" horiz-adv-x="538" 
d="M367 -55q0 28 -25.5 46.5t-70.5 31t-106.5 20.5t-133.5 15l99 139q-14 7 -28.5 17.5t-25.5 26.5t-18 37.5t-7 49.5q0 49 18.5 87.5t52.5 65t80.5 40.5t103.5 14h272v-54h-109q7 -12 11 -37t4 -49q0 -55 -20.5 -96.5t-54.5 -70t-78.5 -43t-92.5 -14.5q-21 0 -42 2t-28 6
l-44 -62q54 -4 115 -10t112.5 -21t85.5 -42t34 -72q0 -44 -24 -78t-63.5 -57t-91.5 -35t-108 -12q-48 0 -90.5 9t-75 25.5t-51 39t-18.5 50.5q0 33 22 55t50 31h55q-14 -12 -22.5 -29.5t-8.5 -33.5q0 -24 14 -41.5t36 -29t49.5 -17t55.5 -5.5q41 0 72 8.5t52 23t32 32.5
t11 37zM311 485q-74 0 -120.5 -39.5t-46.5 -124.5q0 -27 8.5 -47t22 -33.5t31 -20t35.5 -6.5q34 0 62.5 12t48.5 33.5t31 51.5t11 67q0 38 -7.5 64.5t-21.5 42.5h-54zM454.001 810.985q-87.9941 -23.999 -102.993 -91.9941h49.9971q7.99902 -10 10.999 -20.499
q3 -10.5 3 -21.499q0 -18.999 -7 -34.998q-6.99902 -15.999 -16.999 -25.998h-115.992q-5 13.999 -6.5 27.998t-1.5 26.999q0 36.9971 14.999 66.9951q14.999 29.999 38.998 51.9971q23.998 21.999 54.9961 36.498t63.9961 21.498z" />
    <glyph glyph-name="Hcircumflex" unicode="&#x124;" horiz-adv-x="810" 
d="M276 56l-12 -56h-285l11 56h91l125 588h-91l12 56h286l-12 -56h-83l-54 -257h350l54 257h-83l12 56h286l-12 -56h-91l-125 -588h91l-12 -56h-285l11 56h83l59 275h-350l-59 -275h83zM366 761l-16 20l192 133h31l121 -130l-18 -22l-142 56z" />
    <glyph glyph-name="hcircumflex" unicode="&#x125;" horiz-adv-x="601" 
d="M113 696v54h181l-71 -309h6q38 39 85 66.5t113 27.5q102 0 102 -120q0 -29 -5.5 -61.5t-13.5 -62.5l-61 -237h85v-54h-187l63 273q8 32 14.5 61t6.5 55q0 37 -15.5 58t-47.5 21q-23 0 -45 -6.5t-42 -16.5t-37 -23t-29 -26l-82 -396h-96l148 696h-72zM92 761l-16 20
l192 133h31l121 -130l-18 -22l-142 56z" />
    <glyph glyph-name="Hbar" unicode="&#x126;" horiz-adv-x="810" 
d="M101 560h87l18 84h-91l12 56h286l-12 -56h-83l-18 -84h350l18 84h-83l12 56h286l-12 -56h-91l-18 -84h91l-12 -54h-91l-95 -450h91l-12 -56h-286l12 56h83l59 275h-350l-59 -275h83l-12 -56h-285l11 56h91l95 450h-87zM614 387l25 119h-350l-25 -119h350z" />
    <glyph glyph-name="hbar" unicode="&#x127;" horiz-adv-x="601" 
d="M81 643h93l11 53h-72v54h181l-25 -107h182l-13 -51h-181l-34 -151h6q38 39 85 66.5t113 27.5q102 0 102 -120q0 -29 -5.5 -61.5t-13.5 -62.5l-61 -237h85v-54h-187l63 273q8 32 14.5 61t6.5 55q0 37 -15.5 58t-47.5 21q-23 0 -45 -6.5t-42 -16.5t-37 -23t-29 -26
l-82 -396h-96l126 592h-97z" />
    <glyph glyph-name="Imacron" unicode="&#x12a;" horiz-adv-x="389" 
d="M293 0h-294l12 56h91l125 588h-91l12 56h294l-12 -56h-91l-125 -588h91zM132 787l12 64h340l-12 -64h-340z" />
    <glyph glyph-name="imacron" unicode="&#x12b;" horiz-adv-x="307" 
d="M76 471v54h181l-104 -471h82v-54h-193l107 471h-73zM50 668l12 55h288l-12 -55h-288z" />
    <glyph glyph-name="Iogonek" unicode="&#x12e;" horiz-adv-x="389" 
d="M293 0h-56q-50 -19 -83 -44t-33 -66q0 -27 15 -37.5t48 -10.5q34 0 63 6v-31q-16 -11 -41 -19.5t-62 -8.5q-53 0 -86 19.5t-33 63.5q0 23 11 42.5t29.5 35t43.5 28.5t52 22h-162l12 56h91l125 588h-91l12 56h294l-12 -56h-91l-125 -588h91z" />
    <glyph glyph-name="iogonek" unicode="&#x12f;" horiz-adv-x="307" 
d="M76 471v54h181l-104 -471h82v-54h-7q-22 -7 -43 -17.5t-37.5 -25t-27 -33.5t-10.5 -42q0 -26 15 -42.5t51 -16.5q11 0 21 2t25 7v-33q-17 -9 -41 -15t-44 -6q-66 0 -94 25t-28 63q0 26 11.5 47.5t31.5 38t47 28.5t58 20h-121l107 471h-73zM143 687q0 29 20.5 46t52.5 17
q34 0 53.5 -17t19.5 -46t-19.5 -46t-53.5 -17q-32 0 -52.5 17t-20.5 46z" />
    <glyph glyph-name="Idotaccent" unicode="&#x130;" horiz-adv-x="389" 
d="M293 0h-294l12 56h91l125 588h-91l12 56h294l-12 -56h-91l-125 -588h91zM228 821q0 29 23 44t57 15q35 0 58 -15t23 -44t-23 -44t-58 -15q-34 0 -57 15t-23 44z" />
    <glyph glyph-name="dotlessi" unicode="&#x131;" horiz-adv-x="307" 
d="M76 471v54h181l-104 -471h82v-54h-193l107 471h-73z" />
    <glyph glyph-name="Jcircumflex" unicode="&#x134;" horiz-adv-x="370" 
d="M-41 -113q18 8 36.5 20.5t35 34t31 54.5t25.5 82l121 566h-83l12 56h286l-12 -56h-91l-118 -556q-15 -71 -43.5 -117t-61.5 -73t-66.5 -40t-58.5 -18zM140 761l-16 20l192 133h31l121 -130l-18 -22l-142 56z" />
    <glyph glyph-name="jcircumflex" unicode="&#x135;" horiz-adv-x="300" 
d="M147 471h-68v54h177l-105 -480q-17 -75 -47.5 -122t-64.5 -75t-66 -40t-50 -17l-16 41q13 6 32.5 16.5t39.5 31.5t39 55.5t31 89.5zM82 619l-32 17l195 196h29l56 -195l-32 -18l-70 112z" />
    <glyph glyph-name="Kcommaaccent" unicode="&#x136;" horiz-adv-x="702" 
d="M323 382l269 262h-81l12 56h253l-12 -56h-79l-290 -264l205 -324h63l-12 -56h-150l-189 332h-60l-59 -276h83l-12 -56h-285l11 56h91l125 588h-91l12 56h286l-12 -56h-83l-56 -262h61zM194 -238q45 9 70.5 28t33.5 53h-53q-8 10 -11 21.5t-3 22.5q0 20 7 37.5t17 27.5
h129q8 -29 8 -51q0 -38 -16 -68.5t-42.5 -53t-59 -37.5t-65.5 -22z" />
    <glyph glyph-name="kcommaaccent" unicode="&#x137;" horiz-adv-x="533" 
d="M225 249h-39l-51 -249h-98l146 696h-73v54h180l-95 -461h32l159 159v77h133v-42l-211 -184l136 -245h58v-54h-145zM109 -243q88 24 103 92h-50q-8 10 -11 20.5t-3 21.5q0 19 7 35t17 26h116q5 -14 6.5 -28t1.5 -27q0 -37 -15 -67t-39 -52t-55 -36.5t-64 -21.5z" />
    <glyph glyph-name="Lacute" unicode="&#x139;" horiz-adv-x="599" 
d="M115 644l12 56h311l-12 -56h-108l-125 -588h266l25 22l29 138h72l-46 -216h-560l11 56h91l125 588h-91zM421 914l123 -33v-40l-256 -72l-13 24z" />
    <glyph glyph-name="lacute" unicode="&#x13a;" horiz-adv-x="297" 
d="M175 696h-73v54h181l-122 -581q-5 -22 -6 -36t-1 -27q0 -28 10 -38.5t25 -10.5q26 0 49 16t43 33l23 -35q-11 -14 -28 -28t-38 -26t-45 -19.5t-48 -7.5q-49 0 -72 24t-23 61q0 16 2.5 33.5t6.5 36.5zM288 926l123 -33v-40l-256 -72l-13 24z" />
    <glyph glyph-name="Lcommaaccent" unicode="&#x13b;" horiz-adv-x="599" 
d="M115 644l12 56h311l-12 -56h-108l-125 -588h266l25 22l29 138h72l-46 -216h-560l11 56h91l125 588h-91zM148 -238q45 9 70.5 28t33.5 53h-53q-8 10 -11 21.5t-3 22.5q0 20 7 37.5t17 27.5h129q8 -29 8 -51q0 -38 -16 -68.5t-42.5 -53t-59 -37.5t-65.5 -22z" />
    <glyph glyph-name="lcommaaccent" unicode="&#x13c;" horiz-adv-x="297" 
d="M175 696h-73v54h181l-122 -581q-5 -22 -6 -36t-1 -27q0 -28 10 -38.5t25 -10.5q26 0 49 16t43 33l23 -35q-11 -14 -28 -28t-38 -26t-45 -19.5t-48 -7.5q-49 0 -72 24t-23 61q0 16 2.5 33.5t6.5 36.5zM24 -243q88 24 103 92h-50q-8 10 -11 20.5t-3 21.5q0 19 7 35t17 26
h116q5 -14 6.5 -28t1.5 -27q0 -37 -15 -67t-39 -52t-55 -36.5t-64 -21.5z" />
    <glyph glyph-name="Lcaron" unicode="&#x13d;" horiz-adv-x="599" 
d="M115 644l12 56h311l-12 -56h-108l-125 -588h266l25 22l29 138h72l-46 -216h-560l11 56h91l125 588h-91zM467 500l46 99v84l16 17h107q-3 -41 -19 -76.5t-37.5 -64t-46 -49t-43.5 -31.5z" />
    <glyph glyph-name="lcaron" unicode="&#x13e;" horiz-adv-x="297" 
d="M175 696h-73v54h181l-122 -581q-5 -22 -6 -36t-1 -27q0 -28 10 -38.5t25 -10.5q26 0 49 16t43 33l23 -35q-11 -14 -28 -28t-38 -26t-45 -19.5t-48 -7.5q-49 0 -72 24t-23 61q0 16 2.5 33.5t6.5 36.5zM301 569q24 48 36 103.5t12 98.5l15 18l94 -26q-5 -29 -19.5 -59
t-33.5 -57.5t-40.5 -50.5t-39.5 -38z" />
    <glyph glyph-name="Lslash" unicode="&#x141;" horiz-adv-x="599" 
d="M115 644l12 56h311l-12 -56h-108l-52 -246l179 89l-16 -77l-180 -88l-56 -266h266l25 22l29 138h72l-46 -216h-560l11 56h91l43 204l-104 -51l16 76l104 51l66 308h-91z" />
    <glyph glyph-name="lslash" unicode="&#x142;" horiz-adv-x="330" 
d="M14 310l109 60l69 326h-73v54h181l-67 -319l117 65l-15 -71l-117 -64l-40 -192q-5 -22 -6 -36t-1 -27q0 -28 10 -38.5t25 -10.5q26 0 49 16t43 33l23 -35q-11 -14 -28 -28t-38 -26t-45 -19.5t-48 -7.5q-49 0 -72 24t-23 61q0 16 2.5 33.5t6.5 36.5l32 155l-109 -60z" />
    <glyph glyph-name="Nacute" unicode="&#x143;" horiz-adv-x="810" 
d="M640 700h243l-12 -56h-91l-140 -656h-57l-302 549l-24 77h-4l-5 -78l-102 -480h87l-12 -56h-242l11 56h91l125 588h-91l12 56h191l258 -474l34 -83h5l12 86l88 415h-87zM595 914l123 -33v-40l-256 -72l-13 24z" />
    <glyph glyph-name="nacute" unicode="&#x144;" horiz-adv-x="610" 
d="M425 299q8 32 14 60.5t6 55.5q0 23 -12 39.5t-36 16.5q-30 0 -57.5 -12t-50.5 -29.5t-40.5 -36.5t-27.5 -33l-78 -360h-97l99 471h-69v54h178l-23 -104h5q42 51 94 82.5t112 31.5q54 0 77.5 -26.5t23.5 -68.5q0 -23 -5.5 -58t-13.5 -65l-63 -263h82v-54h-87h-98zM402 750
h126v-41l-196 -117l-28 23z" />
    <glyph glyph-name="Ncommaaccent" unicode="&#x145;" horiz-adv-x="810" 
d="M640 700h243l-12 -56h-91l-140 -656h-57l-302 549l-24 77h-4l-5 -78l-102 -480h87l-12 -56h-242l11 56h91l125 588h-91l12 56h191l258 -474l34 -83h5l12 86l88 415h-87zM236 -238q45 9 70.5 28t33.5 53h-53q-8 10 -11 21.5t-3 22.5q0 20 7 37.5t17 27.5h129q8 -29 8 -51
q0 -38 -16 -68.5t-42.5 -53t-59 -37.5t-65.5 -22z" />
    <glyph glyph-name="ncommaaccent" unicode="&#x146;" horiz-adv-x="610" 
d="M425 299q8 32 14 60.5t6 55.5q0 23 -12 39.5t-36 16.5q-30 0 -57.5 -12t-50.5 -29.5t-40.5 -36.5t-27.5 -33l-78 -360h-97l99 471h-69v54h178l-23 -104h5q42 51 94 82.5t112 31.5q54 0 77.5 -26.5t23.5 -68.5q0 -23 -5.5 -58t-13.5 -65l-63 -263h82v-54h-87h-98z
M133 -243q88 24 103 92h-50q-8 10 -11 20.5t-3 21.5q0 19 7 35t17 26h116q5 -14 6.5 -28t1.5 -27q0 -37 -15 -67t-39 -52t-55 -36.5t-64 -21.5z" />
    <glyph glyph-name="Ncaron" unicode="&#x147;" horiz-adv-x="810" 
d="M640 700h243l-12 -56h-91l-140 -656h-57l-302 549l-24 77h-4l-5 -78l-102 -480h87l-12 -56h-242l11 56h91l125 588h-91l12 56h191l258 -474l34 -83h5l12 86l88 415h-87zM707 919l28 -18l-202 -142h-31l-81 139l28 21l93 -55z" />
    <glyph glyph-name="ncaron" unicode="&#x148;" horiz-adv-x="610" 
d="M425 299q8 32 14 60.5t6 55.5q0 23 -12 39.5t-36 16.5q-30 0 -57.5 -12t-50.5 -29.5t-40.5 -36.5t-27.5 -33l-78 -360h-97l99 471h-69v54h178l-23 -104h5q42 51 94 82.5t112 31.5q54 0 77.5 -26.5t23.5 -68.5q0 -23 -5.5 -58t-13.5 -65l-63 -263h82v-54h-87h-98zM525 806
l32 -17l-199 -195h-29l-77 194l40 18l79 -110z" />
    <glyph glyph-name="Omacron" unicode="&#x14c;" horiz-adv-x="820" 
d="M76 283q0 81 25.5 158.5t78 137.5t132.5 96.5t188 36.5q67 0 123 -19.5t95.5 -56.5t61.5 -89t22 -116q0 -80 -22 -159.5t-71 -142.5t-126 -102t-186 -39q-59 0 -116 17t-103 53t-74 91.5t-28 133.5zM201 282q0 -64 17.5 -109t46 -73.5t65.5 -42t75 -13.5q78 0 130 35.5
t83.5 91.5t45 124.5t13.5 134.5q0 111 -53 168.5t-149 57.5q-71 0 -123 -33t-85.5 -86t-49.5 -120t-16 -135zM322 787l12 64h340l-12 -64h-340z" />
    <glyph glyph-name="omacron" unicode="&#x14d;" horiz-adv-x="564" 
d="M44 195q0 56 18.5 116.5t56 109.5t94 81.5t132.5 32.5q87 0 131 -51t44 -149q0 -69 -21 -131t-59 -109t-91 -76t-118 -29q-85 0 -136 52.5t-51 152.5zM323 488q-35 0 -62 -15t-46 -40.5t-32 -58t-21 -68t-11 -70t-3 -65.5q0 -58 27.5 -96t75.5 -38q38 0 68.5 28t52 71.5
t33 99.5t11.5 115q0 62 -22.5 99.5t-70.5 37.5zM202 668l12 55h288l-12 -55h-288z" />
    <glyph glyph-name="Ohungarumlaut" unicode="&#x150;" horiz-adv-x="820" 
d="M76 283q0 81 25.5 158.5t78 137.5t132.5 96.5t188 36.5q67 0 123 -19.5t95.5 -56.5t61.5 -89t22 -116q0 -80 -22 -159.5t-71 -142.5t-126 -102t-186 -39q-59 0 -116 17t-103 53t-74 91.5t-28 133.5zM201 282q0 -64 17.5 -109t46 -73.5t65.5 -42t75 -13.5q78 0 130 35.5
t83.5 91.5t45 124.5t13.5 134.5q0 111 -53 168.5t-149 57.5q-71 0 -123 -33t-85.5 -86t-49.5 -120t-16 -135zM432 908l101 -24v-24l-177 -103l-22 19zM629 908l106 -22v-25l-230 -106l-25 19z" />
    <glyph glyph-name="ohungarumlaut" unicode="&#x151;" horiz-adv-x="564" 
d="M44 195q0 56 18.5 116.5t56 109.5t94 81.5t132.5 32.5q87 0 131 -51t44 -149q0 -69 -21 -131t-59 -109t-91 -76t-118 -29q-85 0 -136 52.5t-51 152.5zM323 488q-35 0 -62 -15t-46 -40.5t-32 -58t-21 -68t-11 -70t-3 -65.5q0 -58 27.5 -96t75.5 -38q38 0 68.5 28t52 71.5
t33 99.5t11.5 115q0 62 -22.5 99.5t-70.5 37.5zM326 806l97 -22v-26l-155 -130l-27 16zM522 806l98 -29v-25l-224 -124l-23 18z" />
    <glyph glyph-name="OE" unicode="&#x152;" horiz-adv-x="1052" 
d="M507 712q26 0 63.5 -3t67.5 -9h438l-35 -164h-64l19 86l-16 22h-242l-55 -259h169l18 15l9 42h64l-36 -171h-64l9 42l-12 16h-169l-58 -273h262l24 20l21 98h64l-37 -174h-457q-29 -6 -64 -9t-66 -3q-52 0 -103 14.5t-91 48t-65 88.5t-25 135q0 105 34.5 186.5
t93.5 137.5t137.5 85t165.5 29zM385 42q61 0 117 20l122 571q-26 11 -60 18t-72 7q-68 0 -122 -32.5t-91.5 -87t-57.5 -125.5t-20 -148q0 -64 15.5 -106.5t41 -68.5t59 -37t68.5 -11z" />
    <glyph glyph-name="oe" unicode="&#x153;" horiz-adv-x="858" 
d="M322 488q-35 0 -61.5 -15t-46 -40t-32.5 -57t-20.5 -67.5t-10.5 -71t-3 -66.5q0 -61 27.5 -97.5t75.5 -36.5q38 0 68.5 27.5t51.5 72t32.5 101.5t11.5 116q0 62 -22.5 98t-70.5 36zM423 76q-21 -25 -45.5 -41.5t-50 -26.5t-50.5 -14t-46 -4q-85 0 -136 51t-51 154
q0 56 18.5 116t56 110t94 82t131.5 32q54 0 95.5 -21.5t57.5 -66.5q48 51 102.5 69.5t106.5 18.5q27 0 51 -6t42 -18.5t28 -31t10 -43.5q0 -75 -77 -119t-250 -56q-7 -34 -7 -66q0 -63 33 -100.5t96 -37.5q22 0 41.5 6t37 16t31.5 21.5t26 22.5l26 -32q-11 -20 -30.5 -38.5
t-46 -32.5t-59 -22t-68.5 -8q-69 0 -109.5 25.5t-57.5 60.5zM673 488q-23 0 -45 -9.5t-41.5 -30.5t-37 -55.5t-31.5 -84.5q106 3 163.5 35t57.5 89q0 22 -13 39t-53 17z" />
    <glyph glyph-name="Racute" unicode="&#x154;" horiz-adv-x="700" 
d="M193 56h86l-12 -56h-288l11 56h91l125 588h-91l12 56h101q45 0 99 4t105 4q112 0 170 -42.5t58 -124.5q0 -50 -19 -89.5t-49 -68t-68 -46t-76 -23.5l145 -258h67l-12 -56h-155l-146 303h-102zM335 354q41 0 77.5 11t63.5 34t43 58t16 83q0 54 -32 83t-108 29
q-26 0 -44 -2t-33 -4l-62 -292h79zM517 914l123 -33v-40l-256 -72l-13 24z" />
    <glyph glyph-name="racute" unicode="&#x155;" horiz-adv-x="418" 
d="M341 429q-10 -2 -23.5 -5.5t-28.5 -9.5t-31 -16t-31 -25l-82 -373h-98l103 471h-69v54h177l-24 -102h5q20 31 49 60.5t55 41.5h80v-96h-82zM328 750h126v-41l-196 -117l-28 23z" />
    <glyph glyph-name="Rcommaaccent" unicode="&#x156;" horiz-adv-x="700" 
d="M193 56h86l-12 -56h-288l11 56h91l125 588h-91l12 56h101q45 0 99 4t105 4q112 0 170 -42.5t58 -124.5q0 -50 -19 -89.5t-49 -68t-68 -46t-76 -23.5l145 -258h67l-12 -56h-155l-146 303h-102zM335 354q41 0 77.5 11t63.5 34t43 58t16 83q0 54 -32 83t-108 29
q-26 0 -44 -2t-33 -4l-62 -292h79zM182 -238q45 9 70.5 28t33.5 53h-53q-8 10 -11 21.5t-3 22.5q0 20 7 37.5t17 27.5h129q8 -29 8 -51q0 -38 -16 -68.5t-42.5 -53t-59 -37.5t-65.5 -22z" />
    <glyph glyph-name="rcommaaccent" unicode="&#x157;" horiz-adv-x="418" 
d="M341 429q-10 -2 -23.5 -5.5t-28.5 -9.5t-31 -16t-31 -25l-82 -373h-98l103 471h-69v54h177l-24 -102h5q20 31 49 60.5t55 41.5h80v-96h-82zM27 -243q88 24 103 92h-50q-8 10 -11 20.5t-3 21.5q0 19 7 35t17 26h116q5 -14 6.5 -28t1.5 -27q0 -37 -15 -67t-39 -52
t-55 -36.5t-64 -21.5z" />
    <glyph glyph-name="Rcaron" unicode="&#x158;" horiz-adv-x="700" 
d="M193 56h86l-12 -56h-288l11 56h91l125 588h-91l12 56h101q45 0 99 4t105 4q112 0 170 -42.5t58 -124.5q0 -50 -19 -89.5t-49 -68t-68 -46t-76 -23.5l145 -258h67l-12 -56h-155l-146 303h-102zM335 354q41 0 77.5 11t63.5 34t43 58t16 83q0 54 -32 83t-108 29
q-26 0 -44 -2t-33 -4l-62 -292h79zM589 919l28 -18l-202 -142h-31l-81 139l28 21l93 -55z" />
    <glyph glyph-name="rcaron" unicode="&#x159;" horiz-adv-x="418" 
d="M341 429q-10 -2 -23.5 -5.5t-28.5 -9.5t-31 -16t-31 -25l-82 -373h-98l103 471h-69v54h177l-24 -102h5q20 31 49 60.5t55 41.5h80v-96h-82zM458 806l32 -17l-199 -195h-29l-77 194l40 18l79 -110z" />
    <glyph glyph-name="Sacute" unicode="&#x15a;" horiz-adv-x="586" 
d="M102 104l13 -24q7 -6 21 -12.5t31.5 -12t37 -8.5t38.5 -3q87 0 134.5 34t47.5 99q0 39 -21.5 67t-53.5 51t-70 44t-70 46.5t-53.5 58.5t-21.5 79q0 91 69 140t202 49q69 0 114 -9.5t77 -24.5l-2 -7.5t-4 -19.5t-5.5 -27.5t-6.5 -31.5q-8 -38 -18 -85h-64l22 107l-11 25
q-17 8 -49 12.5t-67 4.5q-75 0 -110 -30t-35 -72q0 -35 21.5 -60.5t53.5 -48t70 -44t70 -48t53.5 -61.5t21.5 -83q0 -50 -20 -90.5t-58.5 -69.5t-95.5 -45t-131 -16q-35 0 -67.5 5t-59.5 13t-47.5 17t-32.5 18l38 182h64zM505 914l123 -33v-40l-256 -72l-13 24z" />
    <glyph glyph-name="sacute" unicode="&#x15b;" horiz-adv-x="471" 
d="M183 44q18 0 38.5 3.5t37.5 12.5t28 24.5t11 39.5q0 25 -15.5 44t-38.5 36.5t-50.5 35t-50.5 38t-38.5 46.5t-15.5 61q0 37 17 65.5t46 47t69 28t85 9.5q21 0 41.5 -3t38 -7.5t30.5 -10.5t19 -11l-30 -117h-62l17 82q-8 6 -28.5 9.5t-35.5 3.5q-16 0 -34.5 -2.5
t-34.5 -10t-26.5 -21t-10.5 -35.5q0 -27 15.5 -47t39.5 -37t51 -34t51 -37.5t39.5 -47t15.5 -63.5q0 -38 -20 -67t-53 -49t-76.5 -30t-89.5 -10q-26 0 -51.5 5t-47 12.5t-37 16t-21.5 14.5l38 119h68l-26 -83q11 -11 36 -20.5t61 -9.5zM341 750h126v-41l-196 -117l-28 23z
" />
    <glyph glyph-name="Scircumflex" unicode="&#x15c;" horiz-adv-x="586" 
d="M102 104l13 -24q7 -6 21 -12.5t31.5 -12t37 -8.5t38.5 -3q87 0 134.5 34t47.5 99q0 39 -21.5 67t-53.5 51t-70 44t-70 46.5t-53.5 58.5t-21.5 79q0 91 69 140t202 49q69 0 114 -9.5t77 -24.5l-2 -7.5t-4 -19.5t-5.5 -27.5t-6.5 -31.5q-8 -38 -18 -85h-64l22 107l-11 25
q-17 8 -49 12.5t-67 4.5q-75 0 -110 -30t-35 -72q0 -35 21.5 -60.5t53.5 -48t70 -44t70 -48t53.5 -61.5t21.5 -83q0 -50 -20 -90.5t-58.5 -69.5t-95.5 -45t-131 -16q-35 0 -67.5 5t-59.5 13t-47.5 17t-32.5 18l38 182h64zM275 761l-16 20l192 133h31l121 -130l-18 -22
l-142 56z" />
    <glyph glyph-name="scircumflex" unicode="&#x15d;" horiz-adv-x="471" 
d="M183 44q18 0 38.5 3.5t37.5 12.5t28 24.5t11 39.5q0 25 -15.5 44t-38.5 36.5t-50.5 35t-50.5 38t-38.5 46.5t-15.5 61q0 37 17 65.5t46 47t69 28t85 9.5q21 0 41.5 -3t38 -7.5t30.5 -10.5t19 -11l-30 -117h-62l17 82q-8 6 -28.5 9.5t-35.5 3.5q-16 0 -34.5 -2.5
t-34.5 -10t-26.5 -21t-10.5 -35.5q0 -27 15.5 -47t39.5 -37t51 -34t51 -37.5t39.5 -47t15.5 -63.5q0 -38 -20 -67t-53 -49t-76.5 -30t-89.5 -10q-26 0 -51.5 5t-47 12.5t-37 16t-21.5 14.5l38 119h68l-26 -83q11 -11 36 -20.5t61 -9.5zM197 619l-32 17l195 196h29l56 -195
l-32 -18l-70 112z" />
    <glyph glyph-name="Scedilla" unicode="&#x15e;" horiz-adv-x="586" 
d="M102 104l13 -24q7 -6 21 -12.5t31.5 -12t37 -8.5t38.5 -3q87 0 134.5 34t47.5 99q0 39 -21.5 67t-53.5 51t-70 44t-70 46.5t-53.5 58.5t-21.5 79q0 91 69 140t202 49q69 0 114 -9.5t77 -24.5l-2 -7.5t-4 -19.5t-5.5 -27.5t-6.5 -31.5q-8 -38 -18 -85h-64l22 107l-11 25
q-17 8 -49 12.5t-67 4.5q-75 0 -110 -30t-35 -72q0 -35 21.5 -60.5t53.5 -48t70 -44t70 -48t53.5 -61.5t21.5 -83q0 -92 -66 -151t-194 -68l-27 -54q34 -1 54.5 -6.5t31.5 -15t14.5 -22t3.5 -27.5q0 -30 -23 -49t-57.5 -29.5t-73.5 -14.5t-71 -4v33q22 1 44 3.5t39.5 7.5
t28.5 13.5t11 22.5q0 10 -1.5 18t-8.5 13.5t-21 9t-39 4.5l39 95q-68 2 -120.5 19t-75.5 34l38 182h64z" />
    <glyph glyph-name="scedilla" unicode="&#x15f;" horiz-adv-x="471" 
d="M183 44q18 0 38.5 3.5t37.5 12.5t28 24.5t11 39.5q0 25 -15.5 44t-38.5 36.5t-50.5 35t-50.5 38t-38.5 46.5t-15.5 61q0 37 17 65.5t46 47t69 28t85 9.5q21 0 41.5 -3t38 -7.5t30.5 -10.5t19 -11l-30 -117h-62l17 82q-8 6 -28.5 9.5t-35.5 3.5q-16 0 -34.5 -2.5
t-34.5 -10t-26.5 -21t-10.5 -35.5q0 -27 15.5 -47t39.5 -37t51 -34t51 -37.5t39.5 -47t15.5 -63.5q0 -31 -13.5 -56t-36.5 -44t-54.5 -31.5t-67.5 -18.5l-26 -57q31 -1 50.5 -5t31 -12t15.5 -20t4 -29q0 -30 -20.5 -49t-51 -29.5t-67 -14.5t-67.5 -4v32q21 1 41.5 3t36.5 7
t25.5 14t9.5 25q0 10 -2.5 17.5t-10.5 12t-22 7.5t-37 5l37 92q-4 0 -7 -0.5t-7 -0.5q-26 0 -51.5 5t-47 12.5t-37 16t-21.5 14.5l38 119h68l-26 -83q11 -11 36 -20.5t61 -9.5z" />
    <glyph glyph-name="Scaron" unicode="&#x160;" horiz-adv-x="586" 
d="M102 104l13 -24q7 -6 21 -12.5t31.5 -12t37 -8.5t38.5 -3q87 0 134.5 34t47.5 99q0 39 -21.5 67t-53.5 51t-70 44t-70 46.5t-53.5 58.5t-21.5 79q0 91 69 140t202 49q69 0 114 -9.5t77 -24.5l-2 -7.5t-4 -19.5t-5.5 -27.5t-6.5 -31.5q-8 -38 -18 -85h-64l22 107l-11 25
q-17 8 -49 12.5t-67 4.5q-75 0 -110 -30t-35 -72q0 -35 21.5 -60.5t53.5 -48t70 -44t70 -48t53.5 -61.5t21.5 -83q0 -50 -20 -90.5t-58.5 -69.5t-95.5 -45t-131 -16q-35 0 -67.5 5t-59.5 13t-47.5 17t-32.5 18l38 182h64zM595 919l28 -18l-202 -142h-31l-81 139l28 21
l93 -55z" />
    <glyph glyph-name="scaron" unicode="&#x161;" horiz-adv-x="471" 
d="M183 44q18 0 38.5 3.5t37.5 12.5t28 24.5t11 39.5q0 25 -15.5 44t-38.5 36.5t-50.5 35t-50.5 38t-38.5 46.5t-15.5 61q0 37 17 65.5t46 47t69 28t85 9.5q21 0 41.5 -3t38 -7.5t30.5 -10.5t19 -11l-30 -117h-62l17 82q-8 6 -28.5 9.5t-35.5 3.5q-16 0 -34.5 -2.5
t-34.5 -10t-26.5 -21t-10.5 -35.5q0 -27 15.5 -47t39.5 -37t51 -34t51 -37.5t39.5 -47t15.5 -63.5q0 -38 -20 -67t-53 -49t-76.5 -30t-89.5 -10q-26 0 -51.5 5t-47 12.5t-37 16t-21.5 14.5l38 119h68l-26 -83q11 -11 36 -20.5t61 -9.5zM463 806l32 -17l-199 -195h-29
l-77 194l40 18l79 -110z" />
    <glyph glyph-name="Tcedilla" unicode="&#x162;" horiz-adv-x="688" 
d="M454 0h-132l-33 -64q34 -1 54.5 -6.5t31.5 -15t14.5 -22t3.5 -27.5q0 -30 -23 -49t-57.5 -29.5t-73.5 -14.5t-71 -4v33q22 1 44 3.5t39.5 7.5t28.5 13.5t11 22.5q0 10 -1.5 18t-8.5 13.5t-21 9t-39 4.5l44 107h-129l12 56h103l125 588h-180l-23 -22l-28 -129h-72l44 207
h654l-44 -207h-72l28 129l-17 22h-178l-125 -588h103z" />
    <glyph glyph-name="tcedilla" unicode="&#x163;" horiz-adv-x="395" 
d="M58 525h106l29 115h94l-27 -115h135v-54h-146l-79 -302q-5 -20 -6.5 -36t-1.5 -33q0 -46 52 -46q27 0 61 12.5t60 35.5l21 -40q-11 -12 -29 -24t-41 -22t-50.5 -17.5t-57.5 -8.5l-24 -51q31 -1 50.5 -5t31 -12t15.5 -20t4 -29q0 -30 -20.5 -49t-51.5 -29.5t-67 -14.5
t-67 -4v32q21 1 41.5 3t36.5 7t25.5 14t9.5 25q0 10 -2.5 17.5t-10.5 12t-22 7.5t-37 5l39 94q-33 8 -50.5 30t-17.5 52q0 16 1 33.5t6 36.5l82 326h-92v54z" />
    <glyph glyph-name="Tcaron" unicode="&#x164;" horiz-adv-x="688" 
d="M454 0h-318l12 56h103l125 588h-180l-23 -22l-28 -129h-72l44 207h654l-44 -207h-72l28 129l-17 22h-178l-125 -588h103zM629 919l28 -18l-202 -142h-31l-81 139l28 21l93 -55z" />
    <glyph glyph-name="tcaron" unicode="&#x165;" horiz-adv-x="395" 
d="M58 525h106l29 115h94l-27 -115h135v-54h-146l-78 -302q-5 -20 -7 -36t-2 -33q0 -46 52 -46q27 0 61 12.5t60 35.5l21 -40q-11 -12 -30.5 -25t-44.5 -23.5t-55 -17t-62 -6.5q-49 0 -76 24t-27 61q0 16 1 33.5t6 36.5l82 326h-92v54zM303 571q24 48 36 103.5t12 98.5
l15 18l94 -26q-5 -29 -19.5 -59t-33.5 -57.5t-40.5 -50.5t-39.5 -38z" />
    <glyph glyph-name="Umacron" unicode="&#x16a;" horiz-adv-x="752" 
d="M657 244q-28 -132 -105.5 -192.5t-204.5 -60.5q-67 0 -114 15.5t-77 42.5t-43.5 64.5t-13.5 82.5q0 37 9 79l78 369h-91l12 56h284l-12 -56h-81l-78 -367q-4 -20 -6.5 -37t-2.5 -34q0 -72 40 -110t124 -38q176 0 217 188l86 398h-82l12 56h237l-12 -56h-91zM333 787
l12 64h340l-12 -64h-340z" />
    <glyph glyph-name="umacron" unicode="&#x16b;" 
d="M540 54v-54h-184l21 118h-4q-15 -21 -37 -43.5t-49.5 -41t-60 -31t-68.5 -12.5q-46 0 -73 24.5t-27 71.5q0 14 2.5 36.5t8.5 51.5l63 297h-69v54h180l-69 -299q-6 -26 -12 -55.5t-6 -57.5q0 -30 13 -44.5t34 -14.5q34 0 64.5 16t55 37.5t41 44.5t24.5 38l67 335h95
l-91 -471h81zM223 668l12 55h288l-12 -55h-288z" />
    <glyph glyph-name="Ubreve" unicode="&#x16c;" horiz-adv-x="752" 
d="M657 244q-28 -132 -105.5 -192.5t-204.5 -60.5q-67 0 -114 15.5t-77 42.5t-43.5 64.5t-13.5 82.5q0 37 9 79l78 369h-91l12 56h284l-12 -56h-81l-78 -367q-4 -20 -6.5 -37t-2.5 -34q0 -72 40 -110t124 -38q176 0 217 188l86 398h-82l12 56h237l-12 -56h-91zM696 888
q-10 -22 -29 -44.5t-44.5 -41t-57 -30.5t-66.5 -12q-26 0 -51 10.5t-45 28.5t-33 41.5t-16 49.5l47 15q13 -28 40.5 -45.5t63.5 -17.5q43 0 82.5 14t72.5 46z" />
    <glyph glyph-name="ubreve" unicode="&#x16d;" 
d="M540 54v-54h-184l21 118h-4q-15 -21 -37 -43.5t-49.5 -41t-60 -31t-68.5 -12.5q-46 0 -73 24.5t-27 71.5q0 14 2.5 36.5t8.5 51.5l63 297h-69v54h180l-69 -299q-6 -26 -12 -55.5t-6 -57.5q0 -30 13 -44.5t34 -14.5q34 0 64.5 16t55 37.5t41 44.5t24.5 38l67 335h95
l-91 -471h81zM544 756q-10 -24 -29 -47t-43.5 -41t-52.5 -29.5t-56 -11.5q-30 0 -52 10t-37 28t-24 42t-13 51l32 14q11 -31 35.5 -50t59.5 -19q50 0 87 14.5t66 50.5z" />
    <glyph glyph-name="Uring" unicode="&#x16e;" horiz-adv-x="752" 
d="M657 244q-28 -132 -105.5 -192.5t-204.5 -60.5q-67 0 -114 15.5t-77 42.5t-43.5 64.5t-13.5 82.5q0 37 9 79l78 369h-91l12 56h284l-12 -56h-81l-78 -367q-4 -20 -6.5 -37t-2.5 -34q0 -72 40 -110t124 -38q176 0 217 188l86 398h-82l12 56h237l-12 -56h-91zM378 788
q0 41 38 63.5t93 22.5q22 0 44 -5t39.5 -15t28.5 -25.5t11 -37.5q0 -20 -10 -35t-27.5 -26t-40 -16.5t-46.5 -5.5q-58 0 -94 21t-36 59zM453 788q0 -17 14.5 -27.5t34.5 -10.5q29 0 42 10t13 27q0 26 -15 35.5t-36 9.5q-27 0 -40 -12.5t-13 -31.5z" />
    <glyph glyph-name="uring" unicode="&#x16f;" 
d="M540 54v-54h-184l21 118h-4q-15 -21 -37 -43.5t-49.5 -41t-60 -31t-68.5 -12.5q-46 0 -73 24.5t-27 71.5q0 14 2.5 36.5t8.5 51.5l63 297h-69v54h180l-69 -299q-6 -26 -12 -55.5t-6 -57.5q0 -30 13 -44.5t34 -14.5q34 0 64.5 16t55 37.5t41 44.5t24.5 38l67 335h95
l-91 -471h81zM263 717q0 43 32 72.5t81 29.5q45 0 75.5 -26.5t30.5 -72.5q0 -21 -9 -39t-23.5 -31t-34 -20.5t-40.5 -7.5q-51 0 -81.5 25.5t-30.5 69.5zM323 719q0 -26 15 -39.5t33 -13.5q22 0 36.5 12t14.5 38q0 29 -14 44t-36 15q-26 0 -37.5 -15t-11.5 -41z" />
    <glyph glyph-name="Uhungarumlaut" unicode="&#x170;" horiz-adv-x="752" 
d="M657 244q-28 -132 -105.5 -192.5t-204.5 -60.5q-67 0 -114 15.5t-77 42.5t-43.5 64.5t-13.5 82.5q0 37 9 79l78 369h-91l12 56h284l-12 -56h-81l-78 -367q-4 -20 -6.5 -37t-2.5 -34q0 -72 40 -110t124 -38q176 0 217 188l86 398h-82l12 56h237l-12 -56h-91zM453 908
l101 -24v-24l-177 -103l-22 19zM650 908l106 -22v-25l-230 -106l-25 19z" />
    <glyph glyph-name="uhungarumlaut" unicode="&#x171;" 
d="M540 54v-54h-184l21 118h-4q-15 -21 -37 -43.5t-49.5 -41t-60 -31t-68.5 -12.5q-46 0 -73 24.5t-27 71.5q0 14 2.5 36.5t8.5 51.5l63 297h-69v54h180l-69 -299q-6 -26 -12 -55.5t-6 -57.5q0 -30 13 -44.5t34 -14.5q34 0 64.5 16t55 37.5t41 44.5t24.5 38l67 335h95
l-91 -471h81zM354 806l97 -22v-26l-155 -130l-27 16zM550 806l98 -29v-25l-224 -124l-23 18z" />
    <glyph glyph-name="Uogonek" unicode="&#x172;" horiz-adv-x="752" 
d="M657 244q-22 -105 -75.5 -164t-138.5 -79q-51 -19 -85 -44t-34 -67q0 -27 15 -37.5t48 -10.5q34 0 63 6v-31q-16 -11 -41 -19.5t-62 -8.5q-53 0 -86 19.5t-33 63.5q0 41 32.5 70t80.5 49q-65 1 -111 16.5t-75 42.5t-42.5 64.5t-13.5 81.5q0 37 9 79l78 369h-91l12 56h284
l-12 -56h-81l-79 -367q-4 -20 -6 -37t-2 -34q0 -72 40 -110t124 -38q176 0 217 188l85 398h-81l12 56h237l-12 -56h-91z" />
    <glyph glyph-name="uogonek" unicode="&#x173;" 
d="M540 54v-54h-8q-22 -7 -43 -17.5t-37.5 -25t-27 -33.5t-10.5 -42q0 -26 15 -42.5t51 -16.5q11 0 21 2t25 7v-33q-17 -9 -41 -15t-44 -6q-66 0 -94 25t-28 63q0 26 11.5 47.5t31.5 38t47 28.5t58 20h-111l21 118h-4q-15 -21 -37 -43.5t-49.5 -41t-60 -31t-68.5 -12.5
q-46 0 -73 24.5t-27 71.5q0 14 2.5 36.5t8.5 51.5l63 297h-69v54h180l-69 -299q-6 -26 -12 -55.5t-6 -57.5q0 -30 13 -44.5t34 -14.5q34 0 64.5 16t55 37.5t41 44.5t24.5 38l67 335h95l-91 -471h81z" />
    <glyph glyph-name="Ydieresis" unicode="&#x178;" horiz-adv-x="727" 
d="M575 700h254l-12 -56h-85l-287 -347l-51 -241h83l-12 -56h-286l12 56h91l51 240l-152 348h-91l12 56h299l-12 -56h-84l114 -296l236 296h-92zM304 796q0 29 18.5 43.5t46.5 14.5q29 0 48 -14.5t19 -43.5q0 -26 -19 -40t-48 -14q-28 0 -46.5 14t-18.5 40zM556 796
q0 29 19 43.5t46 14.5q29 0 48 -14.5t19 -43.5q0 -26 -19 -40t-48 -14q-27 0 -46 14t-19 40z" />
    <glyph glyph-name="Zacute" unicode="&#x179;" horiz-adv-x="662" 
d="M-4 56l570 588h-328l-24 -22l-27 -125h-72l43 203h555l-12 -56l-570 -588h365l25 22l26 125h72l-43 -203h-592zM535 914l123 -33v-40l-256 -72l-13 24z" />
    <glyph glyph-name="zacute" unicode="&#x17a;" horiz-adv-x="483" 
d="M373 441h-235l-28 -72h-57l33 156h390v-54l-363 -387h262l27 72h58l-34 -156h-417v54zM332 750h126v-41l-196 -117l-28 23z" />
    <glyph glyph-name="Zdotaccent" unicode="&#x17b;" horiz-adv-x="662" 
d="M-4 56l570 588h-328l-24 -22l-27 -125h-72l43 203h555l-12 -56l-570 -588h365l25 22l26 125h72l-43 -203h-592zM357 821q0 29 23 44t57 15q35 0 58 -15t23 -44t-23 -44t-58 -15q-34 0 -57 15t-23 44z" />
    <glyph glyph-name="zdotaccent" unicode="&#x17c;" horiz-adv-x="483" 
d="M373 441h-235l-28 -72h-57l33 156h390v-54l-363 -387h262l27 72h58l-34 -156h-417v54zM241 687q0 29 20.5 46t52.5 17q34 0 53.5 -17t19.5 -46t-19.5 -46t-53.5 -17q-32 0 -52.5 17t-20.5 46z" />
    <glyph glyph-name="Zcaron" unicode="&#x17d;" horiz-adv-x="662" 
d="M-4 56l570 588h-328l-24 -22l-27 -125h-72l43 203h555l-12 -56l-570 -588h365l25 22l26 125h72l-43 -203h-592zM609 919l28 -18l-202 -142h-31l-81 139l28 21l93 -55z" />
    <glyph glyph-name="zcaron" unicode="&#x17e;" horiz-adv-x="483" 
d="M373 441h-235l-28 -72h-57l33 156h390v-54l-363 -387h262l27 72h58l-34 -156h-417v54zM471 806l32 -17l-199 -195h-29l-77 194l40 18l79 -110z" />
    <glyph glyph-name="longs" unicode="&#x17f;" horiz-adv-x="327" 
d="M140 471h-79v54h93l8 46q9 50 29.5 84t51.5 55t70 30.5t84 9.5q19 0 44 -4.5t43 -12.5l-27 -114h-57l14 69q-11 4 -23 6t-23 2q-38 0 -68 -27.5t-41 -91.5l-92 -532q-13 -74 -40 -120.5t-58.5 -74t-61.5 -40t-48 -17.5l-19 41q14 6 32.5 17t37.5 32.5t35 55.5t25 86z" />
    <glyph glyph-name="florin" unicode="&#x192;" 
d="M210 471h-79v54h93l8 46q9 50 29.5 84t51.5 55t70 30.5t84 9.5q19 0 44 -4.5t43 -12.5l-27 -114h-57l14 69q-11 4 -23 6t-23 2q-38 0 -66.5 -26t-42.5 -93l-11 -52h122v-54h-133l-70 -426q-12 -74 -39.5 -121t-59 -74.5t-61.5 -39.5t-48 -17l-19 41q14 6 32.5 17
t37.5 32.5t35 55.5t25 86z" />
    <glyph glyph-name="uni01F4" unicode="&#x1f4;" horiz-adv-x="764" 
d="M617 48q-49 -29 -112 -44.5t-120 -15.5q-93 0 -153 23.5t-94.5 61t-48 85t-13.5 96.5q0 100 29.5 184t85 145t135.5 95t182 34q74 0 125 -10.5t86 -27.5l-1.5 -7.5t-4.5 -19.5t-6.5 -27.5t-6.5 -31.5q-8 -38 -18 -85h-64l23 105l-10 20q-8 5 -23 9t-32 6.5t-35 3.5t-32 1
q-74 0 -131.5 -31.5t-96.5 -85t-59.5 -124.5t-20.5 -150q0 -38 9 -75t32.5 -66t64 -46.5t103.5 -17.5q33 0 54 4.5t41 11.5l19 18l40 189h-106l12 56h277l-12 -56h-70zM605 914l123 -33v-40l-256 -72l-13 24z" />
    <glyph glyph-name="uni01F5" unicode="&#x1f5;" horiz-adv-x="538" 
d="M367 -55q0 28 -25.5 46.5t-70.5 31t-106.5 20.5t-133.5 15l99 139q-14 7 -28.5 17.5t-25.5 26.5t-18 37.5t-7 49.5q0 49 18.5 87.5t52.5 65t80.5 40.5t103.5 14h272v-54h-109q7 -12 11 -37t4 -49q0 -55 -20.5 -96.5t-54.5 -70t-78.5 -43t-92.5 -14.5q-21 0 -42 2t-28 6
l-44 -62q54 -4 115 -10t112.5 -21t85.5 -42t34 -72q0 -44 -24 -78t-63.5 -57t-91.5 -35t-108 -12q-48 0 -90.5 9t-75 25.5t-51 39t-18.5 50.5q0 33 22 55t50 31h55q-14 -12 -22.5 -29.5t-8.5 -33.5q0 -24 14 -41.5t36 -29t49.5 -17t55.5 -5.5q41 0 72 8.5t52 23t32 32.5
t11 37zM311 485q-74 0 -120.5 -39.5t-46.5 -124.5q0 -27 8.5 -47t22 -33.5t31 -20t35.5 -6.5q34 0 62.5 12t48.5 33.5t31 51.5t11 67q0 38 -7.5 64.5t-21.5 42.5h-54zM403 750h126v-41l-196 -117l-28 23z" />
    <glyph glyph-name="Scommaaccent" unicode="&#x218;" horiz-adv-x="586" 
d="M102 104l13 -24q7 -6 21 -12.5t31.5 -12t37 -8.5t38.5 -3q87 0 134.5 34t47.5 99q0 39 -21.5 67t-53.5 51t-70 44t-70 46.5t-53.5 58.5t-21.5 79q0 91 69 140t202 49q69 0 114 -9.5t77 -24.5l-2 -7.5t-4 -19.5t-5.5 -27.5t-6.5 -31.5q-8 -38 -18 -85h-64l22 107l-11 25
q-17 8 -49 12.5t-67 4.5q-75 0 -110 -30t-35 -72q0 -35 21.5 -60.5t53.5 -48t70 -44t70 -48t53.5 -61.5t21.5 -83q0 -50 -20 -90.5t-58.5 -69.5t-95.5 -45t-131 -16q-35 0 -67.5 5t-59.5 13t-47.5 17t-32.5 18l38 182h64zM141 -238q45 9 70.5 28t33.5 53h-53q-8 10 -11 21.5
t-3 22.5q0 20 7 37.5t17 27.5h129q8 -29 8 -51q0 -38 -16 -68.5t-42.5 -53t-59 -37.5t-65.5 -22z" />
    <glyph glyph-name="scommaaccent" unicode="&#x219;" horiz-adv-x="471" 
d="M183 44q18 0 38.5 3.5t37.5 12.5t28 24.5t11 39.5q0 25 -15.5 44t-38.5 36.5t-50.5 35t-50.5 38t-38.5 46.5t-15.5 61q0 37 17 65.5t46 47t69 28t85 9.5q21 0 41.5 -3t38 -7.5t30.5 -10.5t19 -11l-30 -117h-62l17 82q-8 6 -28.5 9.5t-35.5 3.5q-16 0 -34.5 -2.5
t-34.5 -10t-26.5 -21t-10.5 -35.5q0 -27 15.5 -47t39.5 -37t51 -34t51 -37.5t39.5 -47t15.5 -63.5q0 -38 -20 -67t-53 -49t-76.5 -30t-89.5 -10q-26 0 -51.5 5t-47 12.5t-37 16t-21.5 14.5l38 119h68l-26 -83q11 -11 36 -20.5t61 -9.5zM69 -243q88 24 103 92h-50
q-8 10 -11 20.5t-3 21.5q0 19 7 35t17 26h116q5 -14 6.5 -28t1.5 -27q0 -37 -15 -67t-39 -52t-55 -36.5t-64 -21.5z" />
    <glyph glyph-name="Tcommaaccent" unicode="&#x21a;" horiz-adv-x="688" 
d="M454 0h-318l12 56h103l125 588h-180l-23 -22l-28 -129h-72l44 207h654l-44 -207h-72l28 129l-17 22h-178l-125 -588h103zM179 -238q45 9 70.5 28t33.5 53h-53q-8 10 -11 21.5t-3 22.5q0 20 7 37.5t17 27.5h129q8 -29 8 -51q0 -38 -16 -68.5t-42.5 -53t-59 -37.5
t-65.5 -22z" />
    <glyph glyph-name="tcommaaccent" unicode="&#x21b;" horiz-adv-x="395" 
d="M58 525h106l29 115h94l-27 -115h135v-54h-146l-78 -302q-5 -20 -7 -36t-2 -33q0 -46 52 -46q27 0 61 12.5t60 35.5l21 -40q-11 -12 -30.5 -25t-44.5 -23.5t-55 -17t-62 -6.5q-49 0 -76 24t-27 61q0 16 1 33.5t6 36.5l82 326h-92v54zM60 -243q88 24 103 92h-50
q-8 10 -11 20.5t-3 21.5q0 19 7 35t17 26h116q5 -14 6.5 -28t1.5 -27q0 -37 -15 -67t-39 -52t-55 -36.5t-64 -21.5z" />
    <glyph glyph-name="uni0237" unicode="&#x237;" horiz-adv-x="300" 
d="M147 471h-68v54h177l-105 -480q-17 -75 -47.5 -122t-64.5 -75t-66 -40t-50 -17l-16 41q13 6 32.5 16.5t39.5 31.5t39 55.5t31 89.5z" />
    <glyph glyph-name="afii57929" unicode="&#x2bc;" horiz-adv-x="328" 
d="M127 462q22 6 42 19t35.5 29.5t25 35.5t12.5 37h-57q-9 16 -9 35q0 20 9 39.5t23 35.5h111q5 -23 5 -42q0 -41 -16 -77.5t-42.5 -65t-59.5 -48.5t-67 -27z" />
    <glyph glyph-name="circumflex" unicode="&#x2c6;" horiz-adv-x="439" 
d="M180 619l-32 17l195 196h29l56 -195l-32 -18l-70 112z" />
    <glyph glyph-name="caron" unicode="&#x2c7;" horiz-adv-x="437" 
d="M463 806l32 -17l-199 -195h-29l-77 194l40 18l79 -110z" />
    <glyph glyph-name="breve" unicode="&#x2d8;" horiz-adv-x="441" 
d="M490 756q-10 -24 -29 -47t-43.5 -41t-52.5 -29.5t-56 -11.5q-30 0 -52 10t-37 28t-24 42t-13 51l32 14q11 -31 35.5 -50t59.5 -19q50 0 87 14.5t66 50.5z" />
    <glyph glyph-name="dotaccent" unicode="&#x2d9;" horiz-adv-x="353" 
d="M207 687q0 29 20.5 46t52.5 17q34 0 53.5 -17t19.5 -46t-19.5 -46t-53.5 -17q-32 0 -52.5 17t-20.5 46z" />
    <glyph glyph-name="ring" unicode="&#x2da;" horiz-adv-x="398" 
d="M174 717q0 43 32 72.5t81 29.5q45 0 75.5 -26.5t30.5 -72.5q0 -21 -9 -39t-23.5 -31t-34 -20.5t-40.5 -7.5q-51 0 -81.5 25.5t-30.5 69.5zM234 719q0 -26 15 -39.5t33 -13.5q22 0 36.5 12t14.5 38q0 29 -14 44t-36 15q-26 0 -37.5 -15t-11.5 -41z" />
    <glyph glyph-name="ogonek" unicode="&#x2db;" horiz-adv-x="470" 
d="M338 21q-26 -9 -51 -20t-44 -25.5t-30.5 -33t-11.5 -42.5q0 -20 12 -36.5t42 -16.5t59 10v-36q-16 -9 -40.5 -15t-44.5 -6q-66 0 -95 23.5t-29 59.5q0 28 15.5 48.5t41.5 36t60.5 28t72.5 25.5h43z" />
    <glyph glyph-name="tilde" unicode="&#x2dc;" horiz-adv-x="418" 
d="M419 705q-36 -34 -66.5 -46.5t-55.5 -12.5q-20 0 -38 5.5t-35 12t-33 12t-33 5.5q-14 0 -29.5 -5.5t-33.5 -20.5l-22 32q42 36 74.5 49t58.5 13q20 0 37.5 -5.5t33.5 -11.5t32 -11.5t33 -5.5q14 0 29 4.5t32 16.5z" />
    <glyph glyph-name="hungarumlaut" unicode="&#x2dd;" horiz-adv-x="627" 
d="M338 806l97 -22v-26l-155 -130l-27 16zM534 806l98 -29v-25l-224 -124l-23 18z" />
    <glyph glyph-name="acutecomb" unicode="&#x301;" horiz-adv-x="2" 
d="M-227 750h126v-41l-196 -117l-28 23z" />
    <glyph glyph-name="uni0394" unicode="&#x394;" horiz-adv-x="728" 
d="M22 0v32l329 668h33l322 -668v-32h-684zM344 559l-241 -497h469z" />
    <glyph glyph-name="uni0394" unicode="&#x2206;" horiz-adv-x="728" 
d="M22 0v32l329 668h33l322 -668v-32h-684zM344 559l-241 -497h469z" />
    <glyph glyph-name="uni03A9" unicode="&#x3a9;" horiz-adv-x="895" 
d="M62 0v146h64v-68h207q-50 16 -95 43.5t-79.5 65.5t-54.5 86t-20 106q0 75 26 136.5t74 105t117 67t155 23.5q87 0 153.5 -23t112 -65t69 -101.5t23.5 -132.5q0 -62 -22 -113t-57 -90.5t-78 -66.5t-85 -41h197v68h63v-146h-319v85q27 10 57.5 34t57 61t44 86.5t17.5 110.5
q0 58 -14 109.5t-43 89.5t-73 60t-103 22q-67 0 -114 -21.5t-76.5 -58.5t-43 -86t-13.5 -104q0 -62 18.5 -113t46.5 -90t60 -64.5t59 -35.5v-85h-331z" />
    <glyph glyph-name="uni03A9" unicode="&#x2126;" horiz-adv-x="895" 
d="M62 0v146h64v-68h207q-50 16 -95 43.5t-79.5 65.5t-54.5 86t-20 106q0 75 26 136.5t74 105t117 67t155 23.5q87 0 153.5 -23t112 -65t69 -101.5t23.5 -132.5q0 -62 -22 -113t-57 -90.5t-78 -66.5t-85 -41h197v68h63v-146h-319v85q27 10 57.5 34t57 61t44 86.5t17.5 110.5
q0 58 -14 109.5t-43 89.5t-73 60t-103 22q-67 0 -114 -21.5t-76.5 -58.5t-43 -86t-13.5 -104q0 -62 18.5 -113t46.5 -90t60 -64.5t59 -35.5v-85h-331z" />
    <glyph glyph-name="pi" unicode="&#x3c0;" horiz-adv-x="681" 
d="M587 50l-11 -50h-186l97 458h-210l-41 -197q-8 -35 -18.5 -71t-23.5 -70t-28 -65t-31 -55h-120q31 39 63 96t60.5 121t50.5 127t33 114h-19q-32 0 -60.5 -15t-60.5 -47l-25 14q12 27 27 48.5t37 36.5t53 22.5t76 7.5h314q36 0 60 0.5t41 3.5t29 8.5t25 14.5l15 -9
q-12 -35 -42.5 -60t-78.5 -25h-14l-86 -408h74z" />
    <glyph glyph-name="afii10023" unicode="&#x401;" horiz-adv-x="635" 
d="M659 700l-35 -164h-64l19 86l-16 22h-245l-55 -259h169l18 15l9 42h64l-36 -171h-64l9 42l-12 16h-169l-58 -273h262l24 20l21 98h64l-37 -174h-548l11 56h91l125 588h-91l12 56h532zM233 796q0 29 18.5 43.5t46.5 14.5q29 0 48 -14.5t19 -43.5q0 -26 -19 -40t-48 -14
q-28 0 -46.5 14t-18.5 40zM485 796q0 29 19 43.5t46 14.5q29 0 48 -14.5t19 -43.5q0 -26 -19 -40t-48 -14q-27 0 -46 14t-19 40z" />
    <glyph glyph-name="afii10051" unicode="&#x402;" horiz-adv-x="844" 
d="M430 0h-295l11 56h105l125 588h-179l-24 -22l-28 -129h-72l44 207h654l-44 -207h-72l28 129l-16 22h-179l-54 -255q38 16 85.5 30.5t112.5 14.5q96 0 137.5 -37.5t41.5 -119.5q0 -71 -24.5 -124t-64.5 -87.5t-91.5 -51.5t-105.5 -17l4 37q32 5 62 23t53.5 48t38 72.5
t14.5 96.5q0 53 -22 79.5t-79 26.5q-47 0 -92.5 -11.5t-79.5 -28.5l-61 -284h78z" />
    <glyph glyph-name="afii10052" unicode="&#x403;" horiz-adv-x="547" 
d="M115 644l12 56h513l-44 -207h-72l28 129l-16 22h-218l-125 -588h108l-12 -56h-310l11 56h91l125 588h-91zM494 914l123 -33v-40l-256 -72l-13 24z" />
    <glyph glyph-name="afii10053" unicode="&#x404;" horiz-adv-x="688" 
d="M559 184h64l-33 -157q-17 -9 -40.5 -16t-49.5 -12.5t-53 -8t-52 -2.5q-98 0 -160.5 23t-97.5 60.5t-48 84.5t-13 96q0 100 30 184.5t86 146t136.5 95.5t182.5 34q73 0 118.5 -10.5t80.5 -27.5l-37 -171h-64l23 105l-10 20q-11 5 -37 12.5t-78 7.5q-54 0 -100.5 -18
t-83.5 -51t-64 -80.5t-42 -106.5h337l-13 -64h-336q-2 -18 -3 -36t-1 -37q0 -43 11.5 -80t37 -64.5t66 -43t97.5 -15.5q36 0 65.5 5.5t43.5 14.5l18 19z" />
    <glyph glyph-name="afii10054" unicode="&#x405;" horiz-adv-x="586" 
d="M102 104l13 -24q7 -6 21 -12.5t31.5 -12t37 -8.5t38.5 -3q87 0 134.5 34t47.5 99q0 39 -21.5 67t-53.5 51t-70 44t-70 46.5t-53.5 58.5t-21.5 79q0 91 69 140t202 49q69 0 114 -9.5t77 -24.5l-2 -7.5t-4 -19.5t-5.5 -27.5t-6.5 -31.5q-8 -38 -18 -85h-64l22 107l-11 25
q-17 8 -49 12.5t-67 4.5q-75 0 -110 -30t-35 -72q0 -35 21.5 -60.5t53.5 -48t70 -44t70 -48t53.5 -61.5t21.5 -83q0 -50 -20 -90.5t-58.5 -69.5t-95.5 -45t-131 -16q-35 0 -67.5 5t-59.5 13t-47.5 17t-32.5 18l38 182h64z" />
    <glyph glyph-name="afii10055" unicode="&#x406;" horiz-adv-x="389" 
d="M293 0h-294l12 56h91l125 588h-91l12 56h294l-12 -56h-91l-125 -588h91z" />
    <glyph glyph-name="afii10056" unicode="&#x407;" horiz-adv-x="389" 
d="M137 796q0 29 18.5 43.5t46.5 14.5q29 0 48 -14.5t19 -43.5q0 -26 -19 -40t-48 -14q-28 0 -46.5 14t-18.5 40zM338 796q0 29 19 43.5t46 14.5q29 0 48 -14.5t19 -43.5q0 -26 -19 -40t-48 -14q-27 0 -46 14t-19 40zM293 0h-294l12 56h91l125 588h-91l12 56h294l-12 -56
h-91l-125 -588h91z" />
    <glyph glyph-name="afii10057" unicode="&#x408;" horiz-adv-x="370" 
d="M-41 -113q18 8 36.5 20.5t35 34t31 54.5t25.5 82l121 566h-83l12 56h286l-12 -56h-91l-118 -556q-15 -71 -43.5 -117t-61.5 -73t-66.5 -40t-58.5 -18z" />
    <glyph glyph-name="afii10058" unicode="&#x409;" horiz-adv-x="1037" 
d="M651 417q21 4 50.5 5.5t52.5 1.5q56 0 102 -9.5t79 -30t51 -52.5t18 -77q0 -64 -26.5 -112.5t-73.5 -80.5t-113.5 -48.5t-145.5 -16.5q-5 0 -21.5 0.5t-37 1t-43 1t-39.5 0.5h-143l10 56h91l125 588h-209q-24 -94 -45 -167t-40.5 -129t-37.5 -98.5t-35 -75t-34 -58
t-34 -48.5q-13 -17 -30 -34t-35 -34h-115l26 126h116q21 25 45 66.5t49.5 104t51 148.5t49.5 199h-104l12 56h594l-12 -56h-100zM717 368q-27 0 -45 -2t-33 -4l-64 -304q6 -1 16.5 -2t22 -1.5t22.5 -1t17 -0.5q40 0 80 10t72.5 33.5t53 61t20.5 91.5q0 25 -7.5 47t-26 38
t-49.5 25t-79 9z" />
    <glyph glyph-name="afii10059" unicode="&#x40a;" horiz-adv-x="1103" 
d="M727 397q21 3 50 5t52 2q55 0 99.5 -11t76 -33t48.5 -53.5t17 -73.5q0 -117 -90.5 -176.5t-253.5 -59.5q-6 0 -22 0.5t-36.5 1t-42.5 1t-39 0.5h-138l11 56h83l59 275h-350l-59 -275h83l-11 -56h-285l10 56h91l125 588h-91l12 56h286l-12 -56h-83l-54 -257h350l54 257
h-83l12 56h296l-12 -56h-101zM791 348q-26 0 -43.5 -2t-32.5 -4l-60 -284q4 -2 14.5 -2.5t22.5 -1.5t23 -1h17q38 0 76 9t68.5 30.5t49.5 57t19 89.5q0 22 -7 42t-25 35t-47.5 23.5t-74.5 8.5z" />
    <glyph glyph-name="afii10060" unicode="&#x40b;" horiz-adv-x="876" 
d="M419 0h-295l12 56h105l125 588h-179l-24 -22l-28 -129h-72l44 207h654l-44 -207h-72l28 129l-16 22h-179l-54 -256q34 16 82 30.5t111 14.5q81 0 124.5 -37.5t43.5 -108.5q0 -14 -1.5 -28.5t-5.5 -30.5l-37 -172h91l-12 -56h-203l43 205q9 42 9 73q0 50 -24 74.5
t-80 24.5q-48 0 -82.5 -12t-69.5 -29l-60 -280h78z" />
    <glyph glyph-name="afii10061" unicode="&#x40c;" horiz-adv-x="702" 
d="M323 382l269 262h-81l12 56h253l-12 -56h-79l-290 -264l205 -324h63l-12 -56h-150l-189 332h-60l-59 -276h83l-12 -56h-285l11 56h91l125 588h-91l12 56h286l-12 -56h-83l-56 -262h61zM539 914l123 -33v-40l-256 -72l-13 24z" />
    <glyph glyph-name="afii10062" unicode="&#x40e;" horiz-adv-x="732" 
d="M660 644h-93l12 56h255l-12 -56h-81l-271 -425q-21 -32 -49 -68t-56.5 -67t-53.5 -54t-40 -30h-97l26 123h117q7 6 15.5 14.5t16.5 17.5t14.5 17.5t9.5 14.5l-198 457h-85l12 56h297l-12 -56h-90l121 -309l19 -69h4l35 66zM484 743q-93 0 -135.5 33.5t-42.5 103.5h126
v-68q7 -8 24.5 -11t31.5 -3q22 0 45.5 3t44.5 12t38.5 25t27.5 42h61q-8 -30 -25 -55t-44 -43.5t-64.5 -28.5t-87.5 -10z" />
    <glyph glyph-name="afii10145" unicode="&#x40f;" horiz-adv-x="798" 
d="M532 56l125 588h-83l12 56h285l-11 -56h-91l-125 -588h91l-12 -56h-323l-72 -200h-50l16 200h-315l12 56h91l125 588h-91l12 56h286l-12 -56h-83l-125 -588h338z" />
    <glyph glyph-name="afii10017" unicode="&#x410;" horiz-adv-x="745" 
d="M193 0h-243l12 56h76l394 644h106l98 -644h74l-12 -56h-283l12 56h89l-27 176h-264l-106 -176h86zM260 288h224l-31 231q-1 3 -1 19.5t-1 36.5q-1 22 -1 50h-4l-54 -108z" />
    <glyph glyph-name="afii10018" unicode="&#x411;" horiz-adv-x="665" 
d="M264 398q21 3 57 5t66 2q107 0 168 -42t61 -129q0 -57 -27 -101.5t-74.5 -74.5t-111.5 -45.5t-138 -15.5q-6 0 -22.5 0.5t-38 1t-44.5 1t-40 0.5h-141l10 56h91l125 588h-91l12 56h537l-39 -183h-72l23 105l-16 22h-242zM340 349q-26 0 -49.5 -1.5t-38.5 -4.5l-59 -285
q5 -2 15.5 -2.5t22.5 -1.5t23 -1h17q48 0 90 11t72.5 33t48.5 55.5t18 78.5q0 26 -8.5 47.5t-27.5 37.5t-49.5 24.5t-74.5 8.5z" />
    <glyph glyph-name="afii10019" unicode="&#x412;" horiz-adv-x="676" 
d="M-21 0l11 56h91l125 588h-91l12 56h129q21 0 41 1t42 2t47 2t55 1q45 0 85.5 -7.5t70.5 -24.5t47.5 -44.5t17.5 -67.5q0 -78 -51 -126.5t-134 -61.5v-4q25 -2 51 -10.5t48 -26.5t36 -45.5t14 -66.5q0 -56 -26 -98t-72.5 -71t-110.5 -43.5t-139 -14.5q-39 0 -88 3t-94 3
h-117zM298 50q40 0 78 10.5t68 32t48 53.5t18 75q0 62 -47 85.5t-129 23.5h-83l-57 -271q14 -4 36 -6.5t68 -2.5zM317 383q20 0 45.5 1.5t42.5 3.5q42 13 69 31.5t43 40.5t22.5 46.5t6.5 48.5q0 41 -28.5 68t-99.5 27q-34 0 -58.5 -1.5t-41.5 -3.5l-56 -262h55z" />
    <glyph glyph-name="afii10020" unicode="&#x413;" horiz-adv-x="547" 
d="M115 644l12 56h513l-44 -207h-72l28 129l-16 22h-218l-125 -588h108l-12 -56h-310l11 56h91l125 588h-91z" />
    <glyph glyph-name="afii10021" unicode="&#x414;" horiz-adv-x="759" 
d="M806 644h-91l-125 -588h104l-47 -218h-75l30 140l-15 22h-542l-25 -22l-30 -140h-74l47 218h97q39 42 78 108t74.5 144.5t64 165t45.5 170.5h-108l12 56h592zM478 56l125 588h-211q-32 -124 -66 -220t-68 -167.5t-65 -120.5t-56 -80h341z" />
    <glyph glyph-name="afii10022" unicode="&#x415;" horiz-adv-x="635" 
d="M659 700l-35 -164h-64l19 86l-16 22h-245l-55 -259h169l18 15l9 42h64l-36 -171h-64l9 42l-12 16h-169l-58 -273h262l24 20l21 98h64l-37 -174h-548l11 56h91l125 588h-91l12 56h532z" />
    <glyph glyph-name="afii10024" unicode="&#x416;" horiz-adv-x="1037" 
d="M412 332l-299 -332h-159l12 56h59q90 90 160 161l59 59t51.5 52t36.5 37l14 14l-164 265h-78l12 56h242l-12 -56h-75l143 -262h78l56 262h-77l12 56h262l-12 -56h-77l-56 -262h75l245 262h-80l12 56h259l-12 -56h-85l-274 -268l202 -320h60l-12 -56h-144l-184 332h-72
l-59 -276h77l-12 -56h-262l12 56h77l59 276h-70z" />
    <glyph glyph-name="afii10025" unicode="&#x417;" horiz-adv-x="616" 
d="M235 -12q-42 0 -78 6t-64 15.5t-47 20.5t-27 20q0 1 5.5 27.5t12.5 57.5l18 82h64l-25 -121l11 -19q22 -14 55 -23.5t65 -9.5q100 0 156 50.5t56 132.5q0 53 -36 77t-102 24h-89l14 64h130q63 19 97.5 64t34.5 99q0 19 -6 37.5t-20.5 32.5t-39 22.5t-61.5 8.5
q-17 0 -35 -1.5t-34.5 -4.5t-30 -6.5t-20.5 -7.5l-17 -19l-21 -99h-64l33 153q21 11 47 18.5t53 12.5t54.5 7.5t51.5 2.5q46 0 87 -8t72 -26t49 -47t18 -70q0 -27 -10 -55.5t-31 -54t-54 -46.5t-80 -31v-4q23 -5 45.5 -15t40.5 -27t29 -41.5t11 -57.5q0 -63 -27.5 -108.5
t-72 -75t-101.5 -43.5t-117 -14z" />
    <glyph glyph-name="afii10026" unicode="&#x418;" horiz-adv-x="823" 
d="M265 0h-286l11 56h91l125 588h-91l12 56h287l-12 -56h-84l-91 -429l-28 -75l67 81l417 401l4 22h-91l12 56h288l-12 -56h-91l-125 -588h91l-12 -56h-288l12 56h85l91 428l27 75l-62 -77l-422 -406l-4 -20h91z" />
    <glyph glyph-name="afii10027" unicode="&#x419;" horiz-adv-x="823" 
d="M265 0h-286l11 56h91l125 588h-91l12 56h287l-12 -56h-84l-91 -429l-28 -75l67 81l417 401l4 22h-91l12 56h288l-12 -56h-91l-125 -588h91l-12 -56h-288l12 56h85l91 428l27 75l-62 -77l-422 -406l-4 -20h91zM501 743q-93 0 -135.5 33.5t-42.5 103.5h126v-68
q7 -8 24.5 -11t31.5 -3q22 0 45.5 3t44.5 12t38.5 25t27.5 42h61q-8 -30 -25 -55t-44 -43.5t-64.5 -28.5t-87.5 -10z" />
    <glyph glyph-name="afii10028" unicode="&#x41a;" horiz-adv-x="702" 
d="M323 382l269 262h-81l12 56h253l-12 -56h-79l-290 -264l205 -324h63l-12 -56h-150l-189 332h-60l-59 -276h83l-12 -56h-285l11 56h91l125 588h-91l12 56h286l-12 -56h-83l-56 -262h61z" />
    <glyph glyph-name="afii10029" unicode="&#x41b;" horiz-adv-x="729" 
d="M378 644q-24 -94 -45 -167t-40.5 -129t-37.5 -98.5t-35 -75t-34 -58t-34 -48.5q-13 -17 -30 -34t-35 -34h-115l26 126h116q21 25 45 66.5t49.5 104t51 148.5t49.5 199h-104l12 56h585l-12 -56h-91l-125 -588h91l-12 -56h-289l12 56h86l125 588h-209z" />
    <glyph glyph-name="afii10030" unicode="&#x41c;" horiz-adv-x="974" 
d="M115 644l12 56h227l139 -441l336 441h218l-12 -56h-91l-125 -588h91l-12 -56h-290l12 56h91l95 446q1 3 6 21.5t10 39.5l14 56h-9l-66 -107l-282 -362h-61l-123 362l-19 117h-10l-12 -60q-5 -23 -9 -43t-5 -24l-95 -446h85l-12 -56h-239l11 56h91l125 588h-91z" />
    <glyph glyph-name="afii10031" unicode="&#x41d;" horiz-adv-x="810" 
d="M276 56l-12 -56h-285l11 56h91l125 588h-91l12 56h286l-12 -56h-83l-54 -257h350l54 257h-83l12 56h286l-12 -56h-91l-125 -588h91l-12 -56h-285l11 56h83l59 275h-350l-59 -275h83z" />
    <glyph glyph-name="afii10032" unicode="&#x41e;" horiz-adv-x="820" 
d="M76 283q0 81 25.5 158.5t78 137.5t132.5 96.5t188 36.5q67 0 123 -19.5t95.5 -56.5t61.5 -89t22 -116q0 -80 -22 -159.5t-71 -142.5t-126 -102t-186 -39q-59 0 -116 17t-103 53t-74 91.5t-28 133.5zM201 282q0 -64 17.5 -109t46 -73.5t65.5 -42t75 -13.5q78 0 130 35.5
t83.5 91.5t45 124.5t13.5 134.5q0 111 -53 168.5t-149 57.5q-71 0 -123 -33t-85.5 -86t-49.5 -120t-16 -135z" />
    <glyph glyph-name="afii10033" unicode="&#x41f;" horiz-adv-x="798" 
d="M318 644l-125 -588h83l-12 -56h-285l11 56h91l125 588h-91l12 56h744l-12 -56h-91l-125 -588h91l-12 -56h-286l12 56h83l125 588h-338z" />
    <glyph glyph-name="afii10034" unicode="&#x420;" horiz-adv-x="657" 
d="M115 644l12 56h112q45 0 95.5 4t99.5 4q55 0 100.5 -10t77.5 -31t50 -53.5t18 -77.5q0 -66 -26 -116t-72.5 -84t-110.5 -51t-139 -17h-18.5t-26.5 0.5t-27.5 1.5t-20.5 2l-46 -216h100l-12 -56h-302l11 56h91l125 588h-91zM251 329q5 -2 14.5 -2.5t20.5 -1.5t21.5 -1
h16.5q46 0 88 12t74 37t50.5 63.5t18.5 92.5q0 56 -38 89.5t-126 33.5q-27 0 -43 -2t-30 -4z" />
    <glyph glyph-name="afii10035" unicode="&#x421;" horiz-adv-x="688" 
d="M559 184h64l-33 -157q-17 -9 -40.5 -16t-49.5 -12.5t-53 -8t-52 -2.5q-98 0 -160.5 23t-97.5 60.5t-48 84.5t-13 96q0 100 30 184.5t86 146t136.5 95.5t182.5 34q73 0 118.5 -10.5t80.5 -27.5l-37 -171h-64l23 105l-10 20q-11 5 -37 12.5t-78 7.5q-68 0 -124 -28
t-96.5 -79.5t-63 -124t-22.5 -161.5q0 -43 11.5 -80t37 -64.5t66 -43t97.5 -15.5q36 0 65.5 5.5t43.5 14.5l18 19z" />
    <glyph glyph-name="afii10036" unicode="&#x422;" horiz-adv-x="688" 
d="M454 0h-318l12 56h103l125 588h-180l-23 -22l-28 -129h-72l44 207h654l-44 -207h-72l28 129l-17 22h-178l-125 -588h103z" />
    <glyph glyph-name="afii10037" unicode="&#x423;" horiz-adv-x="732" 
d="M660 644h-93l12 56h255l-12 -56h-81l-271 -425q-21 -32 -49 -68t-56.5 -67t-53.5 -54t-40 -30h-97l26 123h117q7 6 15.5 14.5t16.5 17.5t14.5 17.5t9.5 14.5l-198 457h-85l12 56h297l-12 -56h-90l121 -309l19 -69h4l35 66z" />
    <glyph glyph-name="afii10038" unicode="&#x424;" horiz-adv-x="875" 
d="M386 603q15 0 38.5 -1t37.5 -3l9 45h-78l12 56h259l-12 -56h-78l-10 -48q21 5 48.5 6t46.5 1q52 0 91.5 -13.5t65 -36.5t38.5 -55.5t13 -69.5q0 -65 -20.5 -123.5t-62 -102t-104 -69t-146.5 -25.5q-6 0 -15.5 0.5t-20 1t-20.5 2t-16 3.5l-13 -59h78l-12 -56h-259l12 56
h78l12 57q-23 -3 -51 -4t-50 -1q-51 0 -88.5 14.5t-62.5 39t-37.5 57.5t-12.5 71q0 65 21 122t62.5 99.5t103.5 67t143 24.5zM611 549q-17 0 -30 -1t-29 -5l-81 -378q11 -2 26 -2.5t25 -0.5q57 0 99.5 21.5t70.5 58t41.5 85.5t13.5 104q0 26 -6 47.5t-21.5 37.5t-42 24.5
t-66.5 8.5zM314 162q14 0 27 1t30 4l80 379q-27 3 -55 3q-57 0 -98.5 -20t-68.5 -55t-40 -82.5t-13 -102.5q0 -25 7 -48t23 -40.5t42.5 -28t65.5 -10.5z" />
    <glyph glyph-name="afii10039" unicode="&#x425;" horiz-adv-x="746" 
d="M542 700h256l-12 -56h-82l-254 -269l162 -319h91l-12 -56h-289l12 56h73l-123 247l-218 -247h77l-12 -56h-254l12 56h83l283 296l-148 292h-89l12 56h296l-12 -56h-80l108 -223l196 223h-88z" />
    <glyph glyph-name="afii10040" unicode="&#x426;" horiz-adv-x="799" 
d="M528 56l125 588h-83l12 56h286l-12 -56h-91l-125 -588h111l-47 -218h-69l30 140l-15 22h-671l12 56h91l125 588h-91l12 56h286l-12 -56h-83l-125 -588h334z" />
    <glyph glyph-name="afii10041" unicode="&#x427;" horiz-adv-x="718" 
d="M573 56h81l-12 -56h-297l12 56h104l54 254q-34 -17 -86 -31t-117 -14q-81 0 -129.5 36.5t-48.5 114.5q0 14 1.5 30.5t5.5 33.5l35 164h-81l12 56h266l-12 -56h-73l-35 -162q-3 -15 -5 -29.5t-2 -27.5q0 -48 25.5 -76t85.5 -28q47 0 90.5 12t78.5 29l60 282h-80l12 56h273
l-12 -56h-81z" />
    <glyph glyph-name="afii10042" unicode="&#x428;" horiz-adv-x="1064" 
d="M115 644l12 56h275l-12 -56h-72l-125 -588h246l125 588h-72l12 56h256l-12 -56h-72l-125 -588h246l125 588h-72l12 56h275l-12 -56h-91l-125 -588h91l-12 -56h-1009l11 56h91l125 588h-91z" />
    <glyph glyph-name="afii10043" unicode="&#x429;" horiz-adv-x="1069" 
d="M116 644l12 56h275l-12 -56h-72l-125 -588h246l125 588h-72l12 56h256l-12 -56h-72l-125 -588h246l125 588h-72l12 56h275l-12 -56h-91l-125 -588h112l-47 -218h-69l30 140l-15 22h-942l12 56h91l125 588h-91z" />
    <glyph glyph-name="afii10044" unicode="&#x42a;" horiz-adv-x="793" 
d="M407 417q21 4 50.5 5.5t52.5 1.5q56 0 102 -9.5t79 -30.5t51 -53t18 -77q0 -64 -26.5 -112t-73.5 -80.5t-113.5 -48.5t-145.5 -16q-5 0 -21.5 0.5t-37 1t-43 1t-39.5 0.5h-143l10 56h91l125 588h-155l-24 -22l-28 -129h-64l44 207h451l-12 -56h-100zM473 368
q-27 0 -45 -2t-33 -4l-64 -304q6 -1 16.5 -2t22 -1.5t22.5 -1t17 -0.5q40 0 80 10t72.5 32.5t53 60t20.5 91.5q0 25 -7.5 47.5t-26 38.5t-49.5 25.5t-79 9.5z" />
    <glyph glyph-name="afii10045" unicode="&#x42b;" horiz-adv-x="942" 
d="M713 644l12 56h290l-12 -56h-91l-125 -588h91l-11 -56h-290l11 56h87l125 588h-87zM269 417q21 4 49.5 5.5t51.5 1.5q113 0 175 -42t62 -128q0 -60 -24.5 -107.5t-69.5 -80.5t-109 -51t-143 -18q-5 0 -21 0.5t-36.5 1t-42.5 1t-39 0.5h-143l10 56h91l125 588h-91l12 56
h303l-12 -56h-100zM333 368q-27 0 -44 -2t-32 -4l-64 -304q6 -1 16 -2t21.5 -1.5t22 -1t16.5 -0.5q38 0 76 10t68.5 33t49.5 60t19 91q0 25 -6.5 47.5t-23 38.5t-45.5 25.5t-74 9.5z" />
    <glyph glyph-name="afii10046" unicode="&#x42c;" horiz-adv-x="655" 
d="M269 417q21 4 50.5 5.5t52.5 1.5q56 0 102 -9.5t79 -30t51 -52.5t18 -77q0 -64 -26.5 -112.5t-73.5 -80.5t-113.5 -48.5t-145.5 -16.5q-5 0 -21.5 0.5t-37 1t-43 1t-39.5 0.5h-143l10 56h91l125 588h-91l12 56h303l-12 -56h-100zM335 368q-27 0 -45 -2t-33 -4l-64 -304
q6 -1 16.5 -2t22 -1.5t22.5 -1t17 -0.5q40 0 80 10t72.5 33.5t53 61t20.5 91.5q0 25 -7.5 47t-26 38t-49.5 25t-79 9z" />
    <glyph glyph-name="afii10047" unicode="&#x42d;" horiz-adv-x="680" 
d="M227 328l14 64h303q1 11 1.5 22t0.5 22q0 104 -49 158t-163 54q-33 0 -59.5 -6t-39.5 -13l-18 -20l-20 -92h-64l33 154q41 23 94 32t101 9q82 0 139 -20.5t93 -56t52.5 -83.5t16.5 -102q0 -101 -29 -185.5t-83.5 -146t-132 -96t-174.5 -34.5q-86 0 -139 18t-73 38l37 173
h64l-25 -113l10 -21q14 -11 43.5 -21t71.5 -10q49 0 97.5 12.5t90 44t72.5 85t43 134.5h-308z" />
    <glyph glyph-name="afii10048" unicode="&#x42e;" horiz-adv-x="1070" 
d="M375 279v25.5t2 26.5h-125l-59 -275h85l-12 -56h-287l11 56h91l125 588h-91l12 56h288l-12 -56h-85l-54 -257h123q14 64 45.5 122.5t80 103.5t114.5 72t150 27q67 0 118 -20.5t86 -57t53 -88.5t18 -115q0 -80 -24.5 -159.5t-73.5 -142.5t-122.5 -102t-171.5 -39
q-57 0 -109 16t-91 51t-62 90t-23 134zM500 282q0 -64 12.5 -109t35 -73.5t54 -42t69.5 -13.5q72 0 121 37t79 94t43 125t13 130q0 107 -40.5 166.5t-129.5 59.5q-65 0 -113 -34.5t-80 -88.5t-48 -120.5t-16 -130.5z" />
    <glyph glyph-name="afii10049" unicode="&#x42f;" horiz-adv-x="703" 
d="M776 700l-12 -56h-91l-125 -588h91l-12 -56h-300l12 56h97l50 236h-112q0 -1 -11.5 -13.5t-29.5 -33t-41 -47t-47 -53.5q-56 -64 -127 -145h-162l12 56h61l241 250q-13 3 -33 12.5t-39 28t-33 47t-14 68.5q0 115 89.5 178t263.5 63q23 0 57.5 -1.5t69.5 -1.5h145z
M418 343q20 0 43 1t37 4l63 294q-11 2 -31.5 3.5t-37.5 1.5q-49 0 -88.5 -10.5t-68 -32.5t-44 -57t-15.5 -84q0 -33 11.5 -56t31 -37.5t45 -20.5t54.5 -6z" />
    <glyph glyph-name="afii10065" unicode="&#x430;" horiz-adv-x="591" 
d="M220 54q19 0 42 11.5t45.5 29.5t42 40.5t32.5 44.5l53 272q-10 13 -29.5 21t-44.5 8q-51 0 -90 -28.5t-66 -74.5t-41 -102.5t-14 -111.5q0 -110 70 -110zM370 117q-10 -17 -28 -39t-43.5 -41.5t-57.5 -33t-69 -13.5q-57 0 -91.5 39t-34.5 117q0 74 21 144t61 124.5
t98.5 87.5t134.5 33q28 0 53.5 -10.5t36.5 -23.5l16 24h77l-94 -471h82v-54h-177l21 117h-6z" />
    <glyph glyph-name="afii10066" unicode="&#x431;" horiz-adv-x="569" 
d="M44 201q0 73 13 146t40 137t68 114.5t97 78.5t118 36t128 12l35 55h54l-46 -146q-88 0 -155.5 -5t-118.5 -29t-88 -74t-64 -140h5q50 70 112 99.5t131 29.5q70 0 113.5 -47.5t43.5 -130.5q0 -63 -20.5 -125t-58.5 -111.5t-92 -80t-121 -30.5q-89 0 -141.5 51.5
t-52.5 159.5zM323 448q-46 0 -85.5 -26t-67.5 -60q-13 -40 -20.5 -81.5t-7.5 -79.5q0 -34 6.5 -64t19.5 -52t33.5 -35t49.5 -13q31 0 61.5 23t54.5 62t39 91t15 111q0 61 -26.5 92.5t-71.5 31.5z" />
    <glyph glyph-name="afii10067" unicode="&#x432;" horiz-adv-x="558" 
d="M508 436q0 -49 -39.5 -84.5t-112.5 -60.5q37 -2 62 -12t40.5 -25t22 -33t6.5 -34q0 -34 -17.5 -69t-49.5 -63.5t-76 -46.5t-98 -18q-50 0 -87.5 13t-63 36.5t-38.5 55t-13 68.5q0 55 11 103t30.5 88t46 71.5t57.5 54.5q33 24 79 39.5t109 15.5q27 0 51 -6t41.5 -18.5
t28 -31t10.5 -43.5zM383 169q0 43 -23 63.5t-76 28.5q-12 -2 -28 -3.5t-33 -3t-34.5 -3t-32.5 -2.5q-8 -30 -8 -77q0 -60 26.5 -97.5t83.5 -37.5q22 0 44.5 9t40.5 26t29 41.5t11 55.5zM356 488q-29 0 -57 -10.5t-53.5 -33.5t-47 -61t-37.5 -93q51 0 95.5 11.5t78 31
t52.5 45.5t19 54q0 22 -11 39t-39 17z" />
    <glyph glyph-name="afii10068" unicode="&#x433;" horiz-adv-x="431" 
d="M17 100q0 36 20.5 65.5t52 55t67.5 48.5t67.5 46.5t52 48t20.5 52.5q0 21 -10.5 38t-36.5 17q-22 0 -43 -8.5t-40 -20.5t-34.5 -25t-25.5 -23l-28 34q9 16 29 35t47 35t58.5 26.5t64.5 10.5q32 0 56 -8t39.5 -21.5t23.5 -31t8 -36.5q0 -39 -20.5 -70t-52 -56.5t-67.5 -48
t-67.5 -45t-52 -46.5t-20.5 -52q0 -27 16 -46.5t48 -19.5q27 0 52 9t45.5 21.5t36.5 26t26 23.5l34 -31q-14 -19 -37.5 -39t-54 -36.5t-67.5 -27t-79 -10.5q-26 0 -49 8t-40.5 22.5t-28 35t-10.5 44.5z" />
    <glyph glyph-name="afii10069" unicode="&#x434;" horiz-adv-x="548" 
d="M32 177q0 69 23 132t65 111t102 76.5t134 28.5q20 0 39.5 -4.5t31.5 -12.5q0 33 -7 65t-23.5 57t-43 40.5t-64.5 15.5q-35 0 -64.5 -11.5t-54.5 -24.5l-19 37q12 13 32 24.5t44 20t50.5 13.5t51.5 5q43 0 79.5 -15t63.5 -47t42.5 -81t15.5 -117q0 -107 -24.5 -198.5
t-68.5 -158.5t-104 -105t-130 -38q-78 0 -124.5 48.5t-46.5 138.5zM346 471q-59 0 -99 -29.5t-65 -74t-35.5 -97.5t-10.5 -100q0 -23 4.5 -45.5t15 -40.5t28 -29t43.5 -11q34 0 69.5 29t64 82.5t47 128t18.5 165.5q-23 13 -41.5 17.5t-38.5 4.5z" />
    <glyph glyph-name="afii10070" unicode="&#x435;" horiz-adv-x="501" 
d="M435 96q-11 -20 -30 -39t-45 -34t-58 -24t-69 -9q-86 0 -137.5 48.5t-51.5 136.5q0 75 22 141t62 114t96.5 76.5t125.5 28.5q27 0 51 -6.5t42 -19.5t28 -32t10 -44q0 -72 -76 -116t-249 -56q-4 -18 -6 -34t-2 -32q0 -63 32.5 -100.5t95.5 -37.5q20 0 39.5 6t37.5 15.5
t32.5 21.5t23.5 23zM317 488q-47 0 -86 -41.5t-67 -138.5q106 3 162.5 35t56.5 86q0 11 -3 21.5t-10.5 19t-20 13.5t-32.5 5z" />
    <glyph glyph-name="afii10072" unicode="&#x436;" horiz-adv-x="913" 
d="M58 433q30 48 77 73t89 25q25 0 45 -11t33 -30.5t20 -45t7 -53.5q0 -25 -2.5 -50.5t-7.5 -50.5h101l49 235h92l-51 -235h100q30 114 93 177.5t144 63.5q17 0 41 -2.5t37 -10.5l-26 -112h-61l18 70q-3 1 -6.5 1h-6.5q-32 0 -60.5 -23t-49.5 -63.5t-33.5 -96.5t-12.5 -122
q0 -57 17.5 -84t46.5 -27q18 0 43 19t40 45l32 -24q-9 -21 -25 -40t-37 -34t-45.5 -24t-51.5 -9q-32 0 -54.5 11.5t-36.5 31t-20.5 46.5t-6.5 58q0 21 2 48t7 54h-97l-53 -243h-91l52 243h-101q-15 -55 -38.5 -100.5t-54 -78.5t-68 -51.5t-79.5 -18.5q-9 0 -21 1t-23.5 3.5
t-22 6t-16.5 8.5l24 110h60l-16 -74q5 -1 14 -1q34 0 63.5 24t52 66.5t35.5 101t13 128.5q0 96 -55 96q-9 0 -21 -5.5t-24.5 -14t-24.5 -19.5t-20 -22z" />
    <glyph glyph-name="afii10073" unicode="&#x437;" horiz-adv-x="484" 
d="M40 143h64l-19 -72q8 -11 31 -19t56 -8q27 0 53.5 7.5t47.5 22t34 36t13 49.5q0 43 -22.5 60t-63.5 22h-71v54h58q30 9 51.5 23t36 31t21.5 35t7 34q0 32 -21.5 47.5t-75.5 15.5q-21 0 -41.5 -6.5t-39.5 -14.5l-23 -75h-64l26 105q31 20 70.5 32.5t105.5 12.5
q36 0 66.5 -6t53 -18.5t35 -31t12.5 -43.5q0 -99 -148 -150q34 0 59 -9.5t41 -24.5t23.5 -34t7.5 -38q0 -39 -17 -73.5t-49.5 -60.5t-78 -41t-102.5 -15q-46 0 -92 12.5t-73 37.5z" />
    <glyph glyph-name="afii10074" unicode="&#x438;" 
d="M540 54v-54h-184l21 118h-4q-15 -21 -37 -43.5t-49.5 -41t-60 -31t-68.5 -12.5q-46 0 -73 24.5t-27 71.5q0 14 2.5 36.5t8.5 51.5l63 297h-69v54h180l-69 -299q-6 -26 -12 -55.5t-6 -57.5q0 -30 13 -44.5t34 -14.5q34 0 64.5 16t55 37.5t41 44.5t24.5 38l67 335h95
l-91 -471h81z" />
    <glyph glyph-name="afii10075" unicode="&#x439;" 
d="M540 54v-54h-184l21 118h-4q-15 -21 -37 -43.5t-49.5 -41t-60 -31t-68.5 -12.5q-46 0 -73 24.5t-27 71.5q0 14 2.5 36.5t8.5 51.5l63 297h-69v54h180l-69 -299q-6 -26 -12 -55.5t-6 -57.5q0 -30 13 -44.5t34 -14.5q34 0 64.5 16t55 37.5t41 44.5t24.5 38l67 335h95
l-91 -471h81zM355 608q-75 0 -113 24.5t-50 57.5v58h114v-69q13 -9 26 -12.5t39 -3.5q21 0 43 5.5t41 16t33.5 26.5t21.5 37h56q-13 -66 -70.5 -103t-140.5 -37z" />
    <glyph glyph-name="afii10076" unicode="&#x43a;" horiz-adv-x="565" 
d="M235 249h-40l-50 -249h-99l97 471h-78v54h189l-51 -236h33l180 147v89h133v-54l-231 -172l147 -245h57v-54h-149z" />
    <glyph glyph-name="afii10077" unicode="&#x43b;" horiz-adv-x="570" 
d="M415 471h-133q-14 -56 -32.5 -123t-44 -132.5t-57.5 -122.5t-72 -93h-101v96h104q25 30 46.5 74t39.5 94t32.5 103.5t25.5 103.5h-78v54h374l-100 -471h85v-54h-97h-93z" />
    <glyph glyph-name="afii10078" unicode="&#x43c;" horiz-adv-x="783" 
d="M253 471q-10 -54 -25 -121t-36 -133t-49 -123.5t-62 -93.5h-103v96h99q18 22 36 64.5t34 95t29.5 109t22.5 106.5h-64v54h215l25 -390h4l216 390h138l-99 -471h83v-54h-95h-92l103 471h-7l-233 -417h-104l-24 417h-12z" />
    <glyph glyph-name="afii10079" unicode="&#x43d;" horiz-adv-x="610" 
d="M560 525l-98 -471h82v-54h-186l48 239h-210l-53 -239h-96l99 471h-70v54h181l-51 -232h211l48 232h95z" />
    <glyph glyph-name="afii10080" unicode="&#x43e;" horiz-adv-x="564" 
d="M44 195q0 56 18.5 116.5t56 109.5t94 81.5t132.5 32.5q87 0 131 -51t44 -149q0 -69 -21 -131t-59 -109t-91 -76t-118 -29q-85 0 -136 52.5t-51 152.5zM323 488q-35 0 -62 -15t-46 -40.5t-32 -58t-21 -68t-11 -70t-3 -65.5q0 -58 27.5 -96t75.5 -38q38 0 68.5 28t52 71.5
t33 99.5t11.5 115q0 62 -22.5 99.5t-70.5 37.5z" />
    <glyph glyph-name="afii10081" unicode="&#x43f;" horiz-adv-x="610" 
d="M425 299q8 32 14 60.5t6 55.5q0 23 -12 39.5t-36 16.5q-30 0 -57.5 -12t-50.5 -29.5t-40.5 -36.5t-27.5 -33l-78 -360h-97l99 471h-69v54h178l-23 -104h5q42 51 94 82.5t112 31.5q54 0 77.5 -26.5t23.5 -68.5q0 -23 -5.5 -58t-13.5 -65l-63 -263h82v-54h-87h-98z" />
    <glyph glyph-name="afii10082" unicode="&#x440;" horiz-adv-x="599" 
d="M110 -150h76v-50h-186l151 671h-68v54h177l-26 -103h4q16 22 36 42.5t44.5 36.5t53 25t61.5 9q56 0 92 -37.5t36 -119.5q0 -76 -25 -146t-68.5 -124t-102 -86t-125.5 -32q-18 0 -31 1t-23 3.5t-19.5 5.5t-20.5 8zM380 471q-28 0 -53.5 -12t-46 -29.5t-35.5 -38t-22 -38.5
l-65 -295q7 -6 14.5 -10.5t17 -6.5t22.5 -3t32 -1q43 0 81.5 30t67.5 77.5t46.5 106.5t17.5 116q0 50 -19.5 77t-57.5 27z" />
    <glyph glyph-name="afii10083" unicode="&#x441;" horiz-adv-x="472" 
d="M436 99q-28 -52 -80 -80.5t-128 -28.5q-43 0 -77 15.5t-58 41.5t-36.5 61.5t-12.5 74.5q0 78 21 143t61.5 111.5t98.5 72t132 25.5q42 0 78 -10.5t51 -27.5l-30 -119h-70l21 90q-8 7 -26.5 10t-33.5 3q-45 0 -81.5 -19.5t-63 -54.5t-40.5 -84.5t-14 -110.5
q0 -72 33 -113.5t87 -41.5q45 0 79.5 19.5t55.5 48.5z" />
    <glyph glyph-name="afii10084" unicode="&#x442;" horiz-adv-x="883" 
d="M698 315q7 26 13.5 53.5t6.5 44.5q0 26 -12.5 42t-44.5 16q-17 0 -38 -9t-41.5 -22.5t-38 -30.5t-26.5 -33l-92 -376h-92l69 295q8 32 13.5 62.5t5.5 62.5q0 23 -9 37t-31 14t-43.5 -8t-41 -21t-36 -30t-30.5 -36l-86 -376h-98l103 471h-68v54h179l-22 -87h4q12 14 30 31
t41 31.5t51.5 24.5t61.5 10q40 0 65 -22.5t25 -78.5q48 46 97 73.5t106 27.5q97 0 97 -101q0 -27 -5.5 -56t-15.5 -63l-74 -261h83v-54h-190z" />
    <glyph glyph-name="afii10085" unicode="&#x443;" horiz-adv-x="508" 
d="M96 471h-61v54h149l78 -416v-55h8l27 52q17 37 35 79t35.5 84t32.5 82.5t25 76.5l-28 97h123v-54q-16 -44 -39.5 -102.5t-51.5 -122t-60 -129.5t-64.5 -125.5t-65 -109.5t-61.5 -82h-115v96h111q14 17 28.5 39t28.5 65h-49z" />
    <glyph glyph-name="afii10086" unicode="&#x444;" horiz-adv-x="776" 
d="M346 -150h76v-50h-179l60 261q-27 -32 -59.5 -52t-83.5 -20q-24 0 -45 7t-37 24t-25 44.5t-9 68.5q0 91 22.5 165.5t59.5 127t85.5 81t101.5 28.5q25 0 45 -7t34 -18l34 186h-73v54h174l-54 -279q18 24 55.5 44t88.5 20q24 0 45 -7.5t36.5 -25t24.5 -45.5t9 -69
q0 -91 -22.5 -164.5t-60 -125.5t-86.5 -80.5t-101 -28.5q-32 0 -51 11.5t-27 25.5zM573 481q-38 0 -65.5 -17.5t-44.5 -40.5l-72 -366q17 -21 67 -21q37 0 69.5 30.5t56 80t37 112.5t13.5 128q0 51 -17 72.5t-44 21.5zM203 43q13 0 28 5t30 14t28 20.5t22 25.5l71 364
q-12 8 -26.5 12t-39.5 4q-37 0 -69 -30.5t-55 -80t-36.5 -113t-13.5 -128.5q0 -51 16.5 -72t44.5 -21z" />
    <glyph glyph-name="afii10087" unicode="&#x445;" horiz-adv-x="502" 
d="M221 223l-113 -133l16 -90h-129v54l211 212l-76 205h-68v54h156l66 -207l107 116l-8 91h116v-54l-201 -200l84 -217h66v-54h-155z" />
    <glyph glyph-name="afii10088" unicode="&#x446;" horiz-adv-x="601" 
d="M542 54v-54q-13 -8 -22.5 -17t-16.5 -21v-112q-49 -45 -129 -61l-18 38q19 8 34 16t32 21v76q10 18 29 32t34 23v5h-129l21 118h-4q-15 -21 -37 -43.5t-49.5 -41t-60 -31t-68.5 -12.5q-46 0 -73 24.5t-27 71.5q0 14 2.5 36.5t8.5 51.5l63 297h-69v54h180l-70 -299
q-6 -26 -11.5 -55.5t-5.5 -57.5q0 -30 13 -44.5t34 -14.5q34 0 64.5 16t55 37.5t41 44.5t24.5 38l67 335h95l-91 -471h83z" />
    <glyph glyph-name="afii10089" unicode="&#x447;" horiz-adv-x="547" 
d="M476 54v-54h-186l55 248h-5q-47 -43 -91 -66t-101 -23q-38 0 -64 22t-26 68q0 19 2.5 39.5t8 46.5t13 59t18.5 77h-68v54h180q-23 -90 -39.5 -149.5t-16.5 -101.5q0 -22 13 -35t39 -13q18 0 38.5 6.5t40.5 17.5t38 26.5t31 33.5l49 215h94l-103 -471h80z" />
    <glyph glyph-name="afii10090" unicode="&#x448;" horiz-adv-x="863" 
d="M174 210q-6 -26 -11.5 -53.5t-5.5 -44.5q0 -26 13 -42t45 -16q17 0 36.5 9t38.5 22.5t35 30.5t25 33l84 376h92l-63 -295q-7 -32 -12 -62.5t-5 -62.5q0 -23 11 -37t31 -14q22 0 43 8.5t40.5 22t36.5 31t30 36.5l78 373h99l-93 -471h68v-54h-157v96h-4q-13 -18 -31 -37
t-41.5 -34t-52 -25t-61.5 -10q-40 0 -66 22.5t-26 78.5q-48 -46 -92.5 -73.5t-101.5 -27.5q-100 0 -100 101q0 27 5.5 56t13.5 63l64 261h-83v54h190z" />
    <glyph glyph-name="afii10091" unicode="&#x449;" horiz-adv-x="864" 
d="M174 210q-6 -26 -11.5 -53.5t-5.5 -44.5q0 -26 13 -42t45 -16q17 0 36.5 9t38.5 22.5t35 30.5t25 33l84 376h92l-63 -295q-7 -32 -12 -62.5t-5 -62.5q0 -23 11 -37t31 -14q22 0 43 8.5t40.5 22t36.5 31t30 36.5l78 373h99l-93 -471h83v-54q-13 -8 -22.5 -17t-16.5 -21
v-112q-49 -45 -129 -61l-18 38q19 8 34 16t32 21v76q10 18 29 32t34 23v5h-115v96h-4q-13 -18 -31 -37t-41.5 -34t-52 -25t-61.5 -10q-40 0 -66 22.5t-26 78.5q-48 -46 -92.5 -73.5t-101.5 -27.5q-100 0 -100 101q0 27 5.5 56t13.5 63l64 261h-83v54h190z" />
    <glyph glyph-name="afii10092" unicode="&#x44a;" horiz-adv-x="517" 
d="M212 277q33 25 73 41t92 16q17 0 35.5 -6t33.5 -18.5t25 -32t10 -47.5q0 -48 -23 -91.5t-60.5 -76.5t-85.5 -52.5t-98 -19.5q-26 0 -51.5 7t-46.5 23.5t-34 43.5t-13 67q0 41 18.5 86t47 88t64 81.5t68.5 66.5h-161l-26 -80h-57l23 152h317v-54q-40 -28 -79 -72.5
t-76 -121.5h4zM185 216q-11 -29 -14.5 -49.5t-3.5 -40.5q0 -38 18 -63.5t52 -25.5q30 0 57 14t46.5 37.5t31 53t11.5 60.5q0 18 -7 30.5t-17.5 20t-22.5 11t-22 3.5q-38 0 -75 -14t-54 -37z" />
    <glyph glyph-name="afii10093" unicode="&#x44b;" horiz-adv-x="743" 
d="M179 229q-10 -29 -17 -60t-7 -59q0 -36 13 -54.5t46 -18.5q30 0 54.5 16t42.5 41t27.5 56.5t9.5 62.5q0 18 -6.5 30t-16.5 19.5t-21.5 11t-20.5 3.5q-38 0 -62.5 -14t-41.5 -34zM194 282q26 25 61.5 43.5t88.5 18.5q17 0 35 -5.5t33 -18t24.5 -32t9.5 -47.5
q0 -47 -21 -92t-57.5 -80t-85.5 -57t-104 -22q-25 0 -47 6.5t-38.5 20.5t-26 35.5t-9.5 51.5q0 34 10 78.5t25.5 93t33.5 99t34 96.5h-69v54h192q-14 -33 -25.5 -61t-22.5 -55.5t-22.5 -58t-23.5 -68.5h5zM694 525l-107 -471h83v-54h-193l119 525h98z" />
    <glyph glyph-name="afii10094" unicode="&#x44c;" horiz-adv-x="493" 
d="M179 229q-10 -29 -17 -60t-7 -59q0 -35 19 -54t52 -19q30 0 56 16t45.5 41t31 56.5t11.5 62.5q0 18 -7 30t-17 19.5t-21.5 11t-21.5 3.5q-38 0 -72 -15.5t-52 -32.5zM195 282q30 25 73.5 43.5t96.5 18.5q17 0 35 -5.5t33 -18t25 -32t10 -47.5q0 -47 -23 -92.5
t-61.5 -80.5t-89 -56.5t-105.5 -21.5q-60 0 -96 27t-36 87q0 34 10.5 78.5t26 93t33.5 99t34 96.5h-70v54h192q-13 -33 -24.5 -61t-22.5 -55.5t-22 -58t-23 -68.5h4z" />
    <glyph glyph-name="afii10095" unicode="&#x44d;" horiz-adv-x="513" 
d="M268 535q97 0 152 -49.5t55 -143.5q0 -77 -24 -141.5t-65 -111t-96.5 -73t-119.5 -26.5q-46 0 -92 12.5t-73 37.5l29 103h64l-20 -72q8 -11 31.5 -19t56.5 -8q31 0 61.5 11t56.5 34t45.5 59.5t28.5 87.5h-203v64h211q1 5 1 10.5v10.5q0 27 -6.5 55.5t-21.5 51.5t-39 38
t-58 15q-27 0 -49 -5t-41 -16l-20 -75h-64l24 105q31 20 70.5 32.5t105.5 12.5z" />
    <glyph glyph-name="afii10096" unicode="&#x44e;" horiz-adv-x="793" 
d="M290 195v21.5t2 22.5h-97l-52 -239h-97l98 471h-68v54h180l-51 -232h97q12 47 35 90.5t57 77.5t79 54t101 20q175 0 175 -197q0 -69 -21.5 -132t-60 -111t-92.5 -76.5t-118 -28.5q-77 0 -122 51t-45 154zM553 488q-31 0 -55.5 -15t-43 -40t-31 -57t-20.5 -67.5t-11.5 -71
t-3.5 -66.5q0 -61 24 -97.5t64 -36.5q38 0 69 27.5t53.5 72t34.5 101.5t12 116q0 62 -22 98t-70 36z" />
    <glyph glyph-name="afii10097" unicode="&#x44f;" horiz-adv-x="565" 
d="M409 477q-14 5 -33.5 8t-42.5 3q-32 0 -59.5 -11t-48 -30t-32.5 -45t-12 -57q0 -39 41.5 -64t109.5 -25h26zM199 231q-20 4 -41.5 14.5t-39.5 26.5t-29.5 37t-11.5 47q0 39 19 71.5t54.5 56.5t87.5 37.5t118 13.5q42 0 82 -6t71 -15l-97 -460h84v-54h-190l45 216h-63
l-177 -216h-133v54h54z" />
    <glyph glyph-name="afii10071" unicode="&#x451;" horiz-adv-x="501" 
d="M435 96q-11 -20 -30 -39t-45 -34t-58 -24t-69 -9q-86 0 -137.5 48.5t-51.5 136.5q0 75 22 141t62 114t96.5 76.5t125.5 28.5q27 0 51 -6.5t42 -19.5t28 -32t10 -44q0 -72 -76 -116t-249 -56q-4 -18 -6 -34t-2 -32q0 -63 32.5 -100.5t95.5 -37.5q20 0 39.5 6t37.5 15.5
t32.5 21.5t23.5 23zM317 488q-47 0 -86 -41.5t-67 -138.5q106 3 162.5 35t56.5 86q0 11 -3 21.5t-10.5 19t-20 13.5t-32.5 5zM161 688q0 29 17.5 46.5t46.5 17.5q28 0 45.5 -17.5t17.5 -46.5q0 -27 -17.5 -44.5t-45.5 -17.5q-29 0 -46.5 17.5t-17.5 44.5zM408 688
q0 29 18 46.5t46 17.5q29 0 46 -17.5t17 -46.5q0 -27 -17 -44.5t-46 -17.5q-28 0 -46 17.5t-18 44.5z" />
    <glyph glyph-name="afii10099" unicode="&#x452;" horiz-adv-x="580" 
d="M81 593h82l22 103h-72v54h181l-36 -157h193l-13 -51h-191l-35 -154h6q38 39 85 66.5t113 27.5q102 0 102 -120q0 -29 -5.5 -61.5t-13.5 -62.5l-55 -228q-14 -59 -43 -99t-61 -65.5t-63 -38.5t-50 -16l-16 41q13 6 32 16t38.5 29.5t38 51t29.5 78.5l51 213q8 32 14 61
t6 55q0 37 -15.5 58t-47.5 21q-23 0 -45 -6.5t-42 -16.5t-37 -23t-29 -26l-71 -343h-96l115 542h-86z" />
    <glyph glyph-name="afii10100" unicode="&#x453;" horiz-adv-x="431" 
d="M17 100q0 36 20.5 65.5t52 55t67.5 48.5t67.5 46.5t52 48t20.5 52.5q0 21 -10.5 38t-36.5 17q-22 0 -43 -8.5t-40 -20.5t-34.5 -25t-25.5 -23l-28 34q9 16 29 35t47 35t58.5 26.5t64.5 10.5q32 0 56 -8t39.5 -21.5t23.5 -31t8 -36.5q0 -39 -20.5 -70t-52 -56.5t-67.5 -48
t-67.5 -45t-52 -46.5t-20.5 -52q0 -27 16 -46.5t48 -19.5q27 0 52 9t45.5 21.5t36.5 26t26 23.5l34 -31q-14 -19 -37.5 -39t-54 -36.5t-67.5 -27t-79 -10.5q-26 0 -49 8t-40.5 22.5t-28 35t-10.5 44.5zM348 750h126v-41l-196 -117l-28 23z" />
    <glyph glyph-name="afii10101" unicode="&#x454;" horiz-adv-x="472" 
d="M436 99q-28 -52 -80 -80.5t-128 -28.5q-43 0 -77 15.5t-58 41.5t-36.5 61.5t-12.5 74.5q0 78 21 143t61.5 111.5t98.5 72t132 25.5q42 0 75 -8.5t54 -29.5l-30 -119h-70l21 90q-11 7 -28 10t-32 3q-75 0 -126 -51.5t-67 -140.5h208v-54h-214v-23q0 -72 33 -113.5
t87 -41.5q45 0 79.5 19.5t55.5 48.5z" />
    <glyph glyph-name="afii10102" unicode="&#x455;" horiz-adv-x="471" 
d="M183 44q18 0 38.5 3.5t37.5 12.5t28 24.5t11 39.5q0 25 -15.5 44t-38.5 36.5t-50.5 35t-50.5 38t-38.5 46.5t-15.5 61q0 37 17 65.5t46 47t69 28t85 9.5q21 0 41.5 -3t38 -7.5t30.5 -10.5t19 -11l-30 -117h-62l17 82q-8 6 -28.5 9.5t-35.5 3.5q-16 0 -34.5 -2.5
t-34.5 -10t-26.5 -21t-10.5 -35.5q0 -27 15.5 -47t39.5 -37t51 -34t51 -37.5t39.5 -47t15.5 -63.5q0 -38 -20 -67t-53 -49t-76.5 -30t-89.5 -10q-26 0 -51.5 5t-47 12.5t-37 16t-21.5 14.5l38 119h68l-26 -83q11 -11 36 -20.5t61 -9.5z" />
    <glyph glyph-name="afii10103" unicode="&#x456;" horiz-adv-x="307" 
d="M76 471v54h181l-104 -471h82v-54h-193l107 471h-73zM143 687q0 29 20.5 46t52.5 17q34 0 53.5 -17t19.5 -46t-19.5 -46t-53.5 -17q-32 0 -52.5 17t-20.5 46z" />
    <glyph glyph-name="afii10104" unicode="&#x457;" horiz-adv-x="343" 
d="M77 686q0 30 16.5 47.5t42.5 17.5q28 0 45 -17.5t17 -47.5q0 -28 -17 -45t-45 -17q-27 0 -43 17t-16 45zM257 686q0 30 16.5 47.5t43.5 17.5q28 0 44.5 -17.5t16.5 -47.5q0 -28 -16.5 -45t-44.5 -17t-44 17t-16 45zM95 471v54h181l-104 -471h82v-54h-193l107 471h-73z
" />
    <glyph glyph-name="afii10105" unicode="&#x458;" horiz-adv-x="300" 
d="M147 471h-68v54h177l-105 -480q-17 -75 -47.5 -122t-64.5 -75t-66 -40t-50 -17l-16 41q13 6 32.5 16.5t39.5 31.5t39 55.5t31 89.5zM138 687q0 29 20.5 46t52.5 17q34 0 53.5 -17t19.5 -46t-19.5 -46t-53.5 -17q-32 0 -52.5 17t-20.5 46z" />
    <glyph glyph-name="afii10106" unicode="&#x459;" horiz-adv-x="775" 
d="M540 525q-10 -31 -19 -59.5t-17.5 -57.5t-16 -59.5t-14.5 -66.5h4q30 25 73.5 43.5t96.5 18.5q17 0 35 -5.5t33 -18t25 -32t10 -47.5q0 -47 -23 -92.5t-61.5 -80.5t-89 -56.5t-105.5 -21.5q-60 0 -96 27t-36 87q0 34 8.5 79.5t21 95t26 99.5t24.5 93h-137
q-14 -56 -32.5 -123t-44 -132.5t-57.5 -122.5t-72 -93h-101v96h104q25 30 46.5 74t39.5 94t32.5 103.5t25.5 103.5h-78v54h395zM461 229q-10 -29 -17 -60t-7 -59q0 -35 19 -54t52 -19q30 0 56 16t45.5 41t31 56.5t11.5 62.5q0 18 -7 30t-17 19.5t-21.5 11t-21.5 3.5
q-38 0 -72 -15.5t-52 -32.5z" />
    <glyph glyph-name="afii10107" unicode="&#x45a;" horiz-adv-x="816" 
d="M196 239l-53 -239h-96l99 471h-70v54h181l-51 -232h209l50 232h104q-8 -30 -15 -58.5t-13.5 -57.5t-13 -60t-13.5 -67h4q30 25 73.5 43.5t96.5 18.5q17 0 35 -5.5t33 -18t25 -32t10 -47.5q0 -47 -22 -92.5t-59.5 -80.5t-87.5 -56.5t-105 -21.5q-60 0 -96 27t-36 87
q0 24 6.5 62.5t14.5 72.5h-210zM502 229q-10 -29 -14.5 -60t-4.5 -59q0 -35 19 -54t52 -19q30 0 55.5 16t44 41t29 56.5t10.5 62.5q0 18 -7 30t-17 19.5t-21.5 11t-21.5 3.5q-38 0 -72 -15.5t-52 -32.5z" />
    <glyph glyph-name="afii10108" unicode="&#x45b;" horiz-adv-x="601" 
d="M81 593h82l22 103h-72v54h181l-35 -157h192l-13 -51h-190l-34 -154h6q38 39 85 66.5t113 27.5q102 0 102 -120q0 -29 -6 -61.5t-14 -62.5l-51 -184h85v-54h-187l55 220q8 32 14 61t6 55q0 37 -15.5 58t-47.5 21q-23 0 -45 -6.5t-42 -16.5t-37 -23t-29 -26l-73 -343h-96
l115 542h-86z" />
    <glyph glyph-name="afii10109" unicode="&#x45c;" horiz-adv-x="565" 
d="M235 249h-40l-50 -249h-99l97 471h-78v54h189l-51 -236h33l180 147v89h133v-54l-231 -172l147 -245h57v-54h-149zM414 750h126v-41l-196 -117l-28 23z" />
    <glyph glyph-name="afii10110" unicode="&#x45e;" horiz-adv-x="508" 
d="M96 471h-61v54h149l78 -416v-55h8l27 52q17 37 35 79t35.5 84t32.5 82.5t25 76.5l-28 97h123v-54q-16 -44 -39.5 -102.5t-51.5 -122t-60 -129.5t-64.5 -125.5t-65 -109.5t-61.5 -82h-115v96h111q14 17 28.5 39t28.5 65h-49zM306 608q-75 0 -113 24.5t-50 57.5v58h114v-69
q13 -9 26 -12.5t39 -3.5q21 0 43 5.5t41 16t33.5 26.5t21.5 37h56q-13 -66 -70.5 -103t-140.5 -37z" />
    <glyph glyph-name="afii10193" unicode="&#x45f;" 
d="M540 54v-54h-184l21 118h-4q-15 -21 -37 -43.5t-49.5 -41t-60 -31t-68.5 -12.5q-46 0 -73 24.5t-27 71.5q0 14 2.5 36.5t8.5 51.5l63 297h-69v54h180l-69 -299q-6 -26 -12 -55.5t-6 -57.5q0 -30 13 -44.5t34 -14.5q34 0 64.5 16t55 37.5t41 44.5t24.5 38l67 335h95
l-91 -471h81zM330 -28q-10 -7 -19.5 -13.5t-19.5 -15.5v-86q-8 -11 -22.5 -21.5t-31 -18.5t-33.5 -14.5t-31 -10.5l-17 35q35 16 55 33v86q20 20 47 33t53 20z" />
    <glyph glyph-name="afii10146" unicode="&#x462;" horiz-adv-x="794" 
d="M174 561l-25 -22l-25 -118h-64l41 196h240l11 48h-91l12 56h303l-12 -56h-100l-11 -48h282l-34 -162h-64l18 84l-15 22h-198l-35 -165q20 3 50 5t53 2q56 0 102.5 -8.5t79.5 -28t51 -50.5t18 -76q0 -69 -32 -116t-82.5 -75t-114 -40t-126.5 -12q-5 0 -17 0.5t-28 1
t-34.5 1t-36.5 0.5h-171l12 56h91l108 505h-156zM473 347q-28 0 -44.5 -1.5t-33.5 -4.5l-60 -283q6 -2 17 -2.5t22.5 -1.5t22 -1h17.5q49 0 90 12.5t70.5 36.5t45.5 58.5t16 78.5q0 23 -7.5 42.5t-26 34t-50 23t-79.5 8.5z" />
    <glyph glyph-name="afii10194" unicode="&#x463;" horiz-adv-x="754" 
d="M452 275q30 35 75.5 52t99.5 17q17 0 35 -5.5t33 -18t24.5 -32t9.5 -47.5q0 -47 -23 -92.5t-61.5 -81.5t-89 -58t-105.5 -22q-60 0 -95.5 27t-35.5 78q0 21 6 50.5t15 62t19.5 66.5t19.5 64t15 53.5t6 35.5q0 47 -32 47q-21 0 -41.5 -9.5t-39.5 -24.5t-35.5 -33.5
t-28.5 -36.5l-78 -367h-99l103 471h-68v54h179l-31 -112h4q15 22 34 43.5t42.5 39t52 28.5t61.5 11q13 0 26.5 -3.5t24 -13t17 -25.5t6.5 -40q0 -17 -5 -38t-12 -44.5t-16 -48t-16 -47.5h4zM444 231q-11 -29 -21.5 -65.5t-10.5 -68.5q0 -26 20.5 -44.5t53.5 -18.5
q30 0 56 16.5t46 42t31.5 57.5t11.5 63q0 18 -7 30t-17 19.5t-21.5 11t-21.5 3.5q-37 0 -68 -13t-52 -33z" />
    <glyph glyph-name="afii10147" unicode="&#x472;" horiz-adv-x="820" 
d="M76 283q0 81 25.5 158.5t78 137.5t132.5 96.5t188 36.5q67 0 123 -19.5t95.5 -56.5t61.5 -89t22 -116q0 -80 -22 -159.5t-71 -142.5t-126 -102t-186 -39q-59 0 -116 17t-103 53t-74 91.5t-28 133.5zM581 356q17 0 43 2t50 13q3 30 3 59q0 111 -53 168.5t-149 57.5
q-63 0 -110 -25.5t-80.5 -68t-53 -97.5t-26.5 -115q31 26 61 42.5t57 24.5q24 7 48 7q29 -1 55 -11.5t51 -23t50 -23t54 -10.5zM201 282q0 -64 17.5 -109t46 -73.5t65.5 -42t75 -13.5q63 0 109 24t77.5 63.5t50.5 90.5t27 106q-36 -28 -71.5 -40t-61.5 -12q-30 0 -57 11
t-53 23.5t-52.5 23.5t-54.5 11q-23 0 -54.5 -7t-63.5 -30v-26z" />
    <glyph glyph-name="afii10195" unicode="&#x473;" horiz-adv-x="564" 
d="M44 195q0 56 18.5 116t56 110t94 82t132.5 32q175 0 175 -197q0 -69 -21 -132t-59 -111t-91 -76.5t-118 -28.5q-85 0 -136 51t-51 154zM323 488q-39 0 -67 -17t-47.5 -45.5t-32 -64.5t-18.5 -74q29 18 54 24.5t42 6.5q18 0 32 -5.5t26 -12.5t24.5 -12.5t27.5 -5.5
q20 0 49 13q3 30 3 59q0 62 -22.5 98t-70.5 36zM201 260q-22 0 -50 -16q-3 -39 -3 -73q0 -61 27.5 -97.5t75.5 -36.5q30 0 55.5 17t45 46.5t33.5 69t22 84.5q-27 -18 -50.5 -25t-43.5 -7q-18 0 -32.5 6t-27.5 13t-25.5 13t-26.5 6z" />
    <glyph glyph-name="afii10148" unicode="&#x474;" horiz-adv-x="759" 
d="M726 700h149l-27 -126h-112l-326 -574h-111l-123 644h-86l12 56h302l-12 -56h-96l81 -467l9 -95h4l50 97z" />
    <glyph glyph-name="afii10196" unicode="&#x475;" horiz-adv-x="535" 
d="M486 427q-60 -94 -112 -203.5t-100 -223.5h-119l-69 471h-69v54h162l55 -406l3 -65h7l23 71q24 55 49 110t50.5 107t52 98.5t53.5 84.5h121q11 -17 11 -48q0 -14 -3 -28t-8 -22h-107z" />
    <glyph glyph-name="uni048A" unicode="&#x48a;" horiz-adv-x="824" 
d="M265 0h-286l11 56h91l125 588h-91l12 56h287l-12 -56h-84l-91 -429l-28 -75l67 81l417 401l4 22h-91l12 56h288l-12 -56h-91l-125 -588h108v-56q-23 -40 -55 -73t-69.5 -59t-80 -45t-85.5 -31l-20 42q67 27 118.5 68.5t80.5 97.5h-206l12 56h85l91 428l27 75l-62 -77
l-422 -406l-4 -20h91zM505 743q-93 0 -135.5 33.5t-42.5 103.5h126v-68q7 -8 24.5 -11t31.5 -3q22 0 45.5 3t44.5 12t38.5 25t27.5 42h61q-8 -30 -25 -55t-44 -43.5t-64.5 -28.5t-87.5 -10z" />
    <glyph glyph-name="uni048B" unicode="&#x48b;" 
d="M459 54h109v-53q-14 -34 -35 -66.5t-51 -60.5t-69 -49t-88 -32l-16 44q59 20 103 61t65 102h-121l21 118h-4q-15 -21 -37 -43.5t-49.5 -41t-60 -31t-68.5 -12.5q-46 0 -73 24.5t-27 71.5q0 14 2.5 36.5t8.5 51.5l63 297h-69v54h180l-69 -299q-6 -26 -12 -55.5t-6 -57.5
q0 -30 13 -44.5t34 -14.5q34 0 64.5 16t55 37.5t41 44.5t24.5 38l67 335h95zM364 608q-75 0 -113 24.5t-50 57.5v58h114v-69q13 -9 26 -12.5t39 -3.5q21 0 43 5.5t41 16t33.5 26.5t21.5 37h56q-13 -66 -70.5 -103t-140.5 -37z" />
    <glyph glyph-name="uni048C" unicode="&#x48c;" horiz-adv-x="692" 
d="M80 570h146l16 74h-91l12 56h303l-12 -56h-100l-16 -74h217l-12 -56h-217l-20 -97q21 4 50.5 5.5t52.5 1.5q56 0 102 -9.5t79 -30t51 -52.5t18 -77q0 -64 -26.5 -112.5t-73.5 -80.5t-113.5 -48.5t-145.5 -16.5q-5 0 -21.5 0.5t-37 1t-43 1t-39.5 0.5h-143l10 56h91
l97 458h-146zM372 368q-27 0 -45 -2t-33 -4l-64 -304q6 -1 16.5 -2t22 -1.5t22.5 -1t17 -0.5q40 0 80 10t72.5 33.5t53 61t20.5 91.5q0 25 -7.5 47t-26 38t-49.5 25t-79 9z" />
    <glyph glyph-name="uni048D" unicode="&#x48d;" horiz-adv-x="494" 
d="M52 525h93l42 171h-69v54h182l-57 -225h183l-14 -54h-182l-45 -203h4q31 32 77.5 54t98.5 22q17 0 35.5 -5.5t33.5 -18t25 -32t10 -47.5q0 -47 -23 -92.5t-62 -80.5t-89.5 -56.5t-105.5 -21.5q-60 0 -95.5 27t-35.5 87q0 17 4.5 50.5t14.5 77.5l54 239h-93zM179 224
q-10 -29 -16.5 -57.5t-6.5 -56.5q0 -35 18 -54t51 -19q30 0 56 16t45 41t30 56.5t11 62.5q0 18 -6 30t-15.5 19.5t-20.5 11t-21 3.5q-38 0 -73 -15t-52 -38z" />
    <glyph glyph-name="uni048E" unicode="&#x48e;" horiz-adv-x="657" 
d="M115 644l12 56h112q45 0 95.5 4t99.5 4q55 0 100.5 -10t77.5 -31t50 -53.5t18 -77.5q0 -93 -49 -153.5t-133 -89.5l39 -78l-49 -25l-44 88q-26 -5 -54.5 -7.5t-57.5 -2.5h-18.5t-26.5 0.5t-27.5 1.5t-20.5 2l-46 -216h100l-12 -56h-302l11 56h91l125 588h-91zM251 329
q5 -2 14.5 -2.5t20.5 -1.5t21.5 -1h16.5q24 0 47 3t44 10l-50 101l49 24l51 -104q41 24 65.5 66t24.5 105q0 56 -38 89.5t-126 33.5q-27 0 -43 -2t-30 -4z" />
    <glyph glyph-name="uni048F" unicode="&#x48f;" horiz-adv-x="599" 
d="M110 -150h76v-50h-186l151 671h-68v54h177l-26 -103h4q16 22 36 42.5t44.5 36.5t53 25t61.5 9q56 0 92 -37.5t36 -119.5q0 -100 -41 -186t-110 -140l73 -97l-48 -32l-72 98q-59 -31 -123 -31q-18 0 -31 1t-23 3.5t-19.5 5.5t-20.5 8zM380 471q-28 0 -53.5 -12t-46 -29.5
t-35.5 -38t-22 -38.5l-65 -295q7 -6 14.5 -10.5t17 -6.5t22.5 -3t32 -1q22 0 43 8.5t41 23.5l-70 96l45 31l64 -87q20 25 36.5 55.5t28.5 64t18.5 68.5t6.5 70q0 50 -19.5 77t-57.5 27z" />
    <glyph glyph-name="afii10050" unicode="&#x490;" horiz-adv-x="512" 
d="M115 644l12 56h394l25 22l24 115h64l-41 -193h-275l-125 -588h108l-12 -56h-310l12 56h90l125 588h-91z" />
    <glyph glyph-name="afii10098" unicode="&#x491;" horiz-adv-x="457" 
d="M402 525l59 122h49l-28 -176h-226l-106 -471h-103l106 471h-66v54h315z" />
    <glyph glyph-name="uni0492" unicode="&#x492;" horiz-adv-x="578" 
d="M126 644l12 56h513l-44 -207h-72l28 129l-16 22h-218l-55 -260h167l-12 -56h-167l-58 -272h108l-12 -56h-311l12 56h91l58 272h-100l12 56h100l55 260h-91z" />
    <glyph glyph-name="uni0493" unicode="&#x493;" horiz-adv-x="518" 
d="M101 471l10 54h407l-37 -175h-64l19 101l-12 20h-155l-46 -205h157l-14 -54h-155l-46 -212h-96l48 212h-92l14 54h90l45 205h-73z" />
    <glyph glyph-name="uni0494" unicode="&#x494;" horiz-adv-x="680" 
d="M116 644l12 56h513l-44 -207h-72l27 129l-15 22h-218l-59 -277q33 16 79.5 30.5t108.5 14.5q97 0 139.5 -41t42.5 -130q0 -87 -26 -164.5t-72.5 -136.5t-112.5 -96t-145 -43l-9 42q67 23 114.5 66.5t76.5 98t42.5 114.5t13.5 116q0 65 -23.5 91.5t-83.5 26.5
q-44 0 -83 -12.5t-73 -28.5l-55 -259h103l-12 -56h-306l12 56h91l125 588h-91z" />
    <glyph glyph-name="uni0495" unicode="&#x495;" horiz-adv-x="538" 
d="M85 471l10 54h407l-37 -175h-64l19 101l-12 20h-155l-55 -246q33 28 72 45t87 17q27 0 49.5 -9.5t39 -26t25.5 -38t9 -46.5q0 -56 -17 -116.5t-52.5 -113.5t-89.5 -93.5t-127 -56.5l-19 46q47 20 85.5 53.5t65.5 75t41.5 88t14.5 91.5q0 15 -5.5 29.5t-14.5 25.5
t-21.5 17.5t-27.5 6.5q-41 0 -68 -10.5t-56 -32.5l-39 -177h-99l105 471h-71z" />
    <glyph glyph-name="uni0496" unicode="&#x496;" horiz-adv-x="1070" 
d="M412 332l-299 -332h-159l12 56h59q90 90 160 161l59 59t51.5 52t36.5 37l14 14l-164 265h-78l12 56h242l-12 -56h-75l143 -262h78l56 262h-77l12 56h262l-12 -56h-77l-56 -262h75l245 262h-80l12 56h259l-12 -56h-85l-274 -268l202 -320h79l-47 -218h-69l30 140l-15 22
h-74l-184 332h-72l-59 -276h77l-12 -56h-262l12 56h77l59 276h-70z" />
    <glyph glyph-name="uni0497" unicode="&#x497;" horiz-adv-x="873" 
d="M58 463q29 35 66.5 51.5t79.5 16.5q25 0 45 -11t33 -30.5t20 -45t7 -53.5q0 -25 -2.5 -50.5t-7.5 -50.5h101l49 235h92l-51 -235h100q30 114 93 177.5t144 63.5q17 0 31 -2.5t27 -10.5v-112h-64v71h-6q-27 0 -53.5 -22.5t-47.5 -62.5t-34 -96.5t-13 -123.5
q0 -57 17.5 -84t46.5 -27q18 0 39.5 6.5t36.5 16.5l20 -48q-13 -8 -28 -30.5t-23 -43.5v-112q-49 -45 -129 -61l-18 38q19 8 34 16t32 21v76q10 18 29 35.5t34 26.5v4q-18 -5 -36.5 -8.5t-34.5 -3.5q-32 0 -54.5 11.5t-36.5 31t-20.5 46.5t-6.5 58q0 21 2 48t7 54h-97
l-53 -243h-91l52 243h-101q-15 -55 -38.5 -100.5t-54 -78.5t-68 -51.5t-79.5 -18.5q-18 0 -34.5 4.5t-28.5 14.5v110h64v-74q3 -1 10 -1q28 0 55 23.5t48.5 64.5t35 96.5t13.5 120.5q0 60 -13 85.5t-42 25.5q-17 0 -38 -11.5t-37 -25.5z" />
    <glyph glyph-name="uni0498" unicode="&#x498;" horiz-adv-x="616" 
d="M553 229q0 -58 -23.5 -101.5t-62.5 -73.5t-89.5 -46t-104.5 -20l-68 -188h-50l15 190q-59 8 -98 26.5t-53 33.5q0 2 5.5 28t12.5 57l18 82h64l-25 -121l11 -19q22 -14 55 -23.5t65 -9.5q100 0 156 50.5t56 132.5q0 53 -36 77t-102 24h-89l14 64h130q63 19 97.5 64
t34.5 99q0 19 -6 37.5t-20.5 32.5t-39 22.5t-61.5 8.5q-17 0 -35 -1.5t-34.5 -4.5t-30 -6.5t-20.5 -7.5l-17 -19l-21 -99h-64l33 153q21 11 47 18.5t53 12.5t54.5 7.5t51.5 2.5q46 0 87 -8t72 -26t49 -47t18 -70q0 -27 -10 -55.5t-31 -54t-54 -46.5t-80 -31v-4
q23 -5 45.5 -15t40.5 -27t29 -41.5t11 -57.5z" />
    <glyph glyph-name="uni0499" unicode="&#x499;" horiz-adv-x="484" 
d="M40 143h64l-19 -72q8 -11 31 -19t56 -8q27 0 53.5 7.5t47.5 22t34 36t13 49.5q0 43 -22.5 60t-63.5 22h-71v54h58q30 9 51.5 23t36 31t21.5 35t7 34q0 32 -21.5 47.5t-75.5 15.5q-21 0 -41.5 -6.5t-39.5 -14.5l-23 -75h-64l26 105q31 20 70.5 32.5t105.5 12.5
q36 0 66.5 -6t53 -18.5t35 -31t12.5 -43.5q0 -99 -148 -150q34 0 59 -9.5t41 -24.5t23.5 -34t7.5 -38q0 -33 -12.5 -62.5t-35.5 -54t-57 -42t-76 -25.5q-9 -7 -16.5 -16t-12.5 -17v-106q-8 -11 -22.5 -21.5t-31 -18.5t-33.5 -14.5t-31 -10.5l-17 35q35 16 55 33v86
q10 12 24 23.5t29 20.5h-10q-46 0 -92 12.5t-73 37.5z" />
    <glyph glyph-name="uni049A" unicode="&#x49a;" horiz-adv-x="702" 
d="M501 0l-189 332h-60l-59 -276h83l-12 -56h-285l11 56h91l125 588h-91l12 56h286l-12 -56h-83l-56 -262h61l269 262h-81l12 56h253l-12 -56h-79l-290 -264l205 -324h78l-47 -218h-69l30 140l-15 22h-76z" />
    <glyph glyph-name="uni049B" unicode="&#x49b;" horiz-adv-x="580" 
d="M235 249h-40l-50 -249h-99l97 471h-78v54h189l-51 -236h33l180 147v89h133v-54l-231 -172l147 -245h83v-54q-13 -8 -22.5 -17t-16.5 -21v-112q-49 -45 -129 -61l-18 38q19 8 34 16t32 21v76q10 18 29 32t34 23v5h-118z" />
    <glyph glyph-name="uni049C" unicode="&#x49c;" horiz-adv-x="788" 
d="M339 382l33 152h62l-33 -152h9l268 262h-81l12 56h253l-12 -56h-79l-293 -268l208 -320h63l-12 -56h-150l-195 332h-1l-32 -150h-62l32 150h-77l-59 -276h83l-12 -56h-285l11 56h91l125 588h-91l12 56h286l-12 -56h-83l-56 -262h77z" />
    <glyph glyph-name="uni049D" unicode="&#x49d;" horiz-adv-x="631" 
d="M345 249h-33l-30 -131h-52l29 131h-64l-50 -249h-99l97 471h-78v54h189l-51 -236h65l31 137h53l-31 -137h25l140 147v89h123v-54l-181 -172l97 -245h57v-54h-149z" />
    <glyph glyph-name="uni049E" unicode="&#x49e;" horiz-adv-x="712" 
d="M65 583h138l13 61h-91l12 56h286l-12 -56h-83l-13 -61h121l-11 -54h-122l-31 -147h65l268 262h-81l12 56h250l-12 -56h-79l-290 -264l205 -324h63l-12 -56h-150l-189 332h-60l-59 -276h83l-12 -56h-285l11 56h91l100 473h-137z" />
    <glyph glyph-name="uni049F" unicode="&#x49f;" horiz-adv-x="533" 
d="M81 643h91l11 53h-73v54h180l-22 -107h183l-13 -51h-181l-62 -303h32l159 159v77h133v-42l-211 -184l136 -245h58v-54h-145l-132 249h-39l-51 -249h-98l124 592h-95z" />
    <glyph glyph-name="uni04A0" unicode="&#x4a0;" horiz-adv-x="840" 
d="M461 382l269 262h-81l12 56h253l-12 -56h-79l-290 -264l205 -324h63l-12 -56h-150l-189 332h-60l-59 -276h83l-12 -56h-285l11 56h91l125 588h-156l-24 -22l-28 -129h-64l44 207h435l-12 -56h-83l-56 -262h61z" />
    <glyph glyph-name="uni04A1" unicode="&#x4a1;" horiz-adv-x="623" 
d="M261 289h33l180 147v89h133v-54l-231 -172l147 -245h57v-54h-149l-138 249h-40l-50 -249h-99l98 471h-106l-22 -98h-61l23 152h276z" />
    <glyph glyph-name="uni04A2" unicode="&#x4a2;" horiz-adv-x="810" 
d="M448 0l12 56h83l59 275h-350l-59 -275h83l-12 -56h-285l11 56h91l125 588h-91l12 56h286l-12 -56h-83l-54 -257h350l54 257h-83l12 56h286l-12 -56h-91l-125 -588h111l-47 -218h-69l30 140l-15 22h-217z" />
    <glyph glyph-name="uni04A3" unicode="&#x4a3;" horiz-adv-x="612" 
d="M560 525l-98 -471h83v-54q-13 -8 -22.5 -17t-16.5 -21v-112q-49 -45 -129 -61l-18 38q19 8 34 16t32 21v76q10 18 29 32t34 23v5h-130l48 239h-210l-53 -239h-96l99 471h-70v54h181l-51 -232h211l48 232h95z" />
    <glyph glyph-name="uni04A4" unicode="&#x4a4;" horiz-adv-x="1009" 
d="M276 56l-12 -56h-285l11 56h91l125 588h-91l12 56h286l-12 -56h-83l-54 -257h350l54 257h-83l12 56h505l-44 -207h-72l28 129l-16 22h-218l-125 -588h108l-12 -56h-311l12 56h91l59 275h-350l-59 -275h83z" />
    <glyph glyph-name="uni04A5" unicode="&#x4a5;" horiz-adv-x="766" 
d="M549 471l-87 -417h82v-54h-186l48 239h-210l-53 -239h-96l99 471h-70v54h181l-51 -232h211l48 232h300l-37 -175h-64l19 101l-12 20h-122z" />
    <glyph glyph-name="uni04A6" unicode="&#x4a6;" horiz-adv-x="1125" 
d="M1080 241q0 -87 -26 -164.5t-72.5 -136.5t-112.5 -96t-145 -43l-9 42q67 23 114.5 66.5t76.5 98t42.5 114.5t13.5 116q0 65 -23.5 91.5t-83.5 26.5q-44 0 -83 -12.5t-73 -28.5l-55 -259h91l-12 -56h-286l12 56h83l125 588h-338l-125 -588h83l-12 -56h-286l12 56h91
l125 588h-91l12 56h744l-12 -56h-91l-59 -277q33 16 79.5 30.5t108.5 14.5q97 0 139.5 -41t42.5 -130z" />
    <glyph glyph-name="uni04A7" unicode="&#x4a7;" horiz-adv-x="806" 
d="M425 299q8 32 14 60.5t6 55.5q0 23 -12 39.5t-36 16.5q-30 0 -57.5 -12t-50.5 -29.5t-40.5 -36.5t-27.5 -33l-78 -360h-97l99 471h-69v54h178l-23 -104h5q42 51 94 82.5t112 31.5q54 0 77.5 -26.5t23.5 -68.5q0 -23 -6 -58t-13 -65l-20 -87q32 26 70 41.5t83 15.5
q27 0 49.5 -9.5t39 -26t25.5 -38t9 -46.5q0 -56 -17 -116.5t-52.5 -113.5t-89.5 -93.5t-127 -56.5l-19 46q47 20 85.5 53.5t65.5 75t41.5 88t14.5 91.5q0 15 -5.5 29.5t-14.5 25.5t-21.5 17.5t-27.5 6.5q-40 0 -66 -10t-55 -31l-41 -179h-93z" />
    <glyph glyph-name="uni04A8" unicode="&#x4a8;" horiz-adv-x="934" 
d="M842 33q-35 -25 -72.5 -35t-95.5 -10q-19 0 -38 3.5t-35.5 9.5t-30.5 13t-23 13q-11 -6 -28.5 -13t-40 -13t-47.5 -9.5t-50 -3.5q-91 0 -150 29t-93.5 73t-48 96t-13.5 98q0 80 23.5 157t72 137t122.5 97t174 37q34 0 63 -8t46 -21l-28 -40q-10 7 -26 10t-33 3
q-80 0 -135 -34t-89 -87.5t-49.5 -119t-15.5 -129.5q0 -41 10.5 -83.5t36 -78t68.5 -58t108 -22.5q43 0 78 11q-26 17 -50 41.5t-42 56.5t-29 71t-11 85q0 64 18 126.5t56 111.5t97.5 79.5t142.5 30.5q51 0 93.5 -15t73 -42.5t48 -66t17.5 -85.5q0 -62 -18 -122t-53.5 -112
t-89 -92.5t-124.5 -63.5q10 -5 27.5 -9.5t35.5 -4.5q40 0 70.5 11.5t60.5 31.5zM495 299q0 -33 7.5 -65.5t19.5 -61t27 -52t31 -38.5q63 37 104 82.5t65 95t33 100.5t9 99q0 25 -5.5 50t-19 45.5t-35 33.5t-54.5 13q-48 0 -82 -25.5t-56.5 -67.5t-33 -96.5t-10.5 -112.5z
" />
    <glyph glyph-name="uni04A9" unicode="&#x4a9;" horiz-adv-x="728" 
d="M640 26q-11 -20 -41 -28t-62 -8t-65 6.5t-49 20.5q-30 -13 -66 -20t-57 -7q-64 0 -112 16t-80 45t-48 69t-16 87q0 74 27 134.5t72 103.5t104 66.5t122 23.5v-47q-39 -1 -78.5 -20.5t-72 -55t-52.5 -87t-20 -117.5q0 -30 9 -60.5t29.5 -55t53.5 -40t80 -15.5
q15 0 35.5 1.5t29.5 4.5q-54 17 -87 63t-33 106q0 61 25 110.5t65 84.5t88 53.5t95 18.5q66 0 107 -38t41 -117q0 -55 -22 -102.5t-54 -84t-68.5 -61t-65.5 -33.5q14 -5 32 -7t36 -2q29 0 47 7t34 20zM361 195q0 -47 18 -81.5t50 -50.5q22 10 48.5 34.5t50 60.5t39 83.5
t15.5 103.5q0 42 -17 64.5t-55 22.5q-26 0 -52.5 -18.5t-48 -50.5t-35 -75.5t-13.5 -92.5z" />
    <glyph glyph-name="uni04AA" unicode="&#x4aa;" horiz-adv-x="688" 
d="M559 184h64l-33 -157q-30 -16 -76 -26t-91 -13l-68 -188h-50l15 192q-74 9 -121.5 34t-74.5 60.5t-37.5 78.5t-10.5 87q0 100 30 184.5t86 146t136.5 95.5t182.5 34q73 0 118.5 -10.5t80.5 -27.5l-37 -171h-64l23 105l-10 20q-11 5 -37 12.5t-78 7.5q-68 0 -124 -28
t-96.5 -79.5t-63 -124t-22.5 -161.5q0 -43 11.5 -80t37 -64.5t66 -43t97.5 -15.5q36 0 65.5 5.5t43.5 14.5l18 19z" />
    <glyph glyph-name="uni04AB" unicode="&#x4ab;" horiz-adv-x="472" 
d="M436 99q-23 -42 -61.5 -69t-93.5 -36q-8 -7 -15.5 -15t-11.5 -16v-106q-8 -11 -22.5 -21.5t-31 -18.5t-33.5 -14.5t-31 -10.5l-17 35q35 16 55 33v86q10 12 24 23.5t29 20.5q-43 0 -77 15.5t-57.5 42t-36 61.5t-12.5 74q0 78 21 143t61.5 111.5t98.5 72t132 25.5
q42 0 78 -10.5t51 -27.5l-30 -119h-70l21 90q-8 7 -26.5 10t-33.5 3q-45 0 -81.5 -19.5t-63 -54.5t-40.5 -84.5t-14 -110.5q0 -72 33 -113t87 -41q45 0 79.5 19t55.5 48z" />
    <glyph glyph-name="uni04AC" unicode="&#x4ac;" horiz-adv-x="688" 
d="M427 -162h-69l30 140l-15 22h-237l12 56h103l125 588h-180l-23 -22l-28 -129h-72l44 207h654l-44 -207h-72l28 129l-17 22h-178l-125 -588h111z" />
    <glyph glyph-name="uni04AD" unicode="&#x4ad;" horiz-adv-x="884" 
d="M697 315q7 26 13 53.5t6 44.5q0 26 -11.5 42t-43.5 16q-17 0 -38 -9t-41.5 -22.5t-38 -30.5t-25.5 -33l-92 -376h-93l69 295q8 32 13.5 62.5t5.5 62.5q0 23 -9 37t-31 14t-43.5 -8t-41 -21t-36 -30t-29.5 -36l-86 -376h-99l103 471h-68v54h179l-22 -87h4q12 14 30 31
t41 31.5t51.5 24.5t61.5 10q40 0 65 -22.5t25 -78.5q48 46 97 73.5t106 27.5q97 0 97 -101q0 -27 -5.5 -56t-15.5 -63l-74 -261h83v-54q-13 -8 -22.5 -17t-16.5 -21v-112q-49 -45 -129 -61l-18 38q19 8 34 16t32 21v76q10 18 29 32t34 23v5h-133z" />
    <glyph glyph-name="uni04AE" unicode="&#x4ae;" horiz-adv-x="727" 
d="M575 700h254l-12 -56h-85l-287 -347l-51 -241h83l-12 -56h-286l12 56h91l51 240l-152 348h-91l12 56h299l-12 -56h-84l114 -296l236 296h-92z" />
    <glyph glyph-name="uni04AF" unicode="&#x4af;" horiz-adv-x="494" 
d="M85 471h-58v54h152l62 -402v-65h6l20 75l142 301l-21 91h115v-54l-239 -471l-27 -150h77v-50h-186l41 200z" />
    <glyph glyph-name="uni04B0" unicode="&#x4b0;" horiz-adv-x="727" 
d="M575 700h254l-12 -56h-85l-286 -345h164l-12 -56h-165l-39 -187h83l-12 -56h-286l12 56h91l39 187h-161l12 56h159l-150 345h-91l12 56h299l-12 -56h-84l114 -296l236 296h-92z" />
    <glyph glyph-name="uni04B1" unicode="&#x4b1;" horiz-adv-x="494" 
d="M45 51h115l-75 420h-58v54h152l62 -402v-65h6l20 75l142 301l-21 91h115v-54l-213 -420h125l-13 -51h-138l-27 -150h77v-50h-186l41 200h-139z" />
    <glyph glyph-name="uni04B2" unicode="&#x4b2;" horiz-adv-x="746" 
d="M542 700h256l-12 -56h-82l-254 -269l162 -319h91l-47 -218h-69l30 140l-15 22h-200l12 56h73l-123 247l-218 -247h77l-12 -56h-254l12 56h83l283 296l-148 292h-89l12 56h296l-12 -56h-80l108 -223l196 223h-88z" />
    <glyph glyph-name="uni04B3" unicode="&#x4b3;" horiz-adv-x="502" 
d="M221 223l-113 -133l16 -90h-129v54l211 212l-76 205h-68v54h156l66 -207l107 116l-8 91h116v-54l-201 -200l84 -217h83v-54q-13 -8 -22.5 -17t-16.5 -21v-112q-49 -45 -129 -61l-18 38q19 8 34 16t32 21v76q10 18 29 32t34 23v5h-115z" />
    <glyph glyph-name="uni04B4" unicode="&#x4b4;" horiz-adv-x="972" 
d="M701 56l124 588h-72l13 56h275l-12 -56h-91l-126 -588h111l-46 -218h-66l30 141l-15 21h-690l12 56h103l125 588h-179l-25 -22l-27 -129h-72l44 207h585l-44 -207h-64l27 129l-15 22h-118l-125 -588h338z" />
    <glyph glyph-name="uni04B5" unicode="&#x4b5;" horiz-adv-x="601" 
d="M542 54v-54q-13 -8 -22.5 -17t-16.5 -21v-112q-49 -45 -129 -61l-18 38q19 8 34 16t32 21v76q10 18 29 32t34 23v5h-129l21 118h-4q-15 -21 -37 -43.5t-49.5 -41t-60 -31t-68.5 -12.5q-46 0 -73 24.5t-27 71.5q0 14 2.5 36.5t8.5 51.5l63 297h-69v54h180l-70 -299
q-6 -26 -11.5 -55.5t-5.5 -57.5q0 -30 13 -44.5t34 -14.5q34 0 64.5 16t55 37.5t41 44.5t24.5 38l67 335h95l-91 -471h83zM219 668l12 55h288l-12 -55h-288z" />
    <glyph glyph-name="uni04B6" unicode="&#x4b6;" horiz-adv-x="724" 
d="M573 56h112l-47 -218h-69l30 140l-15 22h-239l12 56h104l54 254q-34 -17 -86 -31t-117 -14q-81 0 -129.5 36.5t-48.5 114.5q0 14 1.5 30.5t5.5 33.5l35 164h-81l12 56h266l-12 -56h-73l-35 -162q-3 -15 -5 -29.5t-2 -27.5q0 -48 25.5 -76t85.5 -28q47 0 90.5 12t78.5 29
l60 282h-80l12 56h273l-12 -56h-81z" />
    <glyph glyph-name="uni04B7" unicode="&#x4b7;" horiz-adv-x="547" 
d="M479 54v-54q-13 -8 -22.5 -17t-16.5 -21v-112q-49 -45 -129 -61l-18 38q19 8 34 16t32 21v76q10 18 29 32t34 23v5h-132l55 248h-5q-47 -43 -91 -66t-101 -23q-38 0 -64 22t-26 68q0 19 2.5 39.5t8 46.5t13 59t18.5 77h-68v54h180q-23 -90 -39.5 -149.5t-16.5 -101.5
q0 -22 13 -35t39 -13q18 0 38.5 6.5t40.5 17.5t38 26.5t31 33.5l49 215h94l-103 -471h83z" />
    <glyph glyph-name="uni04B8" unicode="&#x4b8;" horiz-adv-x="748" 
d="M603 56h81l-12 -56h-297l12 56h104l54 254q-25 -11 -60 -22.5t-79 -17.5l-30 -142h-56l29 137h-15q-95 0 -147 39t-52 117q0 14 1.5 28.5t5.5 30.5l34 164h-81l12 56h266l-12 -56h-73l-35 -162q-6 -27 -6 -51q0 -48 26 -78.5t87 -31.5l32 149h56l-31 -146q36 5 71.5 14.5
t67.5 23.5l60 282h-80l12 56h273l-12 -56h-81z" />
    <glyph glyph-name="uni04B9" unicode="&#x4b9;" horiz-adv-x="594" 
d="M526 54v-54h-186l55 248h-5q-19 -18 -43 -33.5t-51 -27.5l-25 -110h-52l20 91q-36 -9 -73 -9q-51 0 -79.5 22t-28.5 68q0 19 2.5 39.5t8 46.5t13 59t18.5 77h-68v54h180q-23 -90 -39.5 -149.5t-16.5 -101.5q0 -22 14 -35t46 -13q17 0 37 3l35 156h53l-32 -141
q29 11 54.5 25.5t39.5 30.5l52 225h94l-103 -471h80z" />
    <glyph glyph-name="uni04BA" unicode="&#x4ba;" horiz-adv-x="718" 
d="M243 644h-81l12 56h297l-12 -56h-104l-54 -254q34 17 86 31t117 14q81 0 129.5 -36.5t48.5 -114.5q0 -14 -1.5 -30.5t-5.5 -33.5l-35 -164h81l-12 -56h-266l12 56h73l35 162q3 15 5 29.5t2 27.5q0 48 -25.5 76t-85.5 28q-47 0 -90.5 -12t-78.5 -29l-60 -282h80l-12 -56
h-273l12 56h81z" />
    <glyph glyph-name="uni04BB" unicode="&#x4bb;" horiz-adv-x="601" 
d="M113 696v54h181l-71 -309h6q38 39 85 66.5t113 27.5q102 0 102 -120q0 -29 -5.5 -61.5t-13.5 -62.5l-61 -237h85v-54h-187l63 273q8 32 14.5 61t6.5 55q0 37 -15.5 58t-47.5 21q-23 0 -45 -6.5t-42 -16.5t-37 -23t-29 -26l-82 -396h-96l148 696h-72z" />
    <glyph glyph-name="uni04BC" unicode="&#x4bc;" horiz-adv-x="909" 
d="M623 712q71 0 124.5 -17.5t89.5 -48t54 -73t18 -92.5q0 -13 -2 -32t-5 -39t-7.5 -39.5t-10.5 -33.5h-546q-1 -11 -1.5 -20t-0.5 -19q0 -61 18 -106t49.5 -74.5t73 -44t89.5 -14.5q53 0 108.5 17t108.5 50l21 -31q-28 -29 -63.5 -49t-73.5 -33t-75.5 -19t-70.5 -6
q-71 0 -128 21t-97 60t-61.5 94.5t-21.5 124.5q0 23 3 49q-88 2 -132 31.5t-44 94.5q0 11 1.5 23.5t3.5 24.5l14 61h133l-20 -92l-67 -28q7 -38 37 -48t82 -11q17 85 56 146t92.5 99t118 56t132.5 18zM620 656q-104 0 -177.5 -64.5t-98.5 -198.5h436q10 28 11.5 55.5
t1.5 37.5q0 34 -10 65t-31 54.5t-54 37t-78 13.5z" />
    <glyph glyph-name="uni04BD" unicode="&#x4bd;" horiz-adv-x="604" 
d="M537 96q-11 -20 -30 -39t-45 -34t-58 -24t-69 -9q-86 0 -137.5 48.5t-51.5 136.5q0 22 2 43t6 42q-27 1 -51 9t-41.5 23t-28 37t-10.5 49q0 42 28 97h96v-92h-68q-1 -4 -1 -7.5v-6.5q0 -26 21 -42.5t66 -18.5q15 50 42 92.5t63.5 72t82.5 46.5t99 17q27 0 51 -6.5
t42 -19.5t28 -31t10 -43q0 -75 -77 -119t-250 -56q-4 -18 -6 -34t-2 -32q0 -63 33.5 -100.5t96.5 -37.5q20 0 39.5 6t37.5 15.5t32.5 21.5t23.5 23zM419 489q-47 0 -87 -40.5t-68 -140.5q106 3 163.5 35t57.5 89q0 11 -3 21.5t-10.5 19t-20 12.5t-32.5 4z" />
    <glyph glyph-name="uni04BE" unicode="&#x4be;" horiz-adv-x="909" 
d="M623 712q71 0 124.5 -17.5t89.5 -48t54 -73t18 -92.5q0 -13 -2 -32t-5 -39t-7.5 -39.5t-10.5 -33.5h-546q-1 -11 -1.5 -20t-0.5 -19q0 -61 18 -106t49.5 -74.5t73 -44t89.5 -14.5q53 0 108.5 17t108.5 50l21 -31q-46 -47 -108.5 -73.5t-122.5 -33.5l-69 -188h-50l15 189
q-60 7 -107.5 31.5t-80.5 63t-50.5 90t-17.5 113.5q0 24 3 50q-88 2 -132 31.5t-44 94.5q0 11 1.5 23.5t3.5 24.5l14 61h133l-20 -92l-67 -28q7 -38 37 -48t82 -11q17 85 56 146t92.5 99t118 56t132.5 18zM620 656q-104 0 -177.5 -64.5t-98.5 -198.5h436q10 28 11.5 55.5
t1.5 37.5q0 34 -10 65t-31 54.5t-54 37t-78 13.5z" />
    <glyph glyph-name="uni04BF" unicode="&#x4bf;" horiz-adv-x="604" 
d="M537 96q-17 -34 -57 -62.5t-97 -38.5q-8 -7 -15.5 -15.5t-11.5 -16.5v-106q-8 -11 -22.5 -21.5t-31 -18.5t-33.5 -14.5t-31 -10.5l-17 35q35 16 55 33v86q10 12 24 23.5t29 20.5q-84 2 -133.5 50.5t-49.5 134.5q0 22 2 43t6 42q-27 1 -51 9t-41.5 23t-28 37t-10.5 49
q0 42 28 97h96v-92h-68q-1 -4 -1 -7.5v-6.5q0 -26 21 -42.5t66 -18.5q15 50 42 92.5t63.5 72t82.5 46.5t99 17q27 0 51 -6.5t42 -19.5t28 -32t10 -42q0 -75 -77 -119t-250 -56q-4 -18 -6 -34t-2 -32q0 -63 33.5 -100.5t96.5 -37.5q20 0 39.5 6t37.5 15.5t32.5 21.5t23.5 23z
M419 489q-47 0 -87 -40.5t-68 -140.5q106 3 163.5 35t57.5 89q0 11 -3 20.5t-10.5 18t-20 13.5t-32.5 5z" />
    <glyph glyph-name="uni04C0" unicode="&#x4c0;" horiz-adv-x="389" 
d="M293 0h-294l12 56h91l125 588h-91l12 56h294l-12 -56h-91l-125 -588h91z" />
    <glyph glyph-name="uni04C3" unicode="&#x4c3;" horiz-adv-x="702" 
d="M394 379q45 -18 87 -48t74.5 -69.5t52 -86t19.5 -96.5q0 -88 -31.5 -144t-80 -88.5t-107 -45t-111.5 -12.5l2 50q42 7 80.5 23.5t67.5 43.5t46.5 66t17.5 91q0 92 -49.5 159.5t-133.5 109.5h-76l-59 -276h83l-11 -56h-286l11 56h91l125 588h-91l12 56h286l-12 -56h-83
l-56 -262h61l269 262h-81l12 56h253l-12 -56h-79z" />
    <glyph glyph-name="uni04C4" unicode="&#x4c4;" horiz-adv-x="565" 
d="M316 289q25 -11 55.5 -37.5t57.5 -62.5t45 -78t18 -84q0 -50 -20.5 -91.5t-57 -72.5t-86.5 -50t-108 -22l-11 46q36 5 67.5 19t55.5 36t38 51t14 64q0 42 -16.5 81.5t-39.5 71.5t-49 55t-44 34h-40l-50 -249h-99l97 471h-78v54h189l-51 -236h33l180 147v89h133v-54z" />
    <glyph glyph-name="uni04C5" unicode="&#x4c5;" horiz-adv-x="730" 
d="M378 644q-24 -94 -45 -167t-40.5 -129t-37.5 -98.5t-35 -75t-34 -58t-34 -48.5q-13 -17 -30 -34t-35 -34h-115l26 126h116q21 25 45 66.5t49.5 104t51 148.5t49.5 199h-104l12 56h585l-12 -56h-91l-125 -588h108v-56q-23 -40 -55 -73t-69.5 -59t-80 -45t-85.5 -31l-20 42
q67 27 118.5 68.5t80.5 97.5h-207l12 56h86l125 588h-209z" />
    <glyph glyph-name="uni04C6" unicode="&#x4c6;" horiz-adv-x="578" 
d="M415 471h-133q-14 -56 -32.5 -123t-44 -132.5t-57.5 -122.5t-72 -93h-101v96h104q25 30 46.5 74t39.5 94t32.5 103.5t25.5 103.5h-78v54h374l-100 -471h111v-53q-14 -34 -35 -66.5t-51 -60.5t-69 -49t-88 -32l-16 44q59 20 103 61t65 102h-125z" />
    <glyph glyph-name="uni04C7" unicode="&#x4c7;" horiz-adv-x="810" 
d="M411 -163q16 7 33.5 19.5t33.5 32t30 46.5t22 65l72 331h-350l-59 -275h83l-12 -56h-285l11 56h91l125 588h-91l12 56h286l-12 -56h-83l-54 -257h350l54 257h-83l12 56h286l-12 -56h-91l-132 -623q-13 -60 -39.5 -102.5t-59 -69.5t-66 -41t-59.5 -18l-13 47v0z" />
    <glyph glyph-name="uni04C8" unicode="&#x4c8;" horiz-adv-x="599" 
d="M222 -168q13 6 33 18t40.5 33.5t39 54.5t27.5 81l44 220h-210l-53 -239h-96l99 471h-70v54h181l-51 -232h211l48 232h95l-104 -508q-13 -62 -42 -103.5t-62.5 -67t-65 -38.5t-48.5 -17l-16 41v0z" />
    <glyph glyph-name="uni04C9" unicode="&#x4c9;" horiz-adv-x="810" 
d="M276 56l-12 -56h-285l11 56h91l125 588h-91l12 56h286l-12 -56h-83l-54 -257h350l54 257h-83l12 56h286l-12 -56h-91l-125 -588h108v-56q-23 -40 -55 -73t-69.5 -59t-80 -45t-85.5 -31l-20 42q67 27 118.5 68.5t80.5 97.5h-204l12 56h83l59 275h-350l-59 -275h83z" />
    <glyph glyph-name="uni04CA" unicode="&#x4ca;" horiz-adv-x="618" 
d="M560 525l-98 -471h108v-53q-14 -34 -35 -66.5t-51 -60.5t-69 -49t-88 -32l-16 44q59 20 103 61t65 102h-121l48 239h-210l-53 -239h-96l99 471h-70v54h181l-51 -232h211l48 232h95z" />
    <glyph glyph-name="uni04CB" unicode="&#x4cb;" horiz-adv-x="718" 
d="M573 56h81l-12 -56h-217l-25 -22l-29 -140h-69l46 218h113l54 254q-34 -17 -86 -31t-117 -14q-81 0 -129.5 36.5t-48.5 114.5q0 14 1.5 30.5t5.5 33.5l35 164h-81l12 56h266l-12 -56h-73l-35 -162q-3 -15 -5 -29.5t-2 -27.5q0 -48 25.5 -76t85.5 -28q47 0 90.5 12
t78.5 29l60 282h-80l12 56h273l-12 -56h-81z" />
    <glyph glyph-name="uni04CC" unicode="&#x4cc;" horiz-adv-x="547" 
d="M476 54v-54h-186l55 248h-5q-47 -43 -91 -66t-101 -23q-38 0 -64 22t-26 68q0 19 2.5 39.5t8 46.5t13 59t18.5 77h-68v54h180q-23 -90 -39.5 -149.5t-16.5 -101.5q0 -22 13 -35t39 -13q18 0 38.5 6.5t40.5 17.5t38 26.5t31 33.5l49 215h94l-103 -471h80zM279 -28
q-10 -7 -19.5 -13.5t-19.5 -15.5v-86q-8 -11 -22.5 -21.5t-31 -18.5t-33.5 -14.5t-31 -10.5l-17 35q35 16 55 33v86q20 20 47 33t53 20z" />
    <glyph glyph-name="uni04CD" unicode="&#x4cd;" horiz-adv-x="974" 
d="M115 644l12 56h227l139 -441l336 441h218l-12 -56h-91l-125 -588h108v-56q-23 -40 -55 -73t-69.5 -59t-80 -45t-85.5 -31l-20 42q67 27 118.5 68.5t80.5 97.5h-208l12 56h91l95 446q1 2 6 21t10 40l14 56h-9l-66 -107l-282 -362h-61l-123 362l-19 117h-10q-7 -33 -12 -59
q-5 -23 -9 -43.5t-5 -24.5l-95 -446h85l-12 -56h-239l11 56h91l125 588h-91z" />
    <glyph glyph-name="uni04CE" unicode="&#x4ce;" horiz-adv-x="791" 
d="M253 471q-10 -54 -25 -121t-36 -133t-49 -123.5t-62 -93.5h-103v96h99q18 22 36 64.5t34 95t29.5 109t22.5 106.5h-64v54h215l25 -390h4l216 390h138l-99 -471h110v-53q-14 -34 -35 -66.5t-51 -60.5t-69 -49t-88 -32l-16 44q59 20 103 61t65 102h-123l103 471h-7
l-233 -417h-104l-24 417h-12z" />
    <glyph glyph-name="uni04CF" unicode="&#x4cf;" horiz-adv-x="306" 
d="M186 696h-74v54h182l-148 -696h79v-54h-90h-97z" />
    <glyph glyph-name="uni04D0" unicode="&#x4d0;" horiz-adv-x="745" 
d="M193 0h-243l12 56h76l394 644h106l98 -644h74l-12 -56h-283l12 56h89l-27 176h-264l-106 -176h86zM260 288h224l-31 231q-1 3 -1 19.5t-1 36.5q-1 22 -1 50h-4l-54 -108zM481 743q-93 0 -135.5 33.5t-42.5 103.5h126v-68q7 -8 24.5 -11t31.5 -3q22 0 45.5 3t44.5 12
t38.5 25t27.5 42h61q-8 -30 -25 -55t-44 -43.5t-64.5 -28.5t-87.5 -10z" />
    <glyph glyph-name="uni04D1" unicode="&#x4d1;" horiz-adv-x="591" 
d="M220 54q19 0 42 11.5t45.5 29.5t42 40.5t32.5 44.5l53 272q-10 13 -29.5 21t-44.5 8q-51 0 -90 -28.5t-66 -74.5t-41 -102.5t-14 -111.5q0 -110 70 -110zM370 117q-10 -17 -28 -39t-43.5 -41.5t-57.5 -33t-69 -13.5q-57 0 -91.5 39t-34.5 117q0 74 21 144t61 124.5
t98.5 87.5t134.5 33q28 0 53.5 -10.5t36.5 -23.5l16 24h77l-94 -471h82v-54h-177l21 117h-6zM374 608q-75 0 -113 24.5t-50 57.5v58h114v-69q13 -9 26 -12.5t39 -3.5q21 0 43 5.5t41 16t33.5 26.5t21.5 37h56q-13 -66 -70.5 -103t-140.5 -37z" />
    <glyph glyph-name="uni04D2" unicode="&#x4d2;" horiz-adv-x="745" 
d="M193 0h-243l12 56h76l394 644h106l98 -644h74l-12 -56h-283l12 56h89l-27 176h-264l-106 -176h86zM260 288h224l-31 231q-1 3 -1 19.5t-1 36.5q-1 22 -1 50h-4l-54 -108zM291 796q0 29 18.5 43.5t46.5 14.5q29 0 48 -14.5t19 -43.5q0 -26 -19 -40t-48 -14q-28 0 -46.5 14
t-18.5 40zM543 796q0 29 19 43.5t46 14.5q29 0 48 -14.5t19 -43.5q0 -26 -19 -40t-48 -14q-27 0 -46 14t-19 40z" />
    <glyph glyph-name="uni04D3" unicode="&#x4d3;" horiz-adv-x="591" 
d="M220 54q19 0 42 11.5t45.5 29.5t42 40.5t32.5 44.5l53 272q-10 13 -29.5 21t-44.5 8q-51 0 -90 -28.5t-66 -74.5t-41 -102.5t-14 -111.5q0 -110 70 -110zM370 117q-10 -17 -28 -39t-43.5 -41.5t-57.5 -33t-69 -13.5q-57 0 -91.5 39t-34.5 117q0 74 21 144t61 124.5
t98.5 87.5t134.5 33q28 0 53.5 -10.5t36.5 -23.5l16 24h77l-94 -471h82v-54h-177l21 117h-6zM190 688q0 29 17.5 46.5t46.5 17.5q28 0 45.5 -17.5t17.5 -46.5q0 -27 -17.5 -44.5t-45.5 -17.5q-29 0 -46.5 17.5t-17.5 44.5zM437 688q0 29 18 46.5t46 17.5q29 0 46 -17.5
t17 -46.5q0 -27 -17 -44.5t-46 -17.5q-28 0 -46 17.5t-18 44.5z" />
    <glyph glyph-name="uni04D4" unicode="&#x4d4;" horiz-adv-x="1018" 
d="M1042 700l-35 -164h-64l19 86l-16 22h-242l-55 -259h169l18 15l9 42h64l-36 -171h-64l9 42l-12 16h-169l-58 -273h262l24 20l21 98h64l-37 -174h-546l12 56h88l42 197h-213l-170 -197h94l-12 -56h-258l12 56h81l515 588h-60l12 56h532zM342 309h179l64 301h-2l-60 -93z
" />
    <glyph glyph-name="uni04D5" unicode="&#x4d5;" horiz-adv-x="817" 
d="M219 57q24 0 46 10.5t40 27t31.5 37.5t21.5 41q0 16 1.5 39.5t3.5 40.5q-24 3 -45 3q-44 0 -76.5 -10.5t-54 -27.5t-32 -38.5t-10.5 -43.5q0 -44 22.5 -61.5t51.5 -17.5zM366 111q-30 -55 -78 -88t-113 -33q-30 0 -56 9.5t-45.5 27t-31 42.5t-11.5 57q0 37 19.5 68
t56.5 53.5t89.5 35t118.5 12.5h28t29 -2q11 35 17.5 65t6.5 54q0 36 -17 56t-56 20q-16 0 -42.5 -4.5t-46.5 -15.5v-92h-96v107q48 24 101.5 38t116.5 14q62 0 93 -16t38 -42q35 27 79.5 42.5t97.5 15.5q27 0 51 -6t41.5 -18.5t28 -31t10.5 -43.5q0 -75 -77 -118.5
t-250 -55.5q-5 -18 -6.5 -34.5t-1.5 -32.5q0 -63 33.5 -100.5t96.5 -37.5q22 0 42 7t37 18t31 24t24 24l31 -35q-12 -21 -32.5 -40t-47 -33.5t-59 -23t-68.5 -8.5q-72 0 -118 29.5t-63 91.5h-1zM632 488q-47 0 -87.5 -40t-68.5 -140q105 3 163 35t58 89q0 22 -13 39t-52 17z
" />
    <glyph glyph-name="uni04D6" unicode="&#x4d6;" horiz-adv-x="635" 
d="M659 700l-35 -164h-64l19 86l-16 22h-245l-55 -259h169l18 15l9 42h64l-36 -171h-64l9 42l-12 16h-169l-58 -273h262l24 20l21 98h64l-37 -174h-548l11 56h91l125 588h-91l12 56h532zM415 743q-93 0 -135.5 33.5t-42.5 103.5h126v-68q7 -8 24.5 -11t31.5 -3q22 0 45.5 3
t44.5 12t38.5 25t27.5 42h61q-8 -30 -25 -55t-44 -43.5t-64.5 -28.5t-87.5 -10z" />
    <glyph glyph-name="uni04D7" unicode="&#x4d7;" horiz-adv-x="501" 
d="M435 96q-11 -20 -30 -39t-45 -34t-58 -24t-69 -9q-86 0 -137.5 48.5t-51.5 136.5q0 75 22 141t62 114t96.5 76.5t125.5 28.5q27 0 51 -6.5t42 -19.5t28 -32t10 -44q0 -72 -76 -116t-249 -56q-4 -18 -6 -34t-2 -32q0 -63 32.5 -100.5t95.5 -37.5q20 0 39.5 6t37.5 15.5
t32.5 21.5t23.5 23zM317 488q-47 0 -86 -41.5t-67 -138.5q106 3 162.5 35t56.5 86q0 11 -3 21.5t-10.5 19t-20 13.5t-32.5 5zM332 608q-75 0 -113 24.5t-50 57.5v58h114v-69q13 -9 26 -12.5t39 -3.5q21 0 43 5.5t41 16t33.5 26.5t21.5 37h56q-13 -66 -70.5 -103t-140.5 -37z
" />
    <glyph glyph-name="uni04D8" unicode="&#x4d8;" horiz-adv-x="786" 
d="M367 -12q-77 0 -132 21t-90.5 56t-52 80t-16.5 92q0 37 5 74t12 63h560q3 33 3 63q0 53 -13 94t-41.5 68.5t-73 42t-108.5 14.5q-14 0 -32.5 -1t-37.5 -3t-37 -5t-31 -7l-21 -23l-24 -117h-64q10 47 18 85q3 16 6.5 31.5t6 27.5t4 19.5l1.5 7.5q43 17 103 29t126 12
q97 0 160.5 -23.5t101 -62t53 -87t15.5 -98.5q0 -91 -21 -173t-68.5 -144.5t-124 -99t-187.5 -36.5zM378 44q51 0 95.5 16.5t80 50.5t59.5 85.5t34 121.5h-449q-2 -8 -4 -19t-3.5 -23t-2 -23t-0.5 -17q0 -50 14.5 -86.5t40 -60t60 -34.5t75.5 -11z" />
    <glyph glyph-name="afii10846" unicode="&#x4d9;" horiz-adv-x="531" 
d="M101 429q14 18 35 37t48 34t59 25t68 10q85 0 130.5 -49t45.5 -142q0 -67 -21.5 -131t-61.5 -113.5t-96 -79.5t-126 -30q-28 0 -54 8t-46 23.5t-32 39t-12 54.5q0 27 14 59t47 60t88 46.5t137 18.5h27.5t28.5 -2q2 7 2.5 17t0.5 16q0 63 -21 100.5t-78 37.5q-25 0 -48 -7
t-42.5 -18t-36 -24t-27.5 -25zM215 37q23 0 46.5 13t44.5 39t38.5 66.5t27.5 96.5q-15 2 -28.5 3t-26.5 1q-47 0 -81 -12.5t-55.5 -33.5t-32 -47.5t-10.5 -53.5q0 -34 22 -53t55 -19z" />
    <glyph glyph-name="uni04DA" unicode="&#x4da;" horiz-adv-x="786" 
d="M367 -12q-77 0 -132 21t-90.5 56t-52 80t-16.5 92q0 37 5 74t12 63h560q3 33 3 63q0 53 -13 94t-41.5 68.5t-73 42t-108.5 14.5q-14 0 -32.5 -1t-37.5 -3t-37 -5t-31 -7l-21 -23l-24 -117h-64q10 47 18 85q3 16 6.5 31.5t6 27.5t4 19.5l1.5 7.5q43 17 103 29t126 12
q97 0 160.5 -23.5t101 -62t53 -87t15.5 -98.5q0 -91 -21 -173t-68.5 -144.5t-124 -99t-187.5 -36.5zM378 44q51 0 95.5 16.5t80 50.5t59.5 85.5t34 121.5h-449q-2 -8 -4 -19t-3.5 -23t-2 -23t-0.5 -17q0 -50 14.5 -86.5t40 -60t60 -34.5t75.5 -11zM281 796q0 29 18.5 43.5
t46.5 14.5q29 0 48 -14.5t19 -43.5q0 -26 -19 -40t-48 -14q-28 0 -46.5 14t-18.5 40zM533 796q0 29 19 43.5t46 14.5q29 0 48 -14.5t19 -43.5q0 -26 -19 -40t-48 -14q-27 0 -46 14t-19 40z" />
    <glyph glyph-name="uni04DB" unicode="&#x4db;" horiz-adv-x="531" 
d="M101 429q14 18 35 37t48 34t59 25t68 10q85 0 130.5 -49t45.5 -142q0 -67 -21.5 -131t-61.5 -113.5t-96 -79.5t-126 -30q-28 0 -54 8t-46 23.5t-32 39t-12 54.5q0 27 14 59t47 60t88 46.5t137 18.5h27.5t28.5 -2q2 7 2.5 17t0.5 16q0 63 -21 100.5t-78 37.5q-25 0 -48 -7
t-42.5 -18t-36 -24t-27.5 -25zM215 37q23 0 46.5 13t44.5 39t38.5 66.5t27.5 96.5q-15 2 -28.5 3t-26.5 1q-47 0 -81 -12.5t-55.5 -33.5t-32 -47.5t-10.5 -53.5q0 -34 22 -53t55 -19zM162 688q0 29 17.5 46.5t46.5 17.5q28 0 45.5 -17.5t17.5 -46.5q0 -27 -17.5 -44.5
t-45.5 -17.5q-29 0 -46.5 17.5t-17.5 44.5zM409 688q0 29 18 46.5t46 17.5q29 0 46 -17.5t17 -46.5q0 -27 -17 -44.5t-46 -17.5q-28 0 -46 17.5t-18 44.5z" />
    <glyph glyph-name="uni04DC" unicode="&#x4dc;" horiz-adv-x="1037" 
d="M412 332l-299 -332h-159l12 56h59q90 90 160 161l59 59t51.5 52t36.5 37l14 14l-164 265h-78l12 56h242l-12 -56h-75l143 -262h78l56 262h-77l12 56h262l-12 -56h-77l-56 -262h75l245 262h-80l12 56h259l-12 -56h-85l-274 -268l202 -320h60l-12 -56h-144l-184 332h-72
l-59 -276h77l-12 -56h-262l12 56h77l59 276h-70zM430 796q0 29 18.5 43.5t46.5 14.5q29 0 48 -14.5t19 -43.5q0 -26 -19 -40t-48 -14q-28 0 -46.5 14t-18.5 40zM682 796q0 29 19 43.5t46 14.5q29 0 48 -14.5t19 -43.5q0 -26 -19 -40t-48 -14q-27 0 -46 14t-19 40z" />
    <glyph glyph-name="uni04DD" unicode="&#x4dd;" horiz-adv-x="913" 
d="M58 433q30 48 77 73t89 25q25 0 45 -11t33 -30.5t20 -45t7 -53.5q0 -25 -2.5 -50.5t-7.5 -50.5h101l49 235h92l-51 -235h100q30 114 93 177.5t144 63.5q17 0 41 -2.5t37 -10.5l-26 -112h-61l18 70q-3 1 -6.5 1h-6.5q-32 0 -60.5 -23t-49.5 -63.5t-33.5 -96.5t-12.5 -122
q0 -57 17.5 -84t46.5 -27q18 0 43 19t40 45l32 -24q-9 -21 -25 -40t-37 -34t-45.5 -24t-51.5 -9q-32 0 -54.5 11.5t-36.5 31t-20.5 46.5t-6.5 58q0 21 2 48t7 54h-97l-53 -243h-91l52 243h-101q-15 -55 -38.5 -100.5t-54 -78.5t-68 -51.5t-79.5 -18.5q-9 0 -21 1t-23.5 3.5
t-22 6t-16.5 8.5l24 110h60l-16 -74q5 -1 14 -1q34 0 63.5 24t52 66.5t35.5 101t13 128.5q0 96 -55 96q-9 0 -21 -5.5t-24.5 -14t-24.5 -19.5t-20 -22zM335 688q0 29 17.5 46.5t46.5 17.5q28 0 45.5 -17.5t17.5 -46.5q0 -27 -17.5 -44.5t-45.5 -17.5q-29 0 -46.5 17.5
t-17.5 44.5zM582 688q0 29 18 46.5t46 17.5q29 0 46 -17.5t17 -46.5q0 -27 -17 -44.5t-46 -17.5q-28 0 -46 17.5t-18 44.5z" />
    <glyph glyph-name="uni04DE" unicode="&#x4de;" horiz-adv-x="616" 
d="M235 -12q-42 0 -78 6t-64 15.5t-47 20.5t-27 20q0 1 5.5 27.5t12.5 57.5l18 82h64l-25 -121l11 -19q22 -14 55 -23.5t65 -9.5q100 0 156 50.5t56 132.5q0 53 -36 77t-102 24h-89l14 64h130q63 19 97.5 64t34.5 99q0 19 -6 37.5t-20.5 32.5t-39 22.5t-61.5 8.5
q-17 0 -35 -1.5t-34.5 -4.5t-30 -6.5t-20.5 -7.5l-17 -19l-21 -99h-64l33 153q21 11 47 18.5t53 12.5t54.5 7.5t51.5 2.5q46 0 87 -8t72 -26t49 -47t18 -70q0 -27 -10 -55.5t-31 -54t-54 -46.5t-80 -31v-4q23 -5 45.5 -15t40.5 -27t29 -41.5t11 -57.5q0 -63 -27.5 -108.5
t-72 -75t-101.5 -43.5t-117 -14zM175 796q0 29 18.5 43.5t46.5 14.5q29 0 48 -14.5t19 -43.5q0 -26 -19 -40t-48 -14q-28 0 -46.5 14t-18.5 40zM427 796q0 29 19 43.5t46 14.5q29 0 48 -14.5t19 -43.5q0 -26 -19 -40t-48 -14q-27 0 -46 14t-19 40z" />
    <glyph glyph-name="uni04DF" unicode="&#x4df;" horiz-adv-x="484" 
d="M40 143h64l-19 -72q8 -11 31 -19t56 -8q27 0 53.5 7.5t47.5 22t34 36t13 49.5q0 43 -22.5 60t-63.5 22h-71v54h58q30 9 51.5 23t36 31t21.5 35t7 34q0 32 -21.5 47.5t-75.5 15.5q-21 0 -41.5 -6.5t-39.5 -14.5l-23 -75h-64l26 105q31 20 70.5 32.5t105.5 12.5
q36 0 66.5 -6t53 -18.5t35 -31t12.5 -43.5q0 -99 -148 -150q34 0 59 -9.5t41 -24.5t23.5 -34t7.5 -38q0 -39 -17 -73.5t-49.5 -60.5t-78 -41t-102.5 -15q-46 0 -92 12.5t-73 37.5zM107 688q0 29 17.5 46.5t46.5 17.5q28 0 45.5 -17.5t17.5 -46.5q0 -27 -17.5 -44.5
t-45.5 -17.5q-29 0 -46.5 17.5t-17.5 44.5zM354 688q0 29 18 46.5t46 17.5q29 0 46 -17.5t17 -46.5q0 -27 -17 -44.5t-46 -17.5q-28 0 -46 17.5t-18 44.5z" />
    <glyph glyph-name="uni04E0" unicode="&#x4e0;" 
d="M336 388q60 0 100.5 -13.5t65 -35t35 -49t10.5 -55.5q0 -114 -88 -180.5t-253 -66.5q-62 0 -110.5 11t-83.5 28q0 2 5 28t12 57l18 82h64l-25 -118l16 -19q6 -3 19 -5.5t29.5 -4t34 -2.5t31.5 -1q58 0 98.5 17t66.5 44t38 60t12 65q0 31 -11 51t-30.5 31.5t-47.5 16
t-61 4.5h-90q0 2 13 64h79l186 198l45 33l1 4l-65 -7h-226l-14 -17l-18 -87h-64l38 179h459l-7 -32l-218 -234z" />
    <glyph glyph-name="uni04E1" unicode="&#x4e1;" horiz-adv-x="485" 
d="M236 212q45 -5 77.5 -20.5t53.5 -39t31 -52.5t10 -62q0 -59 -26 -103.5t-67.5 -74.5t-94 -45t-105.5 -15q-48 0 -85 11.5t-57 28.5v118h64v-86q8 -7 33 -12.5t56 -5.5q34 0 65.5 13.5t56 37t39 55t14.5 67.5q0 28 -7 52.5t-23.5 42.5t-42.5 28t-65 10h-50v52h55l209 243
h-239l-32 -105h-54l23 175h402v-54z" />
    <glyph glyph-name="uni04E2" unicode="&#x4e2;" horiz-adv-x="823" 
d="M265 0h-286l11 56h91l125 588h-91l12 56h287l-12 -56h-84l-91 -429l-28 -75l67 81l417 401l4 22h-91l12 56h288l-12 -56h-91l-125 -588h91l-12 -56h-288l12 56h85l91 428l27 75l-62 -77l-422 -406l-4 -20h91zM341 787l12 64h340l-12 -64h-340z" />
    <glyph glyph-name="uni04E3" unicode="&#x4e3;" 
d="M540 54v-54h-184l21 118h-4q-15 -21 -37 -43.5t-49.5 -41t-60 -31t-68.5 -12.5q-46 0 -73 24.5t-27 71.5q0 14 2.5 36.5t8.5 51.5l63 297h-69v54h180l-69 -299q-6 -26 -12 -55.5t-6 -57.5q0 -30 13 -44.5t34 -14.5q34 0 64.5 16t55 37.5t41 44.5t24.5 38l67 335h95
l-91 -471h81zM221 668l12 55h288l-12 -55h-288z" />
    <glyph glyph-name="uni04E4" unicode="&#x4e4;" horiz-adv-x="823" 
d="M265 0h-286l11 56h91l125 588h-91l12 56h287l-12 -56h-84l-91 -429l-28 -75l67 81l417 401l4 22h-91l12 56h288l-12 -56h-91l-125 -588h91l-12 -56h-288l12 56h85l91 428l27 75l-62 -77l-422 -406l-4 -20h91zM328 796q0 29 18.5 43.5t46.5 14.5q29 0 48 -14.5t19 -43.5
q0 -26 -19 -40t-48 -14q-28 0 -46.5 14t-18.5 40zM580 796q0 29 19 43.5t46 14.5q29 0 48 -14.5t19 -43.5q0 -26 -19 -40t-48 -14q-27 0 -46 14t-19 40z" />
    <glyph glyph-name="uni04E5" unicode="&#x4e5;" 
d="M540 54v-54h-184l21 118h-4q-15 -21 -37 -43.5t-49.5 -41t-60 -31t-68.5 -12.5q-46 0 -73 24.5t-27 71.5q0 14 2.5 36.5t8.5 51.5l63 297h-69v54h180l-69 -299q-6 -26 -12 -55.5t-6 -57.5q0 -30 13 -44.5t34 -14.5q34 0 64.5 16t55 37.5t41 44.5t24.5 38l67 335h95
l-91 -471h81zM176 688q0 29 17.5 46.5t46.5 17.5q28 0 45.5 -17.5t17.5 -46.5q0 -27 -17.5 -44.5t-45.5 -17.5q-29 0 -46.5 17.5t-17.5 44.5zM423 688q0 29 18 46.5t46 17.5q29 0 46 -17.5t17 -46.5q0 -27 -17 -44.5t-46 -17.5q-28 0 -46 17.5t-18 44.5z" />
    <glyph glyph-name="uni04E6" unicode="&#x4e6;" horiz-adv-x="820" 
d="M76 283q0 81 25.5 158.5t78 137.5t132.5 96.5t188 36.5q67 0 123 -19.5t95.5 -56.5t61.5 -89t22 -116q0 -80 -22 -159.5t-71 -142.5t-126 -102t-186 -39q-59 0 -116 17t-103 53t-74 91.5t-28 133.5zM201 282q0 -64 17.5 -109t46 -73.5t65.5 -42t75 -13.5q78 0 130 35.5
t83.5 91.5t45 124.5t13.5 134.5q0 111 -53 168.5t-149 57.5q-71 0 -123 -33t-85.5 -86t-49.5 -120t-16 -135zM312 796q0 29 18.5 43.5t46.5 14.5q29 0 48 -14.5t19 -43.5q0 -26 -19 -40t-48 -14q-28 0 -46.5 14t-18.5 40zM564 796q0 29 19 43.5t46 14.5q29 0 48 -14.5
t19 -43.5q0 -26 -19 -40t-48 -14q-27 0 -46 14t-19 40z" />
    <glyph glyph-name="uni04E7" unicode="&#x4e7;" horiz-adv-x="564" 
d="M44 195q0 56 18.5 116.5t56 109.5t94 81.5t132.5 32.5q87 0 131 -51t44 -149q0 -69 -21 -131t-59 -109t-91 -76t-118 -29q-85 0 -136 52.5t-51 152.5zM323 488q-35 0 -62 -15t-46 -40.5t-32 -58t-21 -68t-11 -70t-3 -65.5q0 -58 27.5 -96t75.5 -38q38 0 68.5 28t52 71.5
t33 99.5t11.5 115q0 62 -22.5 99.5t-70.5 37.5zM173 688q0 29 17.5 46.5t46.5 17.5q28 0 45.5 -17.5t17.5 -46.5q0 -27 -17.5 -44.5t-45.5 -17.5q-29 0 -46.5 17.5t-17.5 44.5zM420 688q0 29 18 46.5t46 17.5q29 0 46 -17.5t17 -46.5q0 -27 -17 -44.5t-46 -17.5
q-28 0 -46 17.5t-18 44.5z" />
    <glyph glyph-name="uni04E8" unicode="&#x4e8;" horiz-adv-x="820" 
d="M76 283q0 81 25.5 158.5t78 137.5t132.5 96.5t188 36.5q67 0 123 -19.5t95.5 -56.5t61.5 -89t22 -116q0 -80 -22 -159.5t-71 -142.5t-126 -102t-186 -39q-59 0 -116 17t-103 53t-74 91.5t-28 133.5zM201 282q0 -64 17.5 -109t46 -73.5t65.5 -42t75 -13.5q63 0 108.5 23.5
t77.5 63t50.5 90.5t27.5 105h-467q-1 -11 -1 -22v-22zM475 656q-58 0 -102.5 -22t-77 -58.5t-53.5 -85.5t-31 -103h465q1 11 1 21.5v21.5q0 111 -53 168.5t-149 57.5z" />
    <glyph glyph-name="uni04E9" unicode="&#x4e9;" horiz-adv-x="564" 
d="M44 195q0 56 18.5 116t56 110t94 82t132.5 32q175 0 175 -197q0 -69 -21 -132t-59 -111t-91 -76.5t-118 -28.5q-85 0 -136 51t-51 154zM323 488q-38 0 -66 -16.5t-47.5 -44t-32 -63.5t-18.5 -74h254q3 31 3 64q0 62 -22.5 98t-70.5 36zM251 37q28 0 52.5 15.5t44 42.5
t34 63t22.5 78h-254q-2 -17 -2 -34v-31q0 -61 27.5 -97.5t75.5 -36.5z" />
    <glyph glyph-name="uni04EA" unicode="&#x4ea;" horiz-adv-x="820" 
d="M76 283q0 81 25.5 158.5t78 137.5t132.5 96.5t188 36.5q67 0 123 -19.5t95.5 -56.5t61.5 -89t22 -116q0 -80 -22 -159.5t-71 -142.5t-126 -102t-186 -39q-59 0 -116 17t-103 53t-74 91.5t-28 133.5zM201 282q0 -64 17.5 -109t46 -73.5t65.5 -42t75 -13.5q63 0 108.5 23.5
t77.5 63t50.5 90.5t27.5 105h-467q-1 -11 -1 -22v-22zM475 656q-58 0 -102.5 -22t-77 -58.5t-53.5 -85.5t-31 -103h465q1 11 1 21.5v21.5q0 111 -53 168.5t-149 57.5zM310 796q0 29 18.5 43.5t46.5 14.5q29 0 48 -14.5t19 -43.5q0 -26 -19 -40t-48 -14q-28 0 -46.5 14
t-18.5 40zM562 796q0 29 19 43.5t46 14.5q29 0 48 -14.5t19 -43.5q0 -26 -19 -40t-48 -14q-27 0 -46 14t-19 40z" />
    </font>
</defs>
</svg>
